<?xml version="1.0" encoding="utf-8"?>
<!-- Generator: Adobe Illustrator 15.1.0, SVG Export Plug-In . SVG Version: 6.00 Build 0)  -->
<!DOCTYPE svg PUBLIC "-//W3C//DTD SVG 1.1//EN" "http://www.w3.org/Graphics/SVG/1.1/DTD/svg11.dtd">
<svg version="1.1" id="Layer_1" xmlns="http://www.w3.org/2000/svg" xmlns:xlink="http://www.w3.org/1999/xlink" x="0px" y="0px"
	 width="545.152px" height="481.099px" viewBox="0 0 545.152 481.099" enable-background="new 0 0 545.152 481.099"
	 xml:space="preserve">
<g id="XMLID_3_">
	<g>
		<path fill="#FFFF01" d="M533.759,195.759c8.62,34.479,14.65,54.31,9.48,86.21c-5.171,31.89-11.21,56.89-27.591,84.479
			c-16.38,27.58-15.51,40.521-58.619,67.24c-37.641,23.34-68.33,29-91.381,35.34c-42.319,11.66-65.869,12.07-93.279,12.07
			s-76.541,0-131.72-15.51c-55.17-15.521-81.03-40.521-100.86-63.8c-19.83-23.271-33.81-62.45-37.93-94.82
			c-4.72-37.07-0.87-94.83,16.38-159.49c12.08-45.27,24.14-56.03,53.45-100c29.31-43.96,79.31-43.1,102.58-46.55
			c23.28-3.45,117.25,3.45,144.83,8.62c27.59,5.17,82.76,15.52,114.66,40.52c31.89,25,41.38,33.62,52.58,43.96
			C497.549,104.378,525.139,161.279,533.759,195.759z M526.858,289.719c4.311-30.17-6.029-57.75-21.55-112.93
			c-15.52-55.17-32.76-57.76-46.55-83.62c-13.8-25.86-42.24-31.89-61.21-43.96c-18.97-12.07-40.08-24.2-62.07-26.73
			c-80.58-9.27-48.27-10.34-83.62-10.34c-35.34,0-65.97-1.72-85.34,0c-21.55,1.91-43.97,14.65-66.38,25.86
			c-22.42,11.21-43.97,53.45-51.73,70.69c-7.76,17.24-12.07,45.69-18.96,64.65c-6.9,18.97-11.21,43.97-12.93,66.97
			c-1.73,23-6.04,33.9,0,71.83c6.03,37.93,12.06,31.03,31.89,71.55c19.83,40.521,34.48,40.521,54.31,48.28
			c19.83,7.75,51.73,18.1,63.8,21.55c12.06,3.45,32.75,14.65,61.2,17.24c28.45,2.58,81.9,2.58,99.14,0
			c17.24-2.59,37.07-14.66,62.07-21.55c25-6.9,39.65-11.21,62.07-26.73c22.41-15.51,43.1-30.17,56.89-58.62
			C521.688,335.408,522.549,319.898,526.858,289.719z"/>
		<path fill="#88FFC3" d="M505.309,176.789c15.521,55.18,25.86,82.76,21.55,112.93c-4.31,30.18-5.17,45.689-18.97,74.14
			c-13.79,28.45-34.479,43.11-56.89,58.62c-22.42,15.521-37.07,19.83-62.07,26.73c-25,6.89-44.83,18.96-62.07,21.55
			c-17.239,2.58-70.689,2.58-99.14,0c-28.45-2.59-49.14-13.79-61.2-17.24c-12.07-3.45-43.97-13.8-63.8-21.55
			c-19.83-7.76-34.48-7.76-54.31-48.28c-19.83-40.52-25.86-33.62-31.89-71.55c-6.04-37.93-1.73-48.83,0-71.83
			c1.72-23,6.03-48,12.93-66.97c6.89-18.96,11.2-47.41,18.96-64.65c7.76-17.24,29.31-59.48,51.73-70.69
			c22.41-11.21,44.83-23.95,66.38-25.86c19.37-1.72,50,0,85.34,0c35.35,0,3.04,1.07,83.62,10.34
			c21.99,2.53,43.101,14.66,62.07,26.73c18.97,12.07,47.41,18.1,61.21,43.96C472.549,119.029,489.789,121.619,505.309,176.789z
			 M488.929,225.068c12.07-21.83-20.689-21.55-27.59-15.52C448.549,220.749,472.889,254.068,488.929,225.068z M418.239,330.238
			l25.859-41.38l-30.17-1.72v-22.42l-14.66,16.38l-32.75-33.62l5.17,34.49l-27.59-17.25l9.48,37.93l-52.58-18.96v18.96l-12.07-4.31
			v34.489l-16.35-7.76l-10.37,13.79l-26.73-40.52l-10.34,41.38l-31.04-0.86l41.38,19.83l-24.14,25.86l25.87-3.45l-8.63,26.729
			l31.9-18.109l-10.34,39.66l30.11-23.28l17.3,37.07l11.21-34.48l6.89,14.65l13.801-6.891l6.89,32.761l15.52-33.62l34.48,12.06
			v-26.72l18.11,7.76l-4.311-21.55l29.311,6.03l-6.04-10.341h9.479l-17.24-25l23.28-14.659L418.239,330.238z M432.029,195.759
			c9.489-12.93-24.811-22.54-26.721-12.93C400.858,205.148,422.549,208.688,432.029,195.759z M369.959,170.068
			c0.109-10.52-43.101-18.28-40.51,6.72C332.029,201.789,369.729,193.648,369.959,170.068z M263.929,213.858
			c6.03,0,31.9-4.31,28.45-26.72c-3.45-22.42-19.521-17.24-32.17-14.66c-12.66,2.59-31.63,20.69-32.49,30.17
			C226.309,218.198,257.889,213.858,263.929,213.858z M201.859,87.999l15.52-34.48l-23.28,12.93l-6.89-35.35l-19.83,42.24
			l-23.28-21.55l-2.58,23.28l-24.14-15.52l14.65,32.76l-31.03-8.62l14.65,23.28l-23.27-6.04v16.38l-29.31,33.62l32.76-15.52
			l-10.35,25l18.1-15.51l13.8,37.93v-45.69l28.45,22.84l-6.04-22.84h15.52l5.17-16.38l23.28,20.69l6.03-32.76l14.66,18.96v-25.86
			h12.93L201.859,87.999z M198.409,255.238c5.17-15.52-9.48-28.449-26.72-19.83c-17.24,8.62-18.11,34.49-18.11,34.49
			C160.479,280.238,193.239,270.759,198.409,255.238z M140.219,300.068c3.02-6.899-25.11-38.84-37.5-25.84
			c-18.1,18.99,4.31,33.6,12.93,38.771C124.269,318.169,137.209,306.969,140.219,300.068z M71.689,344.898
			c1.72,16.37,31.08-8.62,24.16-23.28C88.929,306.969,69.959,328.519,71.689,344.898z"/>
		<path fill="#7F5EA5" d="M461.339,209.549c6.9-6.03,39.66-6.311,27.59,15.52C472.889,254.068,448.549,220.749,461.339,209.549z"/>
		<polygon fill="#EF4F39" points="444.099,288.858 418.239,330.238 438.929,343.169 415.648,357.828 432.889,382.828 
			423.409,382.828 429.449,393.169 400.139,387.139 404.449,408.688 386.339,400.929 386.339,427.648 351.858,415.589 
			336.339,449.209 329.449,416.448 315.648,423.339 308.759,408.688 297.549,443.169 280.249,406.099 250.139,429.379 
			260.479,389.719 228.579,407.828 237.209,381.099 211.339,384.549 235.479,358.688 194.099,338.858 225.139,339.719 
			235.479,298.339 262.209,338.858 272.579,325.068 288.929,332.828 288.929,298.339 300.999,302.648 300.999,283.688 
			353.579,302.648 344.099,264.719 371.688,281.969 366.519,247.479 399.269,281.099 413.929,264.719 413.929,287.139 		"/>
		<path fill="#7F5EA5" d="M405.309,182.829c1.91-9.61,36.21,0,26.721,12.93C422.549,208.688,400.858,205.148,405.309,182.829z"/>
		<path fill="#7F5EA5" d="M329.449,176.789c-2.591-25,40.619-17.24,40.51-6.72C369.729,193.648,332.029,201.789,329.449,176.789z"/>
		<path fill="#7F5EA5" d="M292.379,187.139c3.45,22.41-22.42,26.72-28.45,26.72c-6.04,0-37.62,4.34-36.21-11.21
			c0.86-9.48,19.83-27.58,32.49-30.17C272.858,169.898,288.929,164.719,292.379,187.139z"/>
		<polygon fill="#EF4F39" points="217.379,53.519 201.859,87.999 217.379,101.789 204.449,101.789 204.449,127.648 189.789,108.688 
			183.759,141.449 160.479,120.759 155.309,137.139 139.789,137.139 145.829,159.979 117.379,137.139 117.379,182.829 
			103.579,144.898 85.479,160.409 95.829,135.409 63.069,150.929 92.379,117.309 92.379,100.929 115.649,106.969 100.999,83.688 
			132.029,92.309 117.379,59.549 141.519,75.068 144.099,51.789 167.379,73.338 187.209,31.099 194.099,66.449 		"/>
		<path fill="#7F5EA5" d="M171.689,235.408c17.24-8.619,31.89,4.311,26.72,19.83c-5.17,15.521-37.93,25-44.83,14.66
			C153.579,269.898,154.449,244.028,171.689,235.408z"/>
		<path fill="#7F5EA5" d="M102.719,274.229c12.39-13,40.52,18.94,37.5,25.84c-3.01,6.9-15.95,18.101-24.57,12.931
			C107.029,307.828,84.619,293.219,102.719,274.229z"/>
		<path fill="#7F5EA5" d="M95.849,321.618c6.92,14.66-22.44,39.65-24.16,23.28C69.959,328.519,88.929,306.969,95.849,321.618z"/>
	</g>
	<g>
	</g>
</g>
</svg>
