<?xml version="1.0" encoding="utf-8"?>
<!-- Generator: Adobe Illustrator 15.0.0, SVG Export Plug-In . SVG Version: 6.00 Build 0)  -->
<!DOCTYPE svg PUBLIC "-//W3C//DTD SVG 1.1//EN" "http://www.w3.org/Graphics/SVG/1.1/DTD/svg11.dtd">
<svg version="1.1" id="Layer_1" xmlns="http://www.w3.org/2000/svg" xmlns:xlink="http://www.w3.org/1999/xlink" x="0px" y="0px"
	 width="545.152px" height="481.098px" viewBox="0 0 545.152 481.098" enable-background="new 0 0 545.152 481.098"
	 xml:space="preserve">
<path fill="#EF4F39" d="M533.399,195.759c8.619,34.479,14.649,54.31,9.479,86.21c-5.171,31.89-11.21,56.89-27.591,84.479
	c-16.38,27.58-15.51,40.521-58.619,67.24c-37.641,23.34-68.33,29-91.381,35.34c-42.319,11.66-65.869,12.07-93.28,12.07
	c-27.409,0-76.54,0-131.72-15.51c-55.17-15.521-81.03-40.521-100.86-63.801c-19.829-23.271-33.81-62.449-37.93-94.82
	c-4.72-37.069-0.87-94.829,16.38-159.489c12.08-45.27,24.141-56.03,53.45-100c29.311-43.96,79.311-43.1,102.58-46.55
	c23.28-3.45,117.25,3.45,144.83,8.62c27.59,5.17,82.76,15.52,114.66,40.52c31.89,25,41.38,33.62,52.579,43.96
	C497.189,104.378,524.779,161.279,533.399,195.759z M526.499,289.719c4.311-30.17-6.029-57.75-21.55-112.93
	c-15.521-55.17-32.76-57.76-46.55-83.62c-13.801-25.86-42.24-31.89-61.21-43.96c-18.971-12.07-40.08-24.2-62.07-26.73
	c-80.58-9.27-48.271-10.34-83.62-10.34c-35.34,0-65.97-1.72-85.34,0c-21.55,1.91-43.97,14.65-66.38,25.86
	c-22.42,11.21-43.97,53.45-51.73,70.69c-7.76,17.24-12.069,45.69-18.96,64.65c-6.899,18.97-11.21,43.97-12.93,66.97
	c-1.729,23-6.04,33.9,0,71.83c6.03,37.93,12.061,31.029,31.89,71.55c19.83,40.521,34.48,40.521,54.311,48.28
	c19.83,7.75,51.729,18.1,63.8,21.549c12.061,3.451,32.75,14.65,61.2,17.24c28.45,2.58,81.9,2.58,99.141,0
	c17.239-2.59,37.069-14.66,62.069-21.549c25-6.9,39.649-11.211,62.069-26.73c22.41-15.51,43.101-30.17,56.891-58.62
	C521.329,335.409,522.189,319.898,526.499,289.719z"/>
<path fill="#633192" d="M504.949,176.789c15.521,55.18,25.859,82.76,21.55,112.93c-4.31,30.18-5.17,45.689-18.97,74.14
	c-13.79,28.45-34.479,43.11-56.891,58.62c-22.42,15.521-37.069,19.83-62.069,26.73c-25,6.889-44.83,18.959-62.07,21.549
	c-17.239,2.58-70.689,2.58-99.14,0c-28.45-2.59-49.14-13.789-61.2-17.24c-12.07-3.449-43.97-13.799-63.8-21.549
	c-19.83-7.76-34.48-7.76-54.311-48.28c-19.829-40.521-25.859-33.62-31.89-71.55c-6.04-37.93-1.729-48.83,0-71.83
	c1.72-23,6.03-48,12.93-66.97c6.891-18.96,11.2-47.41,18.96-64.65c7.761-17.24,29.311-59.48,51.73-70.69
	c22.41-11.21,44.83-23.95,66.38-25.86c19.37-1.72,50,0,85.34,0c35.351,0,3.04,1.07,83.62,10.34c21.99,2.53,43.101,14.66,62.07,26.73
	c18.97,12.07,47.409,18.1,61.21,43.96C472.189,119.029,489.429,121.619,504.949,176.789z M488.569,225.068
	c12.069-21.83-20.689-21.55-27.591-15.52C448.189,220.749,472.529,254.068,488.569,225.068z M417.88,330.238l25.859-41.38
	l-30.17-1.72v-22.421l-14.66,16.381l-32.75-33.62l5.17,34.489l-27.59-17.25l9.479,37.931l-52.58-18.96v18.96l-12.069-4.31v34.488
	l-16.352-7.76l-10.369,13.79l-26.729-40.521l-10.34,41.381l-31.04-0.86l41.38,19.83l-24.14,25.86l25.87-3.45l-8.631,26.729
	l31.9-18.109l-10.34,39.66l30.11-23.28l17.301,37.069l11.21-34.479l6.89,14.649l13.801-6.891l6.89,32.762l15.521-33.621
	l34.479,12.061v-26.721l18.11,7.761l-4.311-21.55l29.311,6.029l-6.04-10.34h9.479l-17.24-25l23.28-14.66L417.88,330.238z
	 M431.67,195.759c9.489-12.93-24.811-22.54-26.721-12.93C400.499,205.148,422.189,208.688,431.67,195.759z M369.599,170.068
	c0.11-10.52-43.101-18.28-40.51,6.72C331.67,201.789,369.369,193.648,369.599,170.068z M263.569,213.858
	c6.029,0,31.898-4.31,28.449-26.72c-3.449-22.42-19.521-17.24-32.17-14.66c-12.66,2.59-31.63,20.69-32.49,30.17
	C225.949,218.198,257.529,213.858,263.569,213.858z M201.499,87.999l15.521-34.48l-23.28,12.93l-6.89-35.35l-19.83,42.24
	l-23.28-21.55l-2.58,23.28l-24.14-15.52l14.649,32.76l-31.029-8.62l14.649,23.28l-23.27-6.04v16.38l-29.311,33.62l32.761-15.52
	l-10.351,25l18.101-15.51l13.8,37.93v-45.69l28.45,22.84l-6.04-22.84h15.52l5.17-16.38l23.28,20.69l6.03-32.76l14.659,18.96v-25.86
	h12.931L201.499,87.999z M198.049,255.238c5.171-15.52-9.479-28.449-26.72-19.83c-17.24,8.62-18.109,34.49-18.109,34.49
	C160.119,280.238,192.879,270.758,198.049,255.238z M139.859,300.068c3.02-6.899-25.11-38.84-37.5-25.84
	c-18.101,18.989,4.31,33.601,12.93,38.771S136.849,306.969,139.859,300.068z M71.329,344.898c1.72,16.37,31.08-8.62,24.16-23.28
	C88.569,306.969,69.599,328.519,71.329,344.898z"/>
<path fill="#FFFF01" d="M460.979,209.549c6.9-6.03,39.66-6.311,27.591,15.52C472.529,254.068,448.189,220.749,460.979,209.549z"/>
<polygon fill="#3CBFC3" points="443.739,288.858 417.88,330.238 438.569,343.168 415.289,357.829 432.529,382.829 423.05,382.829 
	429.09,393.168 399.779,387.139 404.09,408.688 385.979,400.929 385.979,427.649 351.499,415.588 335.979,449.209 329.09,416.448 
	315.289,423.338 308.399,408.688 297.189,443.168 279.889,406.099 249.779,429.379 260.119,389.719 228.219,407.829 
	236.849,381.099 210.979,384.549 235.119,358.688 193.739,338.858 224.779,339.719 235.119,298.338 261.849,338.858 
	272.219,325.068 288.569,332.829 288.569,298.338 300.639,302.648 300.639,283.688 353.219,302.648 343.739,264.719 
	371.329,281.969 366.159,247.479 398.909,281.099 413.569,264.719 413.569,287.139 "/>
<path fill="#FFFF01" d="M404.949,182.829c1.91-9.61,36.21,0,26.721,12.93C422.189,208.688,400.499,205.148,404.949,182.829z"/>
<path fill="#FFFF01" d="M329.09,176.789c-2.591-25,40.62-17.24,40.51-6.72C369.369,193.648,331.67,201.789,329.09,176.789z"/>
<path fill="#FFFF01" d="M292.019,187.139c3.45,22.41-22.42,26.72-28.449,26.72c-6.04,0-37.621,4.34-36.21-11.21
	c0.86-9.48,19.83-27.58,32.49-30.17C272.499,169.898,288.569,164.719,292.019,187.139z"/>
<polygon fill="#3CBFC3" points="217.019,53.519 201.499,87.999 217.019,101.789 204.089,101.789 204.089,127.648 189.429,108.688 
	183.399,141.449 160.119,120.759 154.949,137.139 139.429,137.139 145.469,159.979 117.019,137.139 117.019,182.829 
	103.219,144.898 85.119,160.409 95.469,135.409 62.709,150.929 92.019,117.309 92.019,100.929 115.289,106.969 100.639,83.688 
	131.669,92.309 117.019,59.549 141.159,75.068 143.739,51.789 167.019,73.338 186.849,31.099 193.739,66.449 "/>
<path fill="#FFFF01" d="M171.329,235.408c17.24-8.619,31.891,4.311,26.72,19.83c-5.17,15.521-37.93,25-44.829,14.66
	C153.219,269.898,154.089,244.028,171.329,235.408z"/>
<path fill="#FFFF01" d="M102.359,274.229c12.39-13,40.52,18.939,37.5,25.84c-3.01,6.9-15.95,18.102-24.57,12.932
	C106.669,307.829,84.259,293.219,102.359,274.229z"/>
<path fill="#FFFF01" d="M95.489,321.618c6.92,14.66-22.44,39.65-24.16,23.28C69.599,328.519,88.569,306.969,95.489,321.618z"/>
</svg>
