<?xml version="1.0" encoding="utf-8"?>
<!-- Generator: Adobe Illustrator 15.1.0, SVG Export Plug-In . SVG Version: 6.00 Build 0)  -->
<!DOCTYPE svg PUBLIC "-//W3C//DTD SVG 1.1//EN" "http://www.w3.org/Graphics/SVG/1.1/DTD/svg11.dtd">
<svg version="1.1" id="Layer_1" xmlns="http://www.w3.org/2000/svg" xmlns:xlink="http://www.w3.org/1999/xlink" x="0px" y="0px"
	 width="528.561px" height="546.339px" viewBox="0 0 528.561 546.339" enable-background="new 0 0 528.561 546.339"
	 xml:space="preserve">
<g id="XMLID_3_">
	<g>
		<path fill="#0031CC" d="M528.152,248.043c1.72,18.97-1.67,49.14-16.35,95.689c-14.69,46.551-48.311,68.101-52.62,77.591
			c-4.311,9.479-35.34,43.1-46.55,56.89c-11.21,13.8-30.17,21.55-57.761,32.76c-27.59,11.21-39.659,25-55.17,26.73
			c-15.52,1.72-62.07,8.62-92.24,8.62c-30.18,0-59.49,1.72-93.97-31.04c-34.48-32.761-62.93-70.69-75-86.2
			c-12.07-15.521-35.34-51.73-37.93-109.49s4.31-82.76,9.48-114.65c4.86-29.93,19.83-50.86,28.45-59.49
			c8.62-8.62,29.31-35.34,37.07-46.55c7.76-11.2,18.97-20.69,42.24-47.41c23.28-26.73,30.99-23.51,75-43.97
			c27.61-12.83,43.1-5.17,77.59-6.03c34.479-0.86,43.96,5.8,91.38,15.4c47.41,9.6,62.07,32.88,80.17,48.39
			c18.101,15.52,28.45,22.42,56.9,71.55C527.282,185.973,526.423,229.083,528.152,248.043z M511.772,238.563
			c0.36-22.79-2.53-38.67-7.25-52.2v-0.01c-0.02-0.66-0.229-1.23-0.62-1.71c-6.71-18.36-16.8-32.62-26.62-54.7
			c-17.239-38.8-50.859-59.49-68.96-71.55c-10.33-6.89-26.01-14.06-40.92-20.71c-0.02-0.01-0.04-0.02-0.06-0.03
			c-0.021-0.01-0.04-0.02-0.061-0.02c-11.17-4.99-21.91-9.68-29.649-13.73c-18.101-9.48-79.311-6.89-82.761-6.03
			c-3.45,0.86-42.24,8.62-50,8.62c-3.37,0-11.62,0.81-22.2,4.14c-13.78,4.32-31.53,12.9-47.63,29.48
			c-46.73,48.15-49.14,48.28-73.27,93.1c-4.1,7.61-7.94,14.77-11.52,21.59c0,0.02-0.01,0.03-0.02,0.04
			c-0.31,0.44-0.57,0.95-0.8,1.52c0,0.01-0.01,0.01-0.01,0.02c-17.06,32.59-28,57.44-31.62,86.04c-4.61,36.48,4.31,52.86,6.04,78.72
			c1.32,19.88,5.7,38.23,13.14,54.66c-0.31,2.74,0.37,4.62,2.49,5.21c1.58,3.11,3.26,6.141,5.06,9.101
			c12.06,19.829,26.58,43.93,64.65,75c75,61.21,68.13,28.859,115.52,40.52c31.58,7.771,42.95,3.71,55.4-1.88
			c0.45,0.75,1.01,0.42,1.62-0.74l0.01-0.01c7.82-3.54,16.42-7.51,30.9-9.44c38.79-5.18,74.14-29.31,97.41-46.55
			c15.39-11.399,33.039-39,50.199-66.35c8.811-14.03,17.48-28,25.66-39.69C510.043,326.494,510.902,293.733,511.772,238.563z"/>
		<path fill="#88FFC3" d="M504.522,186.363c4.72,13.53,7.61,29.41,7.25,52.2c-0.87,55.169-1.729,87.93-25.87,122.41
			c-8.18,11.69-16.85,25.66-25.66,39.69c5.24-8.26-13.989-32.79-33.819-53.48c-19.83-20.689-23.19-15.35-40.521-37.93
			c-3.7-4.83-18.3-3.33-26.92-17.98c-8.62-14.659-20.49-9.3-30.83-28.85c-10.35-19.55-34.49-20.41,18.101-41.1
			c52.59-20.69,49.14-12.07,62.93-10.35c13.79,1.73,41.38-7.76,56.899-10.34C481.593,198.043,505.013,204.943,504.522,186.363z"/>
		<path fill="#FFFF01" d="M504.522,186.363c0.49,18.58-22.93,11.68-38.44,14.27c-15.52,2.58-43.109,12.07-56.899,10.34
			c-13.79-1.72-10.34-10.34-62.93,10.35c-52.591,20.69-28.45,21.55-18.101,41.1c10.34,19.55,22.21,14.19,30.83,28.85
			c8.62,14.65,23.22,13.15,26.92,17.98c17.33,22.58,20.69,17.24,40.521,37.93c19.83,20.69,39.06,45.221,33.819,53.48
			c-11.71,18.43-38.989-19.86-47.609-25.9c-8.62-6.03-24.141-24.13-34.48-32.75c-10.35-8.63-16.38-26.729-34.49-25
			c-18.1,1.72-25.859-18.97-37.93-15.52c-12.07,3.449-27.58-7.761-27.58-7.761s-5.43-4.1,0,28.45c2.58,15.521,5.46,9.24,4.311,32.76
			c-1.07,21.771-13.801,27.58-6.04,45.721c7.76,18.13,10.35,43.069,12.93,61.17c2.229,15.56-3.82,54.03-7.62,61.17l-0.01,0.01
			c-0.54,0.25-1.08,0.5-1.62,0.74c-3.21-5.33-1.09-21.4-12.3-32.61c-11.21-11.2-5.17-42.239-14.65-57.75
			c-9.49-15.52-10.35-47.42-10.68-62.069c-0.32-14.66-3.98-49.141-7.43-67.24c-3.45-18.11-9.48-28.45-25-26.73
			c-15.51,1.721-35.34,18.971-46.55,18.971s-31.9,5.17-44.83,18.1c-12.93,12.93-44.82,37.93-51.72,53.45
			c-6.9,15.52-27.47,33.14-27.47,33.14c-0.86-1.71-1.69-3.45-2.49-5.21c1.31-11.58,20.43-38.36,23.92-46.04
			c4.31-9.479,31.9-45.68,35.35-47.41c3.45-1.72,24.14-35.34,42.24-39.93c18.1-4.59,46.55-37.66,44.83-48
			c-1.73-10.34-62.07-18.97-73.28-18.97c-11.2,0-68.17-0.09-60.62-19.07c0-0.01,0.01-0.01,0.01-0.02c0.26-0.5,0.53-1.01,0.8-1.52
			c0.01-0.01,0.02-0.02,0.02-0.04c4.69-6.71,18.29,1.01,44.28,2.55c11.65,0.69,25.74-4.37,39.65-6.9
			c34.02-6.19,51.72,11.21,62.07,5.18c10.34-6.04-2.59-55.18-6.9-80.18s-14.06-62.22-6.68-64.82c7.37-2.61,23.92,41.55,29.96,54.48
			c6.03,12.93,11.21,50,35.93,54.31c24.72,4.31,61.48-34.48,70.97-48.28c9.46-13.76,37.16-58.02,47.75-53.51
			c0.021,0,0.04,0.01,0.061,0.02c0.02,0.01,0.04,0.02,0.06,0.03c10.4,4.83-15.13,44.87-20.29,61.22
			c-5.17,16.38-12.069,25-28.45,62.07c-16.38,37.07,29.311,38.79,47.42,38.79c18.101,0,46.551-5.17,74.141-9.48
			c25.58-4,58.79-11.79,63.68-5.64c0.21,0.57,0.42,1.14,0.62,1.71V186.363z M303.152,221.953c3.44-26.08-8.62-32.53-48.89-46.32
			c-40.26-13.8-46.09,15.85-51.98,27.58c-10.52,20.98,0,37.07,12.87,47.42c12.87,10.34,31.1,25.86,55.57,11.79
			C295.183,248.353,299.702,248.043,303.152,221.953z"/>
		<path fill="#FFFF01" d="M504.522,186.354c-0.2-0.57-0.41-1.14-0.62-1.71C504.293,185.124,504.503,185.693,504.522,186.354z"/>
		<path fill="#88FFC3" d="M503.902,184.644c-4.89-6.15-38.1,1.64-63.68,5.64c-27.59,4.31-56.04,9.48-74.141,9.48
			c-18.109,0-63.8-1.72-47.42-38.79c16.381-37.07,23.28-45.69,28.45-62.07c5.16-16.35,30.69-56.39,20.29-61.22
			c14.91,6.65,30.59,13.82,40.92,20.71c18.101,12.06,51.721,32.75,68.96,71.55C487.103,152.023,497.192,166.283,503.902,184.644z"/>
		<path fill="#88FFC3" d="M412.633,374.763c8.62,6.04,35.899,44.33,47.609,25.9c-17.16,27.35-34.81,54.95-50.199,66.35
			c-23.271,17.24-58.62,41.37-97.41,46.55c-14.48,1.931-23.08,5.9-30.9,9.44c3.8-7.14,9.85-45.61,7.62-61.17
			c-2.58-18.101-5.17-43.04-12.93-61.17c-7.761-18.141,4.97-23.95,6.04-45.721c1.149-23.52-1.73-17.239-4.311-32.76
			c-5.43-32.55,0-28.45,0-28.45s15.51,11.21,27.58,7.761c12.07-3.45,19.83,17.239,37.93,15.52c18.11-1.729,24.141,16.37,34.49,25
			C388.492,350.633,404.013,368.733,412.633,374.763z"/>
		<path fill="#88FFC3" d="M367.282,37.633c-10.59-4.51-38.29,39.75-47.75,53.51c-9.489,13.8-46.25,52.59-70.97,48.28
			c-24.72-4.31-29.9-41.38-35.93-54.31c-6.04-12.93-22.59-57.09-29.96-54.48c10.58-3.33,18.83-4.14,22.2-4.14
			c7.76,0,46.55-7.76,50-8.62c3.45-0.86,64.66-3.45,82.761,6.03C345.372,27.953,356.112,32.644,367.282,37.633z"/>
		<path fill="#7F5EA5" d="M254.263,175.633c40.27,13.79,52.33,20.24,48.89,46.32c-3.45,26.09-7.97,26.4-32.43,40.47
			c-24.47,14.07-42.7-1.45-55.57-11.79c-12.87-10.35-23.39-26.44-12.87-47.42C208.172,191.483,214.002,161.833,254.263,175.633z
			 M292.803,226.493c2.59-15.52-3-31.04-28.66-35.35c-25.65-4.31-37.72,0-47.2,23.28s21.33,41.81,31.62,39.66
			C265.893,250.443,290.223,242.013,292.803,226.493z"/>
		<path fill="#EF4F39" d="M264.143,191.144c25.66,4.31,31.25,19.83,28.66,35.35c-2.58,15.52-26.91,23.95-44.24,27.59
			c-10.29,2.149-41.1-16.38-31.62-39.66S238.493,186.833,264.143,191.144z"/>
		<path fill="#FFFF01" d="M281.723,523.013c-0.61,1.16-1.17,1.49-1.62,0.74C280.643,523.513,281.183,523.263,281.723,523.013z"/>
		<path fill="#88FFC3" d="M267.803,491.143c11.21,11.21,9.09,27.28,12.3,32.61c-12.45,5.59-23.82,9.65-55.4,1.88
			c-47.39-11.66-40.52,20.69-115.52-40.52c-38.07-31.07-52.59-55.171-64.65-75c-1.8-2.96-3.48-5.99-5.06-9.101
			c0,0,20.57-17.62,27.47-33.14c6.9-15.521,38.79-40.521,51.72-53.45c12.93-12.93,33.62-18.1,44.83-18.1s31.04-17.25,46.55-18.971
			c15.52-1.72,21.55,8.62,25,26.73c3.45,18.1,7.11,52.58,7.43,67.24c0.33,14.649,1.19,46.55,10.68,62.069
			C262.633,448.904,256.593,479.943,267.803,491.143z"/>
		<path fill="#88FFC3" d="M189.353,95.453c4.31,25,17.24,74.14,6.9,80.18c-10.35,6.03-28.05-11.37-62.07-5.18
			c-13.91,2.53-28,7.59-39.65,6.9c-25.99-1.54-39.59-9.26-44.28-2.55c3.58-6.82,7.42-13.98,11.52-21.59
			c24.13-44.82,26.54-44.95,73.27-93.1c16.1-16.58,33.85-25.16,47.63-29.48C175.292,33.233,185.042,70.453,189.353,95.453z"/>
		<path fill="#88FFC3" d="M183.322,214.423c1.72,10.34-26.73,43.41-44.83,48c-18.1,4.59-38.79,38.21-42.24,39.93
			c-3.45,1.73-31.04,37.931-35.35,47.41c-3.49,7.68-22.61,34.46-23.92,46.04c-7.44-16.43-11.82-34.78-13.14-54.66
			c-1.73-25.859-10.65-42.239-6.04-78.72c3.62-28.6,14.56-53.45,31.62-86.04c-7.55,18.98,49.42,19.07,60.62,19.07
			C121.252,195.453,181.592,204.083,183.322,214.423z"/>
		<path fill="#FFFF01" d="M50.232,174.843c-0.27,0.51-0.54,1.02-0.8,1.52C49.663,175.793,49.922,175.283,50.232,174.843z"/>
		<path fill="#FFFF01" d="M36.982,395.803c0.8,1.76,1.63,3.5,2.49,5.21C37.353,400.423,36.672,398.543,36.982,395.803z"/>
	</g>
	<g>
	</g>
</g>
</svg>
