<?xml version="1.0" encoding="utf-8"?>
<!-- Generator: Adobe Illustrator 15.1.0, SVG Export Plug-In . SVG Version: 6.00 Build 0)  -->
<!DOCTYPE svg PUBLIC "-//W3C//DTD SVG 1.1//EN" "http://www.w3.org/Graphics/SVG/1.1/DTD/svg11.dtd">
<svg version="1.1" id="Layer_1" xmlns="http://www.w3.org/2000/svg" xmlns:xlink="http://www.w3.org/1999/xlink" x="0px" y="0px"
	 width="561.352px" height="583.203px" viewBox="0 0 561.352 583.203" enable-background="new 0 0 561.352 583.203"
	 xml:space="preserve">
<path fill="#D7E516" d="M65.942,104.968c0,0,66.486-55.154,100.958-69.805S256.528-4.478,324.609,0.693
	c68.08,5.17,137.885,60.325,156.844,92.211c18.961,31.887,54.629,108.779,59.633,124.626c5.002,15.847,15.344,79.062,17.93,87.528
	c2.584,8.465,2.584,54.141-6.033,75.686c-8.617,21.543-15.512,56.014-33.609,78.422c-18.098,22.406-52.568,49.984-68.082,63.773
	c-15.512,13.787-7.754,25.715-77.561,46.037c-69.805,20.32-129.269,16.012-173.22,4.807
	c-43.951-11.203-99.973-51.707-109.881-60.324s-50.412-46.535-62.477-78.422c-12.066-31.887-18.099-41.775-24.131-81.215
	c-6.033-39.438-6.895-72.195,0-110.541c6.895-38.344-2.23-44.801,25.854-90.913C48.76,121.359,35.651,137.716,65.942,104.968z"/>
<path fill="#0031CC" d="M26.428,194.595c-7.1,27.754-17.235,75.838-13.788,115.48c3.446,39.643,15.513,100.83,29.3,118.928
	c13.789,18.098,16.375,40.504,74.977,86.18c58.602,45.674,61.051,40.502,72.754,42.227c11.701,1.725,51.344,13.789,82.368,11.203
	s60.326,0.861,74.975-3.447c14.65-4.309,9.74,5.17,40.635-14.65c0,0-12.195-22.406-13.057-30.162s9.738-31.887,13.057-39.643
	s17.107-16.203,26.586-27.061s21.996-7.316,31.887-55.672c7.756-37.918,29.328-41.602,37.918-41.602
	c14.664,0,42.229,6.268,49.123,9.715c6.893,3.447,3.445-39.336,6.893-61.033c3.447-21.699-2.584-53.225-6.031-61.592
	s-10.342-37.651-18.959-54.033c-8.619-16.383-28.383-59.102-39.615-76.953c-11.23-17.853-46.387-53.186-57.68-55.771
	c-11.291-2.585-28.527-22.406-69.031-28.438s-68.261-9.479-86.699,0c0,0-0.341,58.972-19.3,84.21
	c-18.961,25.237-26.717,29.546-45.676,33.855c-18.959,4.309-36.195,8.617-63.772,1.723s-43.089-19.82-48.261-31.885
	c-5.17-12.066-29.449,25.853-36.27,35.332C41.94,160.986,30.562,178.437,26.428,194.595z"/>
<path fill="#88FFC3" d="M127.258,85.148c0,0-18.099,14.65-27.578,19.82c0,0,6.895,18.1,41.366,26.717s54.456,14.193,81.87-9.48
	c27.415-23.672,27.578-51.707,27.578-56.878s0.861-23.269,0-33.61c0,0-24.992,5.172-27.578,5.172
	c-2.585,0,5.17,37.469-12.064,46.742c-17.236,9.273-23.27,17.892-41.367,17.892S136.738,95.49,127.258,85.148z"/>
<path fill="#7F5EA5" d="M138.461,78.253c-0.01-14.539,72.391-37.057,72.391-37.057c2.585,4.309,7.756,25.854-7.757,37.057
	S166.901,90.58,157.42,90.319C147.941,90.059,138.465,85.201,138.461,78.253z"/>
<path fill="#88FFC3" d="M399.583,542.759l43.09-27.576c0,0-14.652-6.035-6.033-30.164c8.617-24.129,26.715-16.373,31.023-43.09
	c7.59-47.064,19.822-45.674,30.164-46.537c10.342-0.861,18.959,0,27.576,6.895c8.619,6.895,6.033-19.82,6.033-19.82
	s-22.58-10.34-39.299-9.48c-16.717,0.861-27.92,5.172-33.092,23.27c-5.17,18.098-0.861,24.992-20.682,48.26
	s-40.547,26.715-46.58,48.752C384.156,521.134,387.648,514.632,399.583,542.759z"/>
<path fill="#0031CC" d="M496.966,464.363c0,0,22.908-21.52,23.268-50.01c0.088-6.895-22.582-16.373-28.096,0
	s-0.344,21.543-10.686,35.332c-10.34,13.789-21.545,16.373-26.715,32.748c-5.172,16.375-5.172,19.822,0,22.408
	C459.908,507.425,487.638,473.705,496.966,464.363z"/>
<path fill="#FFFF01" d="M57.453,250.613c-2.62,21.539-9.479,74.113-8.618,80.146c0.862,6.033,5.776,56.879,17.107,68.082
	c11.332,11.201,34.601,36.195,48.389,48.26c13.789,12.064,28.304,40.504,75.34,52.568c47.035,12.064,71.161,17.416,104.767-12.064
	c15.52-13.617,15.52-13.617,20.26-33.955c4.74-20.338,10.455-37.576,1.996-69.461s-24.998-50.846-36.98-56.879
	c-11.982-6.031-32.666-9.477-45.593-13.787c-12.927-4.309-27.576-2.586-32.748-18.529c-5.17-15.943-19.913-40.574-25.037-51.527
	c-5.125-10.951-28.395-28.974-37.873-32.89c-9.479-3.916-18.964-21.151-47.832-6.501C61.762,218.726,58.111,245.205,57.453,250.613z
	"/>
<path fill="#88FFC3" d="M82.445,404.011c33.08,34.219,71.437,61.186,93.89,73.252c22.452,12.064,68.809,22.406,85.704,11.203
	c16.895-11.203,32.398,0,50.018-62.91c4.933-17.613-3.808-52.57-25.36-76.699c-21.553-24.131-53.439-21.547-60.333-21.547
	c-6.895,0-37.057-6.895-40.504-32.316s-3.447-9.049-18.96-40.936c-15.513-31.885-25.163-13.891-38.78-36.528
	c-11.203-18.625-40.178,4.644-50.252,17.569c-10.073,12.928-11.797,37.057-11.797,53.432s0.861,52.641,0,62.086
	C65.209,360.06,68.481,389.568,82.445,404.011z"/>
<path fill="#0031CC" d="M90.629,356.376c12.534,26.547,40.076,68.318,54.727,78.66c14.65,10.34,37.918,30.16,80.146,29.299
	c42.228-0.861,49.984-25.852,53.431-44.813c3.447-18.959-3.447-47.871-43.089-63.146c-39.643-15.275-37.572-20.432-50.673-33.797
	s-23.441-15.951-30.336-45.252s-25.854-32.387-34.472-33.861c-8.618-1.473-22.411,6.031-29.734,15.637
	c-7.322,9.607-14.217,41.494-12.494,58.729C79.86,335.068,86.182,346.957,90.629,356.376z"/>
<path fill="#EF4F39" d="M200.51,449.685c21.619,9.27,56.017,2.586,60.325-23.268s-3.446-44.814-15.512-52.57
	s-49.997-18.541-62.911-38.924c-14.65-23.125-31.887-12.344-39.643-35.451c-7.64-22.76-27.577-45.414-36.195-39.381
	c-8.617,6.033-18.098,23.268-15.512,51.707c2.585,28.439,12.928,49.984,24.992,67.221s12.927,35.334,42.227,47.398
	C187.583,438.482,194.534,447.123,200.51,449.685z"/>
<path fill="#FFFF01" d="M353.046,112.48c16.24-12.485,32.268-19.053,72.291-10.958c11.709,2.368,51.807,42.228,55.254,56.878
	s20.684,53.432,5.17,93.936c-15.512,40.504-46.535,79.285-86.178,81.871s-81.025-0.158-105.146-36.705
	c-24.122-36.549-2.411-68.667,0-80.043C308.234,152.368,353.046,112.48,353.046,112.48z"/>
<path fill="#88FFC3" d="M296.168,243.466c0,0,37.921-82.48,41.366-90.236c3.447-7.757,36.715-63.628,93.074-30.164
	c27.576,16.375,45.672,87.041,44.813,100.83c-0.861,13.789-8.617,78.424-62.91,93.936s-90.615-11.168-100.455-20.33
	C286.697,273.88,296.168,243.466,296.168,243.466z"/>
<path fill="#0031CC" d="M414.234,276.466c0,0,24.98-46.424,0-87.033c-13.789-22.415-59.463-6.887-65.496,0
	s-47.397,64.625-34.041,91.342c13.357,26.715,35.766,28.777,65.928,18.697S414.234,276.466,414.234,276.466z"/>
<path fill="#D7E516" d="M403.031,280.775c0,0,43.898-72.453-19.822-90.488c-19.82-5.61-49.984,17.236-56.877,45.244
	c-5.871,23.848-13.133,42.123,13.789,55.586C378.039,310.076,403.031,280.775,403.031,280.775z"/>
</svg>
