<?xml version="1.0" encoding="utf-8"?>
<!-- Generator: Adobe Illustrator 15.1.0, SVG Export Plug-In . SVG Version: 6.00 Build 0)  -->
<!DOCTYPE svg PUBLIC "-//W3C//DTD SVG 1.1//EN" "http://www.w3.org/Graphics/SVG/1.1/DTD/svg11.dtd">
<svg version="1.1" id="Layer_1" xmlns="http://www.w3.org/2000/svg" xmlns:xlink="http://www.w3.org/1999/xlink" x="0px" y="0px"
	 width="561.352px" height="583.203px" viewBox="0 0 561.352 583.203" enable-background="new 0 0 561.352 583.203"
	 xml:space="preserve">
<path fill="#FFFF01" d="M66.772,104.968c0,0,66.486-55.154,100.958-69.805S257.358-4.478,325.439,0.693
	c68.08,5.17,137.887,60.325,156.846,92.211c18.959,31.887,54.629,108.779,59.631,124.626c5.004,15.847,15.346,79.062,17.93,87.528
	c2.586,8.465,2.584,54.141-6.033,75.686c-8.617,21.543-15.512,56.014-33.609,78.422c-18.098,22.406-52.568,49.984-68.08,63.773
	c-15.512,13.787-7.756,25.715-77.561,46.037c-69.807,20.32-129.27,16.012-173.221,4.807
	c-43.951-11.203-99.973-51.707-109.881-60.324s-50.412-46.535-62.477-78.422c-12.066-31.887-18.099-41.775-24.131-81.215
	c-6.033-39.438-6.895-72.195,0-110.541c6.895-38.344-2.23-44.801,25.854-90.913C49.591,121.359,36.481,137.716,66.772,104.968z"/>
<path fill="#88FFC3" d="M27.259,194.595c-7.1,27.754-17.235,75.838-13.788,115.48c3.446,39.643,15.513,100.83,29.3,118.928
	c13.789,18.098,16.375,40.504,74.977,86.18c58.602,45.674,61.051,40.502,72.754,42.227c11.701,1.725,51.344,13.789,82.368,11.203
	c31.025-2.586,60.326,0.861,74.976-3.447s9.74,5.17,40.633-14.65c0,0-12.195-22.406-13.057-30.162
	c-0.859-7.756,9.74-31.887,13.057-39.643c3.318-7.756,17.107-16.203,26.586-27.061c9.48-10.857,21.996-7.316,31.887-55.672
	c7.758-37.918,29.33-41.602,37.92-41.602c14.664,0,42.227,6.268,49.121,9.715s3.447-39.336,6.895-61.033
	c3.447-21.699-2.584-53.225-6.031-61.592c-3.449-8.367-10.342-37.651-18.961-54.033c-8.617-16.383-28.383-59.102-39.613-76.953
	c-11.232-17.853-46.389-53.186-57.68-55.771c-11.293-2.585-28.529-22.406-69.033-28.438c-40.503-6.032-68.26-9.479-86.699,0
	c0,0-0.341,58.972-19.3,84.21c-18.961,25.237-26.717,29.546-45.676,33.855c-18.959,4.309-36.195,8.617-63.772,1.723
	s-43.089-19.82-48.261-31.885c-5.17-12.066-29.449,25.853-36.27,35.332C42.771,160.986,31.393,178.437,27.259,194.595z"/>
<path fill="#0031CC" d="M128.089,85.148c0,0-18.099,14.65-27.578,19.82c0,0,6.895,18.1,41.366,26.717s54.456,14.193,81.87-9.48
	c27.415-23.672,27.578-51.707,27.578-56.878s0.861-23.269,0-33.61c0,0-24.992,5.172-27.578,5.172
	c-2.585,0,5.17,37.469-12.064,46.742c-17.236,9.273-23.27,17.892-41.367,17.892S137.568,95.49,128.089,85.148z"/>
<path fill="#7F5EA5" d="M139.292,78.253c-0.01-14.539,72.391-37.057,72.391-37.057c2.585,4.309,7.756,25.854-7.757,37.057
	s-36.194,12.326-45.675,12.065C148.771,90.059,139.296,85.201,139.292,78.253z"/>
<path fill="#7F5EA5" d="M400.416,542.759l43.088-27.576c0,0-14.65-6.035-6.033-30.164c8.619-24.129,26.717-16.373,31.025-43.09
	c7.59-47.064,19.822-45.674,30.164-46.537c10.342-0.861,18.957,0,27.576,6.895s6.033-19.82,6.033-19.82s-22.582-10.34-39.299-9.48
	c-16.719,0.861-27.922,5.172-33.092,23.27s-0.861,24.992-20.684,48.26c-19.82,23.268-40.547,26.715-46.578,48.752
	C384.988,521.134,388.478,514.632,400.416,542.759z"/>
<path fill="#0031CC" d="M497.796,464.363c0,0,22.908-21.52,23.27-50.01c0.086-6.895-22.582-16.373-28.096,0
	c-5.516,16.373-0.344,21.543-10.686,35.332s-21.545,16.373-26.717,32.748c-5.17,16.375-5.17,19.822,0,22.408
	C460.74,507.425,488.47,473.705,497.796,464.363z"/>
<path fill="#7F5EA5" d="M58.283,250.613c-2.62,21.539-9.479,74.113-8.618,80.146c0.862,6.033,5.776,56.879,17.107,68.082
	c11.332,11.201,34.601,36.195,48.389,48.26c13.789,12.064,28.304,40.504,75.34,52.568c47.035,12.064,71.161,17.416,104.766-12.064
	c15.522-13.617,15.522-13.617,20.262-33.955c4.74-20.338,10.455-37.576,1.994-69.461c-8.458-31.885-24.998-50.846-36.98-56.879
	c-11.982-6.031-32.666-9.477-45.593-13.787c-12.927-4.309-27.576-2.586-32.748-18.529c-5.17-15.943-19.913-40.574-25.037-51.527
	c-5.125-10.951-28.395-28.974-37.873-32.89c-9.479-3.916-18.964-21.151-47.832-6.501C62.593,218.726,58.941,245.205,58.283,250.613z
	"/>
<path fill="#FFFF01" d="M83.275,404.011c33.08,34.219,71.437,61.186,93.89,73.252c22.452,12.064,68.809,22.406,85.704,11.203
	c16.895-11.203,32.398,0,50.019-62.91c4.932-17.613-3.808-52.57-25.361-76.699c-21.553-24.131-53.439-21.547-60.333-21.547
	c-6.895,0-37.057-6.895-40.504-32.316s-3.447-9.049-18.96-40.936c-15.513-31.885-25.163-13.891-38.78-36.528
	c-11.203-18.625-40.178,4.644-50.252,17.569c-10.073,12.928-11.797,37.057-11.797,53.432s0.861,52.641,0,62.086
	C66.04,360.06,69.312,389.568,83.275,404.011z"/>
<path fill="#0031CC" d="M91.46,356.376c12.534,26.547,40.076,68.318,54.727,78.66c14.65,10.34,37.918,30.16,80.146,29.299
	c42.228-0.861,49.984-25.852,53.431-44.813c3.447-18.959-3.447-47.871-43.089-63.146c-39.643-15.275-37.572-20.432-50.673-33.797
	s-23.441-15.951-30.336-45.252s-25.854-32.387-34.472-33.861c-8.618-1.473-22.411,6.031-29.734,15.637
	c-7.322,9.607-14.217,41.494-12.494,58.729C80.69,335.068,87.013,346.957,91.46,356.376z"/>
<path fill="#3CBFC3" d="M201.341,449.685c21.619,9.27,56.017,2.586,60.325-23.268s-3.446-44.814-15.512-52.57
	s-49.997-18.541-62.911-38.924c-14.65-23.125-31.887-12.344-39.643-35.451c-7.64-22.76-27.577-45.414-36.195-39.381
	c-8.617,6.033-18.098,23.268-15.512,51.707c2.585,28.439,12.928,49.984,24.992,67.221s12.927,35.334,42.227,47.398
	C188.413,438.482,195.364,447.123,201.341,449.685z"/>
<path fill="#7F5EA5" d="M353.878,112.48c16.238-12.485,32.266-19.053,72.289-10.958c11.711,2.368,51.807,42.228,55.254,56.878
	c3.449,14.65,20.684,53.432,5.172,93.936s-46.535,79.285-86.178,81.871s-81.027-0.158-105.148-36.705
	c-24.122-36.549-2.41-68.667,0-80.043C309.064,152.368,353.878,112.48,353.878,112.48z"/>
<path fill="#88FFC3" d="M297,243.466c0,0,37.92-82.48,41.367-90.236c3.445-7.757,36.713-63.628,93.072-30.164
	c27.578,16.375,45.674,87.041,44.813,100.83s-8.617,78.424-62.91,93.936s-90.615-11.168-100.453-20.33
	C287.527,273.88,297,243.466,297,243.466z"/>
<path fill="#0031CC" d="M415.064,276.466c0,0,24.982-46.424,0-87.033c-13.789-22.415-59.463-6.887-65.496,0
	s-47.396,64.625-34.039,91.342c13.357,26.715,35.764,28.777,65.926,18.697S415.064,276.466,415.064,276.466z"/>
<path fill="#FFFF01" d="M403.861,280.775c0,0,43.9-72.453-19.82-90.488c-19.82-5.61-49.984,17.236-56.879,45.244
	c-5.869,23.848-13.133,42.123,13.789,55.586C378.871,310.076,403.861,280.775,403.861,280.775z"/>
</svg>
