<?xml version="1.0" encoding="utf-8"?>
<!-- Generator: Adobe Illustrator 15.1.0, SVG Export Plug-In . SVG Version: 6.00 Build 0)  -->
<!DOCTYPE svg PUBLIC "-//W3C//DTD SVG 1.1//EN" "http://www.w3.org/Graphics/SVG/1.1/DTD/svg11.dtd">
<svg version="1.1" id="Layer_1" xmlns="http://www.w3.org/2000/svg" xmlns:xlink="http://www.w3.org/1999/xlink" x="0px" y="0px"
	 width="1366px" height="729.99px" viewBox="0 0 1366 729.99" enable-background="new 0 0 1366 729.99" xml:space="preserve">
<polygon fill="#E4E4E4" points="27.327,40.971 0,0 0,10.7 27.327,51.671 54.654,10.7 54.654,0 "/>
<polygon fill="#E4E4E4" points="81.981,40.971 54.654,0 54.654,10.7 81.981,51.671 109.308,10.7 109.308,0 "/>
<polygon fill="#E4E4E4" points="136.635,40.971 109.308,0 109.308,10.7 136.635,51.671 163.962,10.7 163.962,0 "/>
<polygon fill="#E4E4E4" points="191.289,40.971 163.962,0 163.962,10.7 191.289,51.671 218.616,10.7 218.616,0 "/>
<polygon fill="#E4E4E4" points="245.943,40.971 218.616,0 218.616,10.7 245.943,51.671 273.27,10.7 273.27,0 "/>
<polygon fill="#E4E4E4" points="300.597,40.971 273.27,0 273.27,10.7 300.597,51.671 327.924,10.7 327.924,0 "/>
<polygon fill="#E4E4E4" points="355.25,40.971 327.924,0 327.924,10.7 355.25,51.671 382.578,10.7 382.578,0 "/>
<polygon fill="#E4E4E4" points="409.905,40.971 382.578,0 382.578,10.7 409.905,51.671 437.231,10.7 437.231,0 "/>
<polygon fill="#E4E4E4" points="464.559,40.971 437.231,0 437.231,10.7 464.559,51.671 491.886,10.7 491.886,0 "/>
<polygon fill="#E4E4E4" points="519.212,40.971 491.886,0 491.886,10.7 519.212,51.671 546.54,10.7 546.54,0 "/>
<polygon fill="#E4E4E4" points="573.866,40.971 546.54,0 546.54,10.7 573.866,51.671 601.193,10.7 601.193,0 "/>
<polygon fill="#E4E4E4" points="628.521,40.971 601.193,0 601.193,10.7 628.521,51.671 655.847,10.7 655.847,0 "/>
<polygon fill="#E4E4E4" points="683.174,40.971 655.847,0 655.847,10.7 683.174,51.671 710.501,10.7 710.501,0 "/>
<polygon fill="#E4E4E4" points="737.828,40.971 710.501,0 710.501,10.7 737.828,51.671 765.155,10.7 765.155,0 "/>
<polygon fill="#E4E4E4" points="792.482,40.971 765.155,0 765.155,10.7 792.482,51.671 819.81,10.7 819.81,0 "/>
<polygon fill="#E4E4E4" points="847.136,40.971 819.81,0 819.81,10.7 847.136,51.671 874.463,10.7 874.463,0 "/>
<polygon fill="#E4E4E4" points="901.79,40.971 874.463,0 874.463,10.7 901.79,51.671 929.117,10.7 929.117,0 "/>
<polygon fill="#E4E4E4" points="956.444,40.971 929.117,0 929.117,10.7 956.444,51.671 983.771,10.7 983.771,0 "/>
<polygon fill="#E4E4E4" points="1011.098,40.971 983.771,0 983.771,10.7 1011.098,51.671 1038.425,10.7 1038.425,0 "/>
<polygon fill="#E4E4E4" points="1065.752,40.971 1038.425,0 1038.425,10.7 1065.752,51.671 1093.079,10.7 1093.079,0 "/>
<polygon fill="#E4E4E4" points="1120.406,40.971 1093.079,0 1093.079,10.7 1120.406,51.671 1147.732,10.7 1147.732,0 "/>
<polygon fill="#E4E4E4" points="1175.06,40.971 1147.732,0 1147.732,10.7 1175.06,51.671 1202.387,10.7 1202.387,0 "/>
<polygon fill="#E4E4E4" points="1229.714,40.971 1202.387,0 1202.387,10.7 1229.714,51.671 1257.041,10.7 1257.041,0 "/>
<polygon fill="#E4E4E4" points="1284.367,40.971 1257.041,0 1257.041,10.7 1284.367,51.671 1311.694,10.7 1311.694,0 "/>
<polygon fill="#E4E4E4" points="1339.021,40.971 1311.694,0 1311.694,10.7 1339.021,51.671 1366.349,10.7 1366.349,0 "/>
<polygon fill="#E4E4E4" points="27.327,12.806 18.786,0 11.648,0 27.327,23.506 43.005,0 35.869,0 "/>
<polygon fill="#E4E4E4" points="81.981,12.806 73.439,0 66.302,0 81.981,23.506 97.66,0 90.522,0 "/>
<polygon fill="#E4E4E4" points="136.635,12.806 128.093,0 120.957,0 136.635,23.506 152.313,0 145.176,0 "/>
<polygon fill="#E4E4E4" points="191.289,12.806 182.747,0 175.61,0 191.289,23.506 206.967,0 199.83,0 "/>
<polygon fill="#E4E4E4" points="245.943,12.806 237.401,0 230.264,0 245.943,23.506 261.621,0 254.484,0 "/>
<polygon fill="#E4E4E4" points="300.597,12.806 292.055,0 284.918,0 300.597,23.506 316.275,0 309.138,0 "/>
<polygon fill="#E4E4E4" points="355.25,12.806 346.709,0 339.572,0 355.25,23.506 370.929,0 363.792,0 "/>
<polygon fill="#E4E4E4" points="409.905,12.806 401.363,0 394.226,0 409.905,23.506 425.583,0 418.446,0 "/>
<polygon fill="#E4E4E4" points="464.559,12.806 456.017,0 448.88,0 464.559,23.506 480.237,0 473.1,0 "/>
<polygon fill="#E4E4E4" points="519.212,12.806 510.671,0 503.534,0 519.212,23.506 534.891,0 527.754,0 "/>
<polygon fill="#E4E4E4" points="573.866,12.806 565.325,0 558.188,0 573.866,23.506 589.545,0 582.408,0 "/>
<polygon fill="#E4E4E4" points="628.521,12.806 619.979,0 612.842,0 628.521,23.506 644.199,0 637.062,0 "/>
<polygon fill="#E4E4E4" points="683.174,12.806 674.633,0 667.496,0 683.174,23.506 698.853,0 691.716,0 "/>
<polygon fill="#E4E4E4" points="737.828,12.806 729.286,0 722.149,0 737.828,23.506 753.507,0 746.37,0 "/>
<polygon fill="#E4E4E4" points="792.482,12.806 783.94,0 776.804,0 792.482,23.506 808.161,0 801.024,0 "/>
<polygon fill="#E4E4E4" points="847.136,12.806 838.595,0 831.458,0 847.136,23.506 862.814,0 855.678,0 "/>
<polygon fill="#E4E4E4" points="901.79,12.806 893.248,0 886.111,0 901.79,23.506 917.469,0 910.332,0 "/>
<polygon fill="#E4E4E4" points="956.444,12.806 947.902,0 940.766,0 956.444,23.506 972.123,0 964.986,0 "/>
<polygon fill="#E4E4E4" points="1011.098,12.806 1002.557,0 995.42,0 1011.098,23.506 1026.776,0 1019.64,0 "/>
<polygon fill="#E4E4E4" points="1065.752,12.806 1057.21,0 1050.073,0 1065.752,23.506 1081.431,0 1074.294,0 "/>
<polygon fill="#E4E4E4" points="1120.406,12.806 1111.864,0 1104.728,0 1120.406,23.506 1136.084,0 1128.947,0 "/>
<polygon fill="#E4E4E4" points="1175.06,12.806 1166.518,0 1159.381,0 1175.06,23.506 1190.738,0 1183.602,0 "/>
<polygon fill="#E4E4E4" points="1229.714,12.806 1221.172,0 1214.035,0 1229.714,23.506 1245.393,0 1238.256,0 "/>
<polygon fill="#E4E4E4" points="1284.367,12.806 1275.826,0 1268.689,0 1284.367,23.506 1300.046,0 1292.909,0 "/>
<polygon fill="#E4E4E4" points="1339.021,12.806 1330.479,0 1323.343,0 1339.021,23.506 1354.7,0 1347.563,0 "/>
<polygon fill="#E4E4E4" points="27.327,94.971 0,54 0,64.7 27.327,105.671 54.654,64.7 54.654,54 "/>
<polygon fill="#E4E4E4" points="81.981,94.971 54.654,54 54.654,64.7 81.981,105.671 109.308,64.7 109.308,54 "/>
<polygon fill="#E4E4E4" points="136.635,94.971 109.308,54 109.308,64.7 136.635,105.671 163.962,64.7 163.962,54 "/>
<polygon fill="#E4E4E4" points="191.289,94.971 163.962,54 163.962,64.7 191.289,105.671 218.616,64.7 218.616,54 "/>
<polygon fill="#E4E4E4" points="245.943,94.971 218.616,54 218.616,64.7 245.943,105.671 273.27,64.7 273.27,54 "/>
<polygon fill="#E4E4E4" points="300.597,94.971 273.27,54 273.27,64.7 300.597,105.671 327.924,64.7 327.924,54 "/>
<polygon fill="#E4E4E4" points="355.25,94.971 327.924,54 327.924,64.7 355.25,105.671 382.578,64.7 382.578,54 "/>
<polygon fill="#E4E4E4" points="409.905,94.971 382.578,54 382.578,64.7 409.905,105.671 437.231,64.7 437.231,54 "/>
<polygon fill="#E4E4E4" points="464.559,94.971 437.231,54 437.231,64.7 464.559,105.671 491.886,64.7 491.886,54 "/>
<polygon fill="#E4E4E4" points="519.212,94.971 491.886,54 491.886,64.7 519.212,105.671 546.54,64.7 546.54,54 "/>
<polygon fill="#E4E4E4" points="573.866,94.971 546.54,54 546.54,64.7 573.866,105.671 601.193,64.7 601.193,54 "/>
<polygon fill="#E4E4E4" points="628.521,94.971 601.193,54 601.193,64.7 628.521,105.671 655.847,64.7 655.847,54 "/>
<polygon fill="#E4E4E4" points="683.174,94.971 655.847,54 655.847,64.7 683.174,105.671 710.501,64.7 710.501,54 "/>
<polygon fill="#E4E4E4" points="737.828,94.971 710.501,54 710.501,64.7 737.828,105.671 765.155,64.7 765.155,54 "/>
<polygon fill="#E4E4E4" points="792.482,94.971 765.155,54 765.155,64.7 792.482,105.671 819.81,64.7 819.81,54 "/>
<polygon fill="#E4E4E4" points="847.136,94.971 819.81,54 819.81,64.7 847.136,105.671 874.463,64.7 874.463,54 "/>
<polygon fill="#E4E4E4" points="901.79,94.971 874.463,54 874.463,64.7 901.79,105.671 929.117,64.7 929.117,54 "/>
<polygon fill="#E4E4E4" points="956.444,94.971 929.117,54 929.117,64.7 956.444,105.671 983.771,64.7 983.771,54 "/>
<polygon fill="#E4E4E4" points="1011.098,94.971 983.771,54 983.771,64.7 1011.098,105.671 1038.425,64.7 1038.425,54 "/>
<polygon fill="#E4E4E4" points="1065.752,94.971 1038.425,54 1038.425,64.7 1065.752,105.671 1093.079,64.7 1093.079,54 "/>
<polygon fill="#E4E4E4" points="1120.406,94.971 1093.079,54 1093.079,64.7 1120.406,105.671 1147.732,64.7 1147.732,54 "/>
<polygon fill="#E4E4E4" points="1175.06,94.971 1147.732,54 1147.732,64.7 1175.06,105.671 1202.387,64.7 1202.387,54 "/>
<polygon fill="#E4E4E4" points="1229.714,94.971 1202.387,54 1202.387,64.7 1229.714,105.671 1257.041,64.7 1257.041,54 "/>
<polygon fill="#E4E4E4" points="1284.367,94.971 1257.041,54 1257.041,64.7 1284.367,105.671 1311.694,64.7 1311.694,54 "/>
<polygon fill="#E4E4E4" points="1339.021,94.971 1311.694,54 1311.694,64.7 1339.021,105.671 1366.349,64.7 1366.349,54 "/>
<polygon fill="#E4E4E4" points="27.327,66.806 0,25.835 0,36.536 27.327,77.506 54.654,36.536 54.654,25.835 "/>
<polygon fill="#E4E4E4" points="81.981,66.806 54.654,25.835 54.654,36.536 81.981,77.506 109.308,36.536 109.308,25.835 "/>
<polygon fill="#E4E4E4" points="136.635,66.806 109.308,25.835 109.308,36.536 136.635,77.506 163.962,36.536 163.962,25.835 "/>
<polygon fill="#E4E4E4" points="191.289,66.806 163.962,25.835 163.962,36.536 191.289,77.506 218.616,36.536 218.616,25.835 "/>
<polygon fill="#E4E4E4" points="245.943,66.806 218.616,25.835 218.616,36.536 245.943,77.506 273.27,36.536 273.27,25.835 "/>
<polygon fill="#E4E4E4" points="300.597,66.806 273.27,25.835 273.27,36.536 300.597,77.506 327.924,36.536 327.924,25.835 "/>
<polygon fill="#E4E4E4" points="355.25,66.806 327.924,25.835 327.924,36.536 355.25,77.506 382.578,36.536 382.578,25.835 "/>
<polygon fill="#E4E4E4" points="409.905,66.806 382.578,25.835 382.578,36.536 409.905,77.506 437.231,36.536 437.231,25.835 "/>
<polygon fill="#E4E4E4" points="464.559,66.806 437.231,25.835 437.231,36.536 464.559,77.506 491.886,36.536 491.886,25.835 "/>
<polygon fill="#E4E4E4" points="519.212,66.806 491.886,25.835 491.886,36.536 519.212,77.506 546.54,36.536 546.54,25.835 "/>
<polygon fill="#E4E4E4" points="573.866,66.806 546.54,25.835 546.54,36.536 573.866,77.506 601.193,36.536 601.193,25.835 "/>
<polygon fill="#E4E4E4" points="628.521,66.806 601.193,25.835 601.193,36.536 628.521,77.506 655.847,36.536 655.847,25.835 "/>
<polygon fill="#E4E4E4" points="683.174,66.806 655.847,25.835 655.847,36.536 683.174,77.506 710.501,36.536 710.501,25.835 "/>
<polygon fill="#E4E4E4" points="737.828,66.806 710.501,25.835 710.501,36.536 737.828,77.506 765.155,36.536 765.155,25.835 "/>
<polygon fill="#E4E4E4" points="792.482,66.806 765.155,25.835 765.155,36.536 792.482,77.506 819.81,36.536 819.81,25.835 "/>
<polygon fill="#E4E4E4" points="847.136,66.806 819.81,25.835 819.81,36.536 847.136,77.506 874.463,36.536 874.463,25.835 "/>
<polygon fill="#E4E4E4" points="901.79,66.806 874.463,25.835 874.463,36.536 901.79,77.506 929.117,36.536 929.117,25.835 "/>
<polygon fill="#E4E4E4" points="956.444,66.806 929.117,25.835 929.117,36.536 956.444,77.506 983.771,36.536 983.771,25.835 "/>
<polygon fill="#E4E4E4" points="1011.098,66.806 983.771,25.835 983.771,36.536 1011.098,77.506 1038.425,36.536 1038.425,25.835 
	"/>
<polygon fill="#E4E4E4" points="1065.752,66.806 1038.425,25.835 1038.425,36.536 1065.752,77.506 1093.079,36.536 1093.079,25.835 
	"/>
<polygon fill="#E4E4E4" points="1120.406,66.806 1093.079,25.835 1093.079,36.536 1120.406,77.506 1147.732,36.536 1147.732,25.835 
	"/>
<polygon fill="#E4E4E4" points="1175.06,66.806 1147.732,25.835 1147.732,36.536 1175.06,77.506 1202.387,36.536 1202.387,25.835 
	"/>
<polygon fill="#E4E4E4" points="1229.714,66.806 1202.387,25.835 1202.387,36.536 1229.714,77.506 1257.041,36.536 1257.041,25.835 
	"/>
<polygon fill="#E4E4E4" points="1284.367,66.806 1257.041,25.835 1257.041,36.536 1284.367,77.506 1311.694,36.536 1311.694,25.835 
	"/>
<polygon fill="#E4E4E4" points="1339.021,66.806 1311.694,25.835 1311.694,36.536 1339.021,77.506 1366.349,36.536 1366.349,25.835 
	"/>
<polygon fill="#E4E4E4" points="27.327,148.971 0,108 0,118.7 27.327,159.671 54.654,118.7 54.654,108 "/>
<polygon fill="#E4E4E4" points="81.981,148.971 54.654,108 54.654,118.7 81.981,159.671 109.308,118.7 109.308,108 "/>
<polygon fill="#E4E4E4" points="136.635,148.971 109.308,108 109.308,118.7 136.635,159.671 163.962,118.7 163.962,108 "/>
<polygon fill="#E4E4E4" points="191.289,148.971 163.962,108 163.962,118.7 191.289,159.671 218.616,118.7 218.616,108 "/>
<polygon fill="#E4E4E4" points="245.943,148.971 218.616,108 218.616,118.7 245.943,159.671 273.27,118.7 273.27,108 "/>
<polygon fill="#E4E4E4" points="300.597,148.971 273.27,108 273.27,118.7 300.597,159.671 327.924,118.7 327.924,108 "/>
<polygon fill="#E4E4E4" points="355.25,148.971 327.924,108 327.924,118.7 355.25,159.671 382.578,118.7 382.578,108 "/>
<polygon fill="#E4E4E4" points="409.905,148.971 382.578,108 382.578,118.7 409.905,159.671 437.231,118.7 437.231,108 "/>
<polygon fill="#E4E4E4" points="464.559,148.971 437.231,108 437.231,118.7 464.559,159.671 491.886,118.7 491.886,108 "/>
<polygon fill="#E4E4E4" points="519.212,148.971 491.886,108 491.886,118.7 519.212,159.671 546.54,118.7 546.54,108 "/>
<polygon fill="#E4E4E4" points="573.866,148.971 546.54,108 546.54,118.7 573.866,159.671 601.193,118.7 601.193,108 "/>
<polygon fill="#E4E4E4" points="628.521,148.971 601.193,108 601.193,118.7 628.521,159.671 655.847,118.7 655.847,108 "/>
<polygon fill="#E4E4E4" points="683.174,148.971 655.847,108 655.847,118.7 683.174,159.671 710.501,118.7 710.501,108 "/>
<polygon fill="#E4E4E4" points="737.828,148.971 710.501,108 710.501,118.7 737.828,159.671 765.155,118.7 765.155,108 "/>
<polygon fill="#E4E4E4" points="792.482,148.971 765.155,108 765.155,118.7 792.482,159.671 819.81,118.7 819.81,108 "/>
<polygon fill="#E4E4E4" points="847.136,148.971 819.81,108 819.81,118.7 847.136,159.671 874.463,118.7 874.463,108 "/>
<polygon fill="#E4E4E4" points="901.79,148.971 874.463,108 874.463,118.7 901.79,159.671 929.117,118.7 929.117,108 "/>
<polygon fill="#E4E4E4" points="956.444,148.971 929.117,108 929.117,118.7 956.444,159.671 983.771,118.7 983.771,108 "/>
<polygon fill="#E4E4E4" points="1011.098,148.971 983.771,108 983.771,118.7 1011.098,159.671 1038.425,118.7 1038.425,108 "/>
<polygon fill="#E4E4E4" points="1065.752,148.971 1038.425,108 1038.425,118.7 1065.752,159.671 1093.079,118.7 1093.079,108 "/>
<polygon fill="#E4E4E4" points="1120.406,148.971 1093.079,108 1093.079,118.7 1120.406,159.671 1147.732,118.7 1147.732,108 "/>
<polygon fill="#E4E4E4" points="1175.06,148.971 1147.732,108 1147.732,118.7 1175.06,159.671 1202.387,118.7 1202.387,108 "/>
<polygon fill="#E4E4E4" points="1229.714,148.971 1202.387,108 1202.387,118.7 1229.714,159.671 1257.041,118.7 1257.041,108 "/>
<polygon fill="#E4E4E4" points="1284.367,148.971 1257.041,108 1257.041,118.7 1284.367,159.671 1311.694,118.7 1311.694,108 "/>
<polygon fill="#E4E4E4" points="1339.021,148.971 1311.694,108 1311.694,118.7 1339.021,159.671 1366.349,118.7 1366.349,108 "/>
<polygon fill="#E4E4E4" points="27.327,120.806 0,79.835 0,90.536 27.327,131.506 54.654,90.536 54.654,79.835 "/>
<polygon fill="#E4E4E4" points="81.981,120.806 54.654,79.835 54.654,90.536 81.981,131.506 109.308,90.536 109.308,79.835 "/>
<polygon fill="#E4E4E4" points="136.635,120.806 109.308,79.835 109.308,90.536 136.635,131.506 163.962,90.536 163.962,79.835 "/>
<polygon fill="#E4E4E4" points="191.289,120.806 163.962,79.835 163.962,90.536 191.289,131.506 218.616,90.536 218.616,79.835 "/>
<polygon fill="#E4E4E4" points="245.943,120.806 218.616,79.835 218.616,90.536 245.943,131.506 273.27,90.536 273.27,79.835 "/>
<polygon fill="#E4E4E4" points="300.597,120.806 273.27,79.835 273.27,90.536 300.597,131.506 327.924,90.536 327.924,79.835 "/>
<polygon fill="#E4E4E4" points="355.25,120.806 327.924,79.835 327.924,90.536 355.25,131.506 382.578,90.536 382.578,79.835 "/>
<polygon fill="#E4E4E4" points="409.905,120.806 382.578,79.835 382.578,90.536 409.905,131.506 437.231,90.536 437.231,79.835 "/>
<polygon fill="#E4E4E4" points="464.559,120.806 437.231,79.835 437.231,90.536 464.559,131.506 491.886,90.536 491.886,79.835 "/>
<polygon fill="#E4E4E4" points="519.212,120.806 491.886,79.835 491.886,90.536 519.212,131.506 546.54,90.536 546.54,79.835 "/>
<polygon fill="#E4E4E4" points="573.866,120.806 546.54,79.835 546.54,90.536 573.866,131.506 601.193,90.536 601.193,79.835 "/>
<polygon fill="#E4E4E4" points="628.521,120.806 601.193,79.835 601.193,90.536 628.521,131.506 655.847,90.536 655.847,79.835 "/>
<polygon fill="#E4E4E4" points="683.174,120.806 655.847,79.835 655.847,90.536 683.174,131.506 710.501,90.536 710.501,79.835 "/>
<polygon fill="#E4E4E4" points="737.828,120.806 710.501,79.835 710.501,90.536 737.828,131.506 765.155,90.536 765.155,79.835 "/>
<polygon fill="#E4E4E4" points="792.482,120.806 765.155,79.835 765.155,90.536 792.482,131.506 819.81,90.536 819.81,79.835 "/>
<polygon fill="#E4E4E4" points="847.136,120.806 819.81,79.835 819.81,90.536 847.136,131.506 874.463,90.536 874.463,79.835 "/>
<polygon fill="#E4E4E4" points="901.79,120.806 874.463,79.835 874.463,90.536 901.79,131.506 929.117,90.536 929.117,79.835 "/>
<polygon fill="#E4E4E4" points="956.444,120.806 929.117,79.835 929.117,90.536 956.444,131.506 983.771,90.536 983.771,79.835 "/>
<polygon fill="#E4E4E4" points="1011.098,120.806 983.771,79.835 983.771,90.536 1011.098,131.506 1038.425,90.536 1038.425,79.835 
	"/>
<polygon fill="#E4E4E4" points="1065.752,120.806 1038.425,79.835 1038.425,90.536 1065.752,131.506 1093.079,90.536 
	1093.079,79.835 "/>
<polygon fill="#E4E4E4" points="1120.406,120.806 1093.079,79.835 1093.079,90.536 1120.406,131.506 1147.732,90.536 
	1147.732,79.835 "/>
<polygon fill="#E4E4E4" points="1175.06,120.806 1147.732,79.835 1147.732,90.536 1175.06,131.506 1202.387,90.536 1202.387,79.835 
	"/>
<polygon fill="#E4E4E4" points="1229.714,120.806 1202.387,79.835 1202.387,90.536 1229.714,131.506 1257.041,90.536 
	1257.041,79.835 "/>
<polygon fill="#E4E4E4" points="1284.367,120.806 1257.041,79.835 1257.041,90.536 1284.367,131.506 1311.694,90.536 
	1311.694,79.835 "/>
<polygon fill="#E4E4E4" points="1339.021,120.806 1311.694,79.835 1311.694,90.536 1339.021,131.506 1366.349,90.536 
	1366.349,79.835 "/>
<polygon fill="#E4E4E4" points="27.153,202.971 -0.174,162 -0.174,172.7 27.153,213.671 54.479,172.7 54.479,162 "/>
<polygon fill="#E4E4E4" points="81.807,202.971 54.479,162 54.479,172.7 81.807,213.671 109.134,172.7 109.134,162 "/>
<polygon fill="#E4E4E4" points="136.46,202.971 109.134,162 109.134,172.7 136.46,213.671 163.788,172.7 163.788,162 "/>
<polygon fill="#E4E4E4" points="191.114,202.971 163.788,162 163.788,172.7 191.114,213.671 218.441,172.7 218.441,162 "/>
<polygon fill="#E4E4E4" points="245.769,202.971 218.441,162 218.441,172.7 245.769,213.671 273.095,172.7 273.095,162 "/>
<polygon fill="#E4E4E4" points="300.422,202.971 273.095,162 273.095,172.7 300.422,213.671 327.75,172.7 327.75,162 "/>
<polygon fill="#E4E4E4" points="355.076,202.971 327.75,162 327.75,172.7 355.076,213.671 382.403,172.7 382.403,162 "/>
<polygon fill="#E4E4E4" points="409.73,202.971 382.403,162 382.403,172.7 409.73,213.671 437.057,172.7 437.057,162 "/>
<polygon fill="#E4E4E4" points="464.384,202.971 437.057,162 437.057,172.7 464.384,213.671 491.711,172.7 491.711,162 "/>
<polygon fill="#E4E4E4" points="519.038,202.971 491.711,162 491.711,172.7 519.038,213.671 546.365,172.7 546.365,162 "/>
<polygon fill="#E4E4E4" points="573.692,202.971 546.365,162 546.365,172.7 573.692,213.671 601.019,172.7 601.019,162 "/>
<polygon fill="#E4E4E4" points="628.346,202.971 601.019,162 601.019,172.7 628.346,213.671 655.673,172.7 655.673,162 "/>
<polygon fill="#E4E4E4" points="683,202.971 655.673,162 655.673,172.7 683,213.671 710.326,172.7 710.326,162 "/>
<polygon fill="#E4E4E4" points="737.654,202.971 710.326,162 710.326,172.7 737.654,213.671 764.98,172.7 764.98,162 "/>
<polygon fill="#E4E4E4" points="792.309,202.971 764.98,162 764.98,172.7 792.309,213.671 819.635,172.7 819.635,162 "/>
<polygon fill="#E4E4E4" points="846.961,202.971 819.635,162 819.635,172.7 846.961,213.671 874.289,172.7 874.289,162 "/>
<polygon fill="#E4E4E4" points="901.615,202.971 874.289,162 874.289,172.7 901.615,213.671 928.943,172.7 928.943,162 "/>
<polygon fill="#E4E4E4" points="956.27,202.971 928.943,162 928.943,172.7 956.27,213.671 983.598,172.7 983.598,162 "/>
<polygon fill="#E4E4E4" points="1010.924,202.971 983.598,162 983.598,172.7 1010.924,213.671 1038.25,172.7 1038.25,162 "/>
<polygon fill="#E4E4E4" points="1065.578,202.971 1038.25,162 1038.25,172.7 1065.578,213.671 1092.904,172.7 1092.904,162 "/>
<polygon fill="#E4E4E4" points="1120.232,202.971 1092.904,162 1092.904,172.7 1120.232,213.671 1147.559,172.7 1147.559,162 "/>
<polygon fill="#E4E4E4" points="1174.885,202.971 1147.559,162 1147.559,172.7 1174.885,213.671 1202.213,172.7 1202.213,162 "/>
<polygon fill="#E4E4E4" points="1229.539,202.971 1202.213,162 1202.213,172.7 1229.539,213.671 1256.867,172.7 1256.867,162 "/>
<polygon fill="#E4E4E4" points="1284.193,202.971 1256.867,162 1256.867,172.7 1284.193,213.671 1311.52,172.7 1311.52,162 "/>
<polygon fill="#E4E4E4" points="1338.848,202.971 1311.52,162 1311.52,172.7 1338.848,213.671 1366.174,172.7 1366.174,162 "/>
<polygon fill="#E4E4E4" points="27.153,174.806 -0.174,133.835 -0.174,144.536 27.153,185.506 54.479,144.536 54.479,133.835 "/>
<polygon fill="#E4E4E4" points="81.807,174.806 54.479,133.835 54.479,144.536 81.807,185.506 109.134,144.536 109.134,133.835 "/>
<polygon fill="#E4E4E4" points="136.46,174.806 109.134,133.835 109.134,144.536 136.46,185.506 163.788,144.536 163.788,133.835 
	"/>
<polygon fill="#E4E4E4" points="191.114,174.806 163.788,133.835 163.788,144.536 191.114,185.506 218.441,144.536 218.441,133.835 
	"/>
<polygon fill="#E4E4E4" points="245.769,174.806 218.441,133.835 218.441,144.536 245.769,185.506 273.095,144.536 273.095,133.835 
	"/>
<polygon fill="#E4E4E4" points="300.422,174.806 273.095,133.835 273.095,144.536 300.422,185.506 327.75,144.536 327.75,133.835 
	"/>
<polygon fill="#E4E4E4" points="355.076,174.806 327.75,133.835 327.75,144.536 355.076,185.506 382.403,144.536 382.403,133.835 
	"/>
<polygon fill="#E4E4E4" points="409.73,174.806 382.403,133.835 382.403,144.536 409.73,185.506 437.057,144.536 437.057,133.835 
	"/>
<polygon fill="#E4E4E4" points="464.384,174.806 437.057,133.835 437.057,144.536 464.384,185.506 491.711,144.536 491.711,133.835 
	"/>
<polygon fill="#E4E4E4" points="519.038,174.806 491.711,133.835 491.711,144.536 519.038,185.506 546.365,144.536 546.365,133.835 
	"/>
<polygon fill="#E4E4E4" points="573.692,174.806 546.365,133.835 546.365,144.536 573.692,185.506 601.019,144.536 601.019,133.835 
	"/>
<polygon fill="#E4E4E4" points="628.346,174.806 601.019,133.835 601.019,144.536 628.346,185.506 655.673,144.536 655.673,133.835 
	"/>
<polygon fill="#E4E4E4" points="683,174.806 655.673,133.835 655.673,144.536 683,185.506 710.326,144.536 710.326,133.835 "/>
<polygon fill="#E4E4E4" points="737.654,174.806 710.326,133.835 710.326,144.536 737.654,185.506 764.98,144.536 764.98,133.835 
	"/>
<polygon fill="#E4E4E4" points="792.309,174.806 764.98,133.835 764.98,144.536 792.309,185.506 819.635,144.536 819.635,133.835 
	"/>
<polygon fill="#E4E4E4" points="846.961,174.806 819.635,133.835 819.635,144.536 846.961,185.506 874.289,144.536 874.289,133.835 
	"/>
<polygon fill="#E4E4E4" points="901.615,174.806 874.289,133.835 874.289,144.536 901.615,185.506 928.943,144.536 928.943,133.835 
	"/>
<polygon fill="#E4E4E4" points="956.27,174.806 928.943,133.835 928.943,144.536 956.27,185.506 983.598,144.536 983.598,133.835 
	"/>
<polygon fill="#E4E4E4" points="1010.924,174.806 983.598,133.835 983.598,144.536 1010.924,185.506 1038.25,144.536 
	1038.25,133.835 "/>
<polygon fill="#E4E4E4" points="1065.578,174.806 1038.25,133.835 1038.25,144.536 1065.578,185.506 1092.904,144.536 
	1092.904,133.835 "/>
<polygon fill="#E4E4E4" points="1120.232,174.806 1092.904,133.835 1092.904,144.536 1120.232,185.506 1147.559,144.536 
	1147.559,133.835 "/>
<polygon fill="#E4E4E4" points="1174.885,174.806 1147.559,133.835 1147.559,144.536 1174.885,185.506 1202.213,144.536 
	1202.213,133.835 "/>
<polygon fill="#E4E4E4" points="1229.539,174.806 1202.213,133.835 1202.213,144.536 1229.539,185.506 1256.867,144.536 
	1256.867,133.835 "/>
<polygon fill="#E4E4E4" points="1284.193,174.806 1256.867,133.835 1256.867,144.536 1284.193,185.506 1311.52,144.536 
	1311.52,133.835 "/>
<polygon fill="#E4E4E4" points="1338.848,174.806 1311.52,133.835 1311.52,144.536 1338.848,185.506 1366.174,144.536 
	1366.174,133.835 "/>
<polygon fill="#E4E4E4" points="27.153,256.971 -0.174,216 -0.174,226.7 27.153,267.671 54.479,226.7 54.479,216 "/>
<polygon fill="#E4E4E4" points="81.807,256.971 54.479,216 54.479,226.7 81.807,267.671 109.134,226.7 109.134,216 "/>
<polygon fill="#E4E4E4" points="136.46,256.971 109.134,216 109.134,226.7 136.46,267.671 163.788,226.7 163.788,216 "/>
<polygon fill="#E4E4E4" points="191.114,256.971 163.788,216 163.788,226.7 191.114,267.671 218.441,226.7 218.441,216 "/>
<polygon fill="#E4E4E4" points="245.769,256.971 218.441,216 218.441,226.7 245.769,267.671 273.095,226.7 273.095,216 "/>
<polygon fill="#E4E4E4" points="300.422,256.971 273.095,216 273.095,226.7 300.422,267.671 327.75,226.7 327.75,216 "/>
<polygon fill="#E4E4E4" points="355.076,256.971 327.75,216 327.75,226.7 355.076,267.671 382.403,226.7 382.403,216 "/>
<polygon fill="#E4E4E4" points="409.73,256.971 382.403,216 382.403,226.7 409.73,267.671 437.057,226.7 437.057,216 "/>
<polygon fill="#E4E4E4" points="464.384,256.971 437.057,216 437.057,226.7 464.384,267.671 491.711,226.7 491.711,216 "/>
<polygon fill="#E4E4E4" points="519.038,256.971 491.711,216 491.711,226.7 519.038,267.671 546.365,226.7 546.365,216 "/>
<polygon fill="#E4E4E4" points="573.692,256.971 546.365,216 546.365,226.7 573.692,267.671 601.019,226.7 601.019,216 "/>
<polygon fill="#E4E4E4" points="628.346,256.971 601.019,216 601.019,226.7 628.346,267.671 655.673,226.7 655.673,216 "/>
<polygon fill="#E4E4E4" points="683,256.971 655.673,216 655.673,226.7 683,267.671 710.326,226.7 710.326,216 "/>
<polygon fill="#E4E4E4" points="737.654,256.971 710.326,216 710.326,226.7 737.654,267.671 764.98,226.7 764.98,216 "/>
<polygon fill="#E4E4E4" points="792.309,256.971 764.98,216 764.98,226.7 792.309,267.671 819.635,226.7 819.635,216 "/>
<polygon fill="#E4E4E4" points="846.961,256.971 819.635,216 819.635,226.7 846.961,267.671 874.289,226.7 874.289,216 "/>
<polygon fill="#E4E4E4" points="901.615,256.971 874.289,216 874.289,226.7 901.615,267.671 928.943,226.7 928.943,216 "/>
<polygon fill="#E4E4E4" points="956.27,256.971 928.943,216 928.943,226.7 956.27,267.671 983.598,226.7 983.598,216 "/>
<polygon fill="#E4E4E4" points="1010.924,256.971 983.598,216 983.598,226.7 1010.924,267.671 1038.25,226.7 1038.25,216 "/>
<polygon fill="#E4E4E4" points="1065.578,256.971 1038.25,216 1038.25,226.7 1065.578,267.671 1092.904,226.7 1092.904,216 "/>
<polygon fill="#E4E4E4" points="1120.232,256.971 1092.904,216 1092.904,226.7 1120.232,267.671 1147.559,226.7 1147.559,216 "/>
<polygon fill="#E4E4E4" points="1174.885,256.971 1147.559,216 1147.559,226.7 1174.885,267.671 1202.213,226.7 1202.213,216 "/>
<polygon fill="#E4E4E4" points="1229.539,256.971 1202.213,216 1202.213,226.7 1229.539,267.671 1256.867,226.7 1256.867,216 "/>
<polygon fill="#E4E4E4" points="1284.193,256.971 1256.867,216 1256.867,226.7 1284.193,267.671 1311.52,226.7 1311.52,216 "/>
<polygon fill="#E4E4E4" points="1338.848,256.971 1311.52,216 1311.52,226.7 1338.848,267.671 1366.174,226.7 1366.174,216 "/>
<polygon fill="#E4E4E4" points="27.153,228.806 -0.174,187.835 -0.174,198.536 27.153,239.506 54.479,198.536 54.479,187.835 "/>
<polygon fill="#E4E4E4" points="81.807,228.806 54.479,187.835 54.479,198.536 81.807,239.506 109.134,198.536 109.134,187.835 "/>
<polygon fill="#E4E4E4" points="136.46,228.806 109.134,187.835 109.134,198.536 136.46,239.506 163.788,198.536 163.788,187.835 
	"/>
<polygon fill="#E4E4E4" points="191.114,228.806 163.788,187.835 163.788,198.536 191.114,239.506 218.441,198.536 218.441,187.835 
	"/>
<polygon fill="#E4E4E4" points="245.769,228.806 218.441,187.835 218.441,198.536 245.769,239.506 273.095,198.536 273.095,187.835 
	"/>
<polygon fill="#E4E4E4" points="300.422,228.806 273.095,187.835 273.095,198.536 300.422,239.506 327.75,198.536 327.75,187.835 
	"/>
<polygon fill="#E4E4E4" points="355.076,228.806 327.75,187.835 327.75,198.536 355.076,239.506 382.403,198.536 382.403,187.835 
	"/>
<polygon fill="#E4E4E4" points="409.73,228.806 382.403,187.835 382.403,198.536 409.73,239.506 437.057,198.536 437.057,187.835 
	"/>
<polygon fill="#E4E4E4" points="464.384,228.806 437.057,187.835 437.057,198.536 464.384,239.506 491.711,198.536 491.711,187.835 
	"/>
<polygon fill="#E4E4E4" points="519.038,228.806 491.711,187.835 491.711,198.536 519.038,239.506 546.365,198.536 546.365,187.835 
	"/>
<polygon fill="#E4E4E4" points="573.692,228.806 546.365,187.835 546.365,198.536 573.692,239.506 601.019,198.536 601.019,187.835 
	"/>
<polygon fill="#E4E4E4" points="628.346,228.806 601.019,187.835 601.019,198.536 628.346,239.506 655.673,198.536 655.673,187.835 
	"/>
<polygon fill="#E4E4E4" points="683,228.806 655.673,187.835 655.673,198.536 683,239.506 710.326,198.536 710.326,187.835 "/>
<polygon fill="#E4E4E4" points="737.654,228.806 710.326,187.835 710.326,198.536 737.654,239.506 764.98,198.536 764.98,187.835 
	"/>
<polygon fill="#E4E4E4" points="792.309,228.806 764.98,187.835 764.98,198.536 792.309,239.506 819.635,198.536 819.635,187.835 
	"/>
<polygon fill="#E4E4E4" points="846.961,228.806 819.635,187.835 819.635,198.536 846.961,239.506 874.289,198.536 874.289,187.835 
	"/>
<polygon fill="#E4E4E4" points="901.615,228.806 874.289,187.835 874.289,198.536 901.615,239.506 928.943,198.536 928.943,187.835 
	"/>
<polygon fill="#E4E4E4" points="956.27,228.806 928.943,187.835 928.943,198.536 956.27,239.506 983.598,198.536 983.598,187.835 
	"/>
<polygon fill="#E4E4E4" points="1010.924,228.806 983.598,187.835 983.598,198.536 1010.924,239.506 1038.25,198.536 
	1038.25,187.835 "/>
<polygon fill="#E4E4E4" points="1065.578,228.806 1038.25,187.835 1038.25,198.536 1065.578,239.506 1092.904,198.536 
	1092.904,187.835 "/>
<polygon fill="#E4E4E4" points="1120.232,228.806 1092.904,187.835 1092.904,198.536 1120.232,239.506 1147.559,198.536 
	1147.559,187.835 "/>
<polygon fill="#E4E4E4" points="1174.885,228.806 1147.559,187.835 1147.559,198.536 1174.885,239.506 1202.213,198.536 
	1202.213,187.835 "/>
<polygon fill="#E4E4E4" points="1229.539,228.806 1202.213,187.835 1202.213,198.536 1229.539,239.506 1256.867,198.536 
	1256.867,187.835 "/>
<polygon fill="#E4E4E4" points="1284.193,228.806 1256.867,187.835 1256.867,198.536 1284.193,239.506 1311.52,198.536 
	1311.52,187.835 "/>
<polygon fill="#E4E4E4" points="1338.848,228.806 1311.52,187.835 1311.52,198.536 1338.848,239.506 1366.174,198.536 
	1366.174,187.835 "/>
<polygon fill="#E4E4E4" points="27.153,310.971 -0.174,270 -0.174,280.7 27.153,321.671 54.479,280.7 54.479,270 "/>
<polygon fill="#E4E4E4" points="81.807,310.971 54.479,270 54.479,280.7 81.807,321.671 109.134,280.7 109.134,270 "/>
<polygon fill="#E4E4E4" points="136.46,310.971 109.134,270 109.134,280.7 136.46,321.671 163.788,280.7 163.788,270 "/>
<polygon fill="#E4E4E4" points="191.114,310.971 163.788,270 163.788,280.7 191.114,321.671 218.441,280.7 218.441,270 "/>
<polygon fill="#E4E4E4" points="245.769,310.971 218.441,270 218.441,280.7 245.769,321.671 273.095,280.7 273.095,270 "/>
<polygon fill="#E4E4E4" points="300.422,310.971 273.095,270 273.095,280.7 300.422,321.671 327.75,280.7 327.75,270 "/>
<polygon fill="#E4E4E4" points="355.076,310.971 327.75,270 327.75,280.7 355.076,321.671 382.403,280.7 382.403,270 "/>
<polygon fill="#E4E4E4" points="409.73,310.971 382.403,270 382.403,280.7 409.73,321.671 437.057,280.7 437.057,270 "/>
<polygon fill="#E4E4E4" points="464.384,310.971 437.057,270 437.057,280.7 464.384,321.671 491.711,280.7 491.711,270 "/>
<polygon fill="#E4E4E4" points="519.038,310.971 491.711,270 491.711,280.7 519.038,321.671 546.365,280.7 546.365,270 "/>
<polygon fill="#E4E4E4" points="573.692,310.971 546.365,270 546.365,280.7 573.692,321.671 601.019,280.7 601.019,270 "/>
<polygon fill="#E4E4E4" points="628.346,310.971 601.019,270 601.019,280.7 628.346,321.671 655.673,280.7 655.673,270 "/>
<polygon fill="#E4E4E4" points="683,310.971 655.673,270 655.673,280.7 683,321.671 710.326,280.7 710.326,270 "/>
<polygon fill="#E4E4E4" points="737.654,310.971 710.326,270 710.326,280.7 737.654,321.671 764.98,280.7 764.98,270 "/>
<polygon fill="#E4E4E4" points="792.309,310.971 764.98,270 764.98,280.7 792.309,321.671 819.635,280.7 819.635,270 "/>
<polygon fill="#E4E4E4" points="846.961,310.971 819.635,270 819.635,280.7 846.961,321.671 874.289,280.7 874.289,270 "/>
<polygon fill="#E4E4E4" points="901.615,310.971 874.289,270 874.289,280.7 901.615,321.671 928.943,280.7 928.943,270 "/>
<polygon fill="#E4E4E4" points="956.27,310.971 928.943,270 928.943,280.7 956.27,321.671 983.598,280.7 983.598,270 "/>
<polygon fill="#E4E4E4" points="1010.924,310.971 983.598,270 983.598,280.7 1010.924,321.671 1038.25,280.7 1038.25,270 "/>
<polygon fill="#E4E4E4" points="1065.578,310.971 1038.25,270 1038.25,280.7 1065.578,321.671 1092.904,280.7 1092.904,270 "/>
<polygon fill="#E4E4E4" points="1120.232,310.971 1092.904,270 1092.904,280.7 1120.232,321.671 1147.559,280.7 1147.559,270 "/>
<polygon fill="#E4E4E4" points="1174.885,310.971 1147.559,270 1147.559,280.7 1174.885,321.671 1202.213,280.7 1202.213,270 "/>
<polygon fill="#E4E4E4" points="1229.539,310.971 1202.213,270 1202.213,280.7 1229.539,321.671 1256.867,280.7 1256.867,270 "/>
<polygon fill="#E4E4E4" points="1284.193,310.971 1256.867,270 1256.867,280.7 1284.193,321.671 1311.52,280.7 1311.52,270 "/>
<polygon fill="#E4E4E4" points="1338.848,310.971 1311.52,270 1311.52,280.7 1338.848,321.671 1366.174,280.7 1366.174,270 "/>
<polygon fill="#E4E4E4" points="27.153,282.806 -0.174,241.835 -0.174,252.536 27.153,293.506 54.479,252.536 54.479,241.835 "/>
<polygon fill="#E4E4E4" points="81.807,282.806 54.479,241.835 54.479,252.536 81.807,293.506 109.134,252.536 109.134,241.835 "/>
<polygon fill="#E4E4E4" points="136.46,282.806 109.134,241.835 109.134,252.536 136.46,293.506 163.788,252.536 163.788,241.835 
	"/>
<polygon fill="#E4E4E4" points="191.114,282.806 163.788,241.835 163.788,252.536 191.114,293.506 218.441,252.536 218.441,241.835 
	"/>
<polygon fill="#E4E4E4" points="245.769,282.806 218.441,241.835 218.441,252.536 245.769,293.506 273.095,252.536 273.095,241.835 
	"/>
<polygon fill="#E4E4E4" points="300.422,282.806 273.095,241.835 273.095,252.536 300.422,293.506 327.75,252.536 327.75,241.835 
	"/>
<polygon fill="#E4E4E4" points="355.076,282.806 327.75,241.835 327.75,252.536 355.076,293.506 382.403,252.536 382.403,241.835 
	"/>
<polygon fill="#E4E4E4" points="409.73,282.806 382.403,241.835 382.403,252.536 409.73,293.506 437.057,252.536 437.057,241.835 
	"/>
<polygon fill="#E4E4E4" points="464.384,282.806 437.057,241.835 437.057,252.536 464.384,293.506 491.711,252.536 491.711,241.835 
	"/>
<polygon fill="#E4E4E4" points="519.038,282.806 491.711,241.835 491.711,252.536 519.038,293.506 546.365,252.536 546.365,241.835 
	"/>
<polygon fill="#E4E4E4" points="573.692,282.806 546.365,241.835 546.365,252.536 573.692,293.506 601.019,252.536 601.019,241.835 
	"/>
<polygon fill="#E4E4E4" points="628.346,282.806 601.019,241.835 601.019,252.536 628.346,293.506 655.673,252.536 655.673,241.835 
	"/>
<polygon fill="#E4E4E4" points="683,282.806 655.673,241.835 655.673,252.536 683,293.506 710.326,252.536 710.326,241.835 "/>
<polygon fill="#E4E4E4" points="737.654,282.806 710.326,241.835 710.326,252.536 737.654,293.506 764.98,252.536 764.98,241.835 
	"/>
<polygon fill="#E4E4E4" points="792.309,282.806 764.98,241.835 764.98,252.536 792.309,293.506 819.635,252.536 819.635,241.835 
	"/>
<polygon fill="#E4E4E4" points="846.961,282.806 819.635,241.835 819.635,252.536 846.961,293.506 874.289,252.536 874.289,241.835 
	"/>
<polygon fill="#E4E4E4" points="901.615,282.806 874.289,241.835 874.289,252.536 901.615,293.506 928.943,252.536 928.943,241.835 
	"/>
<polygon fill="#E4E4E4" points="956.27,282.806 928.943,241.835 928.943,252.536 956.27,293.506 983.598,252.536 983.598,241.835 
	"/>
<polygon fill="#E4E4E4" points="1010.924,282.806 983.598,241.835 983.598,252.536 1010.924,293.506 1038.25,252.536 
	1038.25,241.835 "/>
<polygon fill="#E4E4E4" points="1065.578,282.806 1038.25,241.835 1038.25,252.536 1065.578,293.506 1092.904,252.536 
	1092.904,241.835 "/>
<polygon fill="#E4E4E4" points="1120.232,282.806 1092.904,241.835 1092.904,252.536 1120.232,293.506 1147.559,252.536 
	1147.559,241.835 "/>
<polygon fill="#E4E4E4" points="1174.885,282.806 1147.559,241.835 1147.559,252.536 1174.885,293.506 1202.213,252.536 
	1202.213,241.835 "/>
<polygon fill="#E4E4E4" points="1229.539,282.806 1202.213,241.835 1202.213,252.536 1229.539,293.506 1256.867,252.536 
	1256.867,241.835 "/>
<polygon fill="#E4E4E4" points="1284.193,282.806 1256.867,241.835 1256.867,252.536 1284.193,293.506 1311.52,252.536 
	1311.52,241.835 "/>
<polygon fill="#E4E4E4" points="1338.848,282.806 1311.52,241.835 1311.52,252.536 1338.848,293.506 1366.174,252.536 
	1366.174,241.835 "/>
<polygon fill="#E4E4E4" points="27.327,367.126 0,326.155 0,336.855 27.327,377.826 54.654,336.855 54.654,326.155 "/>
<polygon fill="#E4E4E4" points="81.981,367.126 54.654,326.155 54.654,336.855 81.981,377.826 109.308,336.855 109.308,326.155 "/>
<polygon fill="#E4E4E4" points="136.635,367.126 109.308,326.155 109.308,336.855 136.635,377.826 163.962,336.855 163.962,326.155 
	"/>
<polygon fill="#E4E4E4" points="191.289,367.126 163.962,326.155 163.962,336.855 191.289,377.826 218.616,336.855 218.616,326.155 
	"/>
<polygon fill="#E4E4E4" points="245.943,367.126 218.616,326.155 218.616,336.855 245.943,377.826 273.27,336.855 273.27,326.155 
	"/>
<polygon fill="#E4E4E4" points="300.597,367.126 273.27,326.155 273.27,336.855 300.597,377.826 327.924,336.855 327.924,326.155 
	"/>
<polygon fill="#E4E4E4" points="355.25,367.126 327.924,326.155 327.924,336.855 355.25,377.826 382.578,336.855 382.578,326.155 
	"/>
<polygon fill="#E4E4E4" points="409.905,367.126 382.578,326.155 382.578,336.855 409.905,377.826 437.231,336.855 437.231,326.155 
	"/>
<polygon fill="#E4E4E4" points="464.559,367.126 437.231,326.155 437.231,336.855 464.559,377.826 491.886,336.855 491.886,326.155 
	"/>
<polygon fill="#E4E4E4" points="519.212,367.126 491.886,326.155 491.886,336.855 519.212,377.826 546.54,336.855 546.54,326.155 
	"/>
<polygon fill="#E4E4E4" points="573.866,367.126 546.54,326.155 546.54,336.855 573.866,377.826 601.193,336.855 601.193,326.155 
	"/>
<polygon fill="#E4E4E4" points="628.521,367.126 601.193,326.155 601.193,336.855 628.521,377.826 655.847,336.855 655.847,326.155 
	"/>
<polygon fill="#E4E4E4" points="683.174,367.126 655.847,326.155 655.847,336.855 683.174,377.826 710.5,336.855 710.5,326.155 "/>
<polygon fill="#E4E4E4" points="737.828,367.126 710.5,326.155 710.5,336.855 737.828,377.826 765.154,336.855 765.154,326.155 "/>
<polygon fill="#E4E4E4" points="792.482,367.126 765.154,326.155 765.154,336.855 792.482,377.826 819.809,336.855 819.809,326.155 
	"/>
<polygon fill="#E4E4E4" points="847.135,367.126 819.809,326.155 819.809,336.855 847.135,377.826 874.463,336.855 874.463,326.155 
	"/>
<polygon fill="#E4E4E4" points="901.789,367.126 874.463,326.155 874.463,336.855 901.789,377.826 929.117,336.855 929.117,326.155 
	"/>
<polygon fill="#E4E4E4" points="956.443,367.126 929.117,326.155 929.117,336.855 956.443,377.826 983.771,336.855 983.771,326.155 
	"/>
<polygon fill="#E4E4E4" points="1011.098,367.126 983.771,326.155 983.771,336.855 1011.098,377.826 1038.424,336.855 
	1038.424,326.155 "/>
<polygon fill="#E4E4E4" points="1065.752,367.126 1038.424,326.155 1038.424,336.855 1065.752,377.826 1093.078,336.855 
	1093.078,326.155 "/>
<polygon fill="#E4E4E4" points="1120.406,367.126 1093.078,326.155 1093.078,336.855 1120.406,377.826 1147.732,336.855 
	1147.732,326.155 "/>
<polygon fill="#E4E4E4" points="1175.059,367.126 1147.732,326.155 1147.732,336.855 1175.059,377.826 1202.387,336.855 
	1202.387,326.155 "/>
<polygon fill="#E4E4E4" points="1229.713,367.126 1202.387,326.155 1202.387,336.855 1229.713,377.826 1257.041,336.855 
	1257.041,326.155 "/>
<polygon fill="#E4E4E4" points="1284.367,367.126 1257.041,326.155 1257.041,336.855 1284.367,377.826 1311.693,336.855 
	1311.693,326.155 "/>
<polygon fill="#E4E4E4" points="1339.021,367.126 1311.693,326.155 1311.693,336.855 1339.021,377.826 1366.348,336.855 
	1366.348,326.155 "/>
<polygon fill="#E4E4E4" points="27.327,338.961 0,297.991 0,308.691 27.327,349.662 54.654,308.691 54.654,297.991 "/>
<polygon fill="#E4E4E4" points="81.981,338.961 54.654,297.991 54.654,308.691 81.981,349.662 109.308,308.691 109.308,297.991 "/>
<polygon fill="#E4E4E4" points="136.635,338.961 109.308,297.991 109.308,308.691 136.635,349.662 163.962,308.691 163.962,297.991 
	"/>
<polygon fill="#E4E4E4" points="191.289,338.961 163.962,297.991 163.962,308.691 191.289,349.662 218.616,308.691 218.616,297.991 
	"/>
<polygon fill="#E4E4E4" points="245.943,338.961 218.616,297.991 218.616,308.691 245.943,349.662 273.27,308.691 273.27,297.991 
	"/>
<polygon fill="#E4E4E4" points="300.597,338.961 273.27,297.991 273.27,308.691 300.597,349.662 327.924,308.691 327.924,297.991 
	"/>
<polygon fill="#E4E4E4" points="355.25,338.961 327.924,297.991 327.924,308.691 355.25,349.662 382.578,308.691 382.578,297.991 
	"/>
<polygon fill="#E4E4E4" points="409.905,338.961 382.578,297.991 382.578,308.691 409.905,349.662 437.231,308.691 437.231,297.991 
	"/>
<polygon fill="#E4E4E4" points="464.559,338.961 437.231,297.991 437.231,308.691 464.559,349.662 491.886,308.691 491.886,297.991 
	"/>
<polygon fill="#E4E4E4" points="519.212,338.961 491.886,297.991 491.886,308.691 519.212,349.662 546.54,308.691 546.54,297.991 
	"/>
<polygon fill="#E4E4E4" points="573.866,338.961 546.54,297.991 546.54,308.691 573.866,349.662 601.193,308.691 601.193,297.991 
	"/>
<polygon fill="#E4E4E4" points="628.521,338.961 601.193,297.991 601.193,308.691 628.521,349.662 655.847,308.691 655.847,297.991 
	"/>
<polygon fill="#E4E4E4" points="683.174,338.961 655.847,297.991 655.847,308.691 683.174,349.662 710.5,308.691 710.5,297.991 "/>
<polygon fill="#E4E4E4" points="737.828,338.961 710.5,297.991 710.5,308.691 737.828,349.662 765.154,308.691 765.154,297.991 "/>
<polygon fill="#E4E4E4" points="792.482,338.961 765.154,297.991 765.154,308.691 792.482,349.662 819.809,308.691 819.809,297.991 
	"/>
<polygon fill="#E4E4E4" points="847.135,338.961 819.809,297.991 819.809,308.691 847.135,349.662 874.463,308.691 874.463,297.991 
	"/>
<polygon fill="#E4E4E4" points="901.789,338.961 874.463,297.991 874.463,308.691 901.789,349.662 929.117,308.691 929.117,297.991 
	"/>
<polygon fill="#E4E4E4" points="956.443,338.961 929.117,297.991 929.117,308.691 956.443,349.662 983.771,308.691 983.771,297.991 
	"/>
<polygon fill="#E4E4E4" points="1011.098,338.961 983.771,297.991 983.771,308.691 1011.098,349.662 1038.424,308.691 
	1038.424,297.991 "/>
<polygon fill="#E4E4E4" points="1065.752,338.961 1038.424,297.991 1038.424,308.691 1065.752,349.662 1093.078,308.691 
	1093.078,297.991 "/>
<polygon fill="#E4E4E4" points="1120.406,338.961 1093.078,297.991 1093.078,308.691 1120.406,349.662 1147.732,308.691 
	1147.732,297.991 "/>
<polygon fill="#E4E4E4" points="1175.059,338.961 1147.732,297.991 1147.732,308.691 1175.059,349.662 1202.387,308.691 
	1202.387,297.991 "/>
<polygon fill="#E4E4E4" points="1229.713,338.961 1202.387,297.991 1202.387,308.691 1229.713,349.662 1257.041,308.691 
	1257.041,297.991 "/>
<polygon fill="#E4E4E4" points="1284.367,338.961 1257.041,297.991 1257.041,308.691 1284.367,349.662 1311.693,308.691 
	1311.693,297.991 "/>
<polygon fill="#E4E4E4" points="1339.021,338.961 1311.693,297.991 1311.693,308.691 1339.021,349.662 1366.348,308.691 
	1366.348,297.991 "/>
<polygon fill="#E4E4E4" points="27.327,421.126 0,380.155 0,390.855 27.327,431.826 54.654,390.855 54.654,380.155 "/>
<polygon fill="#E4E4E4" points="81.981,421.126 54.654,380.155 54.654,390.855 81.981,431.826 109.308,390.855 109.308,380.155 "/>
<polygon fill="#E4E4E4" points="136.635,421.126 109.308,380.155 109.308,390.855 136.635,431.826 163.962,390.855 163.962,380.155 
	"/>
<polygon fill="#E4E4E4" points="191.289,421.126 163.962,380.155 163.962,390.855 191.289,431.826 218.616,390.855 218.616,380.155 
	"/>
<polygon fill="#E4E4E4" points="245.943,421.126 218.616,380.155 218.616,390.855 245.943,431.826 273.27,390.855 273.27,380.155 
	"/>
<polygon fill="#E4E4E4" points="300.597,421.126 273.27,380.155 273.27,390.855 300.597,431.826 327.924,390.855 327.924,380.155 
	"/>
<polygon fill="#E4E4E4" points="355.25,421.126 327.924,380.155 327.924,390.855 355.25,431.826 382.578,390.855 382.578,380.155 
	"/>
<polygon fill="#E4E4E4" points="409.905,421.126 382.578,380.155 382.578,390.855 409.905,431.826 437.231,390.855 437.231,380.155 
	"/>
<polygon fill="#E4E4E4" points="464.559,421.126 437.231,380.155 437.231,390.855 464.559,431.826 491.886,390.855 491.886,380.155 
	"/>
<polygon fill="#E4E4E4" points="519.212,421.126 491.886,380.155 491.886,390.855 519.212,431.826 546.54,390.855 546.54,380.155 
	"/>
<polygon fill="#E4E4E4" points="573.866,421.126 546.54,380.155 546.54,390.855 573.866,431.826 601.193,390.855 601.193,380.155 
	"/>
<polygon fill="#E4E4E4" points="628.521,421.126 601.193,380.155 601.193,390.855 628.521,431.826 655.847,390.855 655.847,380.155 
	"/>
<polygon fill="#E4E4E4" points="683.174,421.126 655.847,380.155 655.847,390.855 683.174,431.826 710.5,390.855 710.5,380.155 "/>
<polygon fill="#E4E4E4" points="737.828,421.126 710.5,380.155 710.5,390.855 737.828,431.826 765.154,390.855 765.154,380.155 "/>
<polygon fill="#E4E4E4" points="792.482,421.126 765.154,380.155 765.154,390.855 792.482,431.826 819.809,390.855 819.809,380.155 
	"/>
<polygon fill="#E4E4E4" points="847.135,421.126 819.809,380.155 819.809,390.855 847.135,431.826 874.463,390.855 874.463,380.155 
	"/>
<polygon fill="#E4E4E4" points="901.789,421.126 874.463,380.155 874.463,390.855 901.789,431.826 929.117,390.855 929.117,380.155 
	"/>
<polygon fill="#E4E4E4" points="956.443,421.126 929.117,380.155 929.117,390.855 956.443,431.826 983.771,390.855 983.771,380.155 
	"/>
<polygon fill="#E4E4E4" points="1011.098,421.126 983.771,380.155 983.771,390.855 1011.098,431.826 1038.424,390.855 
	1038.424,380.155 "/>
<polygon fill="#E4E4E4" points="1065.752,421.126 1038.424,380.155 1038.424,390.855 1065.752,431.826 1093.078,390.855 
	1093.078,380.155 "/>
<polygon fill="#E4E4E4" points="1120.406,421.126 1093.078,380.155 1093.078,390.855 1120.406,431.826 1147.732,390.855 
	1147.732,380.155 "/>
<polygon fill="#E4E4E4" points="1175.059,421.126 1147.732,380.155 1147.732,390.855 1175.059,431.826 1202.387,390.855 
	1202.387,380.155 "/>
<polygon fill="#E4E4E4" points="1229.713,421.126 1202.387,380.155 1202.387,390.855 1229.713,431.826 1257.041,390.855 
	1257.041,380.155 "/>
<polygon fill="#E4E4E4" points="1284.367,421.126 1257.041,380.155 1257.041,390.855 1284.367,431.826 1311.693,390.855 
	1311.693,380.155 "/>
<polygon fill="#E4E4E4" points="1339.021,421.126 1311.693,380.155 1311.693,390.855 1339.021,431.826 1366.348,390.855 
	1366.348,380.155 "/>
<polygon fill="#E4E4E4" points="27.327,392.961 0,351.991 0,362.691 27.327,403.662 54.654,362.691 54.654,351.991 "/>
<polygon fill="#E4E4E4" points="81.981,392.961 54.654,351.991 54.654,362.691 81.981,403.662 109.308,362.691 109.308,351.991 "/>
<polygon fill="#E4E4E4" points="136.635,392.961 109.308,351.991 109.308,362.691 136.635,403.662 163.962,362.691 163.962,351.991 
	"/>
<polygon fill="#E4E4E4" points="191.289,392.961 163.962,351.991 163.962,362.691 191.289,403.662 218.616,362.691 218.616,351.991 
	"/>
<polygon fill="#E4E4E4" points="245.943,392.961 218.616,351.991 218.616,362.691 245.943,403.662 273.27,362.691 273.27,351.991 
	"/>
<polygon fill="#E4E4E4" points="300.597,392.961 273.27,351.991 273.27,362.691 300.597,403.662 327.924,362.691 327.924,351.991 
	"/>
<polygon fill="#E4E4E4" points="355.25,392.961 327.924,351.991 327.924,362.691 355.25,403.662 382.578,362.691 382.578,351.991 
	"/>
<polygon fill="#E4E4E4" points="409.905,392.961 382.578,351.991 382.578,362.691 409.905,403.662 437.231,362.691 437.231,351.991 
	"/>
<polygon fill="#E4E4E4" points="464.559,392.961 437.231,351.991 437.231,362.691 464.559,403.662 491.886,362.691 491.886,351.991 
	"/>
<polygon fill="#E4E4E4" points="519.212,392.961 491.886,351.991 491.886,362.691 519.212,403.662 546.54,362.691 546.54,351.991 
	"/>
<polygon fill="#E4E4E4" points="573.866,392.961 546.54,351.991 546.54,362.691 573.866,403.662 601.193,362.691 601.193,351.991 
	"/>
<polygon fill="#E4E4E4" points="628.521,392.961 601.193,351.991 601.193,362.691 628.521,403.662 655.847,362.691 655.847,351.991 
	"/>
<polygon fill="#E4E4E4" points="683.174,392.961 655.847,351.991 655.847,362.691 683.174,403.662 710.5,362.691 710.5,351.991 "/>
<polygon fill="#E4E4E4" points="737.828,392.961 710.5,351.991 710.5,362.691 737.828,403.662 765.154,362.691 765.154,351.991 "/>
<polygon fill="#E4E4E4" points="792.482,392.961 765.154,351.991 765.154,362.691 792.482,403.662 819.809,362.691 819.809,351.991 
	"/>
<polygon fill="#E4E4E4" points="847.135,392.961 819.809,351.991 819.809,362.691 847.135,403.662 874.463,362.691 874.463,351.991 
	"/>
<polygon fill="#E4E4E4" points="901.789,392.961 874.463,351.991 874.463,362.691 901.789,403.662 929.117,362.691 929.117,351.991 
	"/>
<polygon fill="#E4E4E4" points="956.443,392.961 929.117,351.991 929.117,362.691 956.443,403.662 983.771,362.691 983.771,351.991 
	"/>
<polygon fill="#E4E4E4" points="1011.098,392.961 983.771,351.991 983.771,362.691 1011.098,403.662 1038.424,362.691 
	1038.424,351.991 "/>
<polygon fill="#E4E4E4" points="1065.752,392.961 1038.424,351.991 1038.424,362.691 1065.752,403.662 1093.078,362.691 
	1093.078,351.991 "/>
<polygon fill="#E4E4E4" points="1120.406,392.961 1093.078,351.991 1093.078,362.691 1120.406,403.662 1147.732,362.691 
	1147.732,351.991 "/>
<polygon fill="#E4E4E4" points="1175.059,392.961 1147.732,351.991 1147.732,362.691 1175.059,403.662 1202.387,362.691 
	1202.387,351.991 "/>
<polygon fill="#E4E4E4" points="1229.713,392.961 1202.387,351.991 1202.387,362.691 1229.713,403.662 1257.041,362.691 
	1257.041,351.991 "/>
<polygon fill="#E4E4E4" points="1284.367,392.961 1257.041,351.991 1257.041,362.691 1284.367,403.662 1311.693,362.691 
	1311.693,351.991 "/>
<polygon fill="#E4E4E4" points="1339.021,392.961 1311.693,351.991 1311.693,362.691 1339.021,403.662 1366.348,362.691 
	1366.348,351.991 "/>
<polygon fill="#E4E4E4" points="27.327,475.126 0,434.155 0,444.855 27.327,485.826 54.654,444.855 54.654,434.155 "/>
<polygon fill="#E4E4E4" points="81.981,475.126 54.654,434.155 54.654,444.855 81.981,485.826 109.308,444.855 109.308,434.155 "/>
<polygon fill="#E4E4E4" points="136.635,475.126 109.308,434.155 109.308,444.855 136.635,485.826 163.962,444.855 163.962,434.155 
	"/>
<polygon fill="#E4E4E4" points="191.289,475.126 163.962,434.155 163.962,444.855 191.289,485.826 218.616,444.855 218.616,434.155 
	"/>
<polygon fill="#E4E4E4" points="245.943,475.126 218.616,434.155 218.616,444.855 245.943,485.826 273.27,444.855 273.27,434.155 
	"/>
<polygon fill="#E4E4E4" points="300.597,475.126 273.27,434.155 273.27,444.855 300.597,485.826 327.924,444.855 327.924,434.155 
	"/>
<polygon fill="#E4E4E4" points="355.25,475.126 327.924,434.155 327.924,444.855 355.25,485.826 382.578,444.855 382.578,434.155 
	"/>
<polygon fill="#E4E4E4" points="409.905,475.126 382.578,434.155 382.578,444.855 409.905,485.826 437.231,444.855 437.231,434.155 
	"/>
<polygon fill="#E4E4E4" points="464.559,475.126 437.231,434.155 437.231,444.855 464.559,485.826 491.886,444.855 491.886,434.155 
	"/>
<polygon fill="#E4E4E4" points="519.212,475.126 491.886,434.155 491.886,444.855 519.212,485.826 546.54,444.855 546.54,434.155 
	"/>
<polygon fill="#E4E4E4" points="573.866,475.126 546.54,434.155 546.54,444.855 573.866,485.826 601.193,444.855 601.193,434.155 
	"/>
<polygon fill="#E4E4E4" points="628.521,475.126 601.193,434.155 601.193,444.855 628.521,485.826 655.847,444.855 655.847,434.155 
	"/>
<polygon fill="#E4E4E4" points="683.174,475.126 655.847,434.155 655.847,444.855 683.174,485.826 710.5,444.855 710.5,434.155 "/>
<polygon fill="#E4E4E4" points="737.828,475.126 710.5,434.155 710.5,444.855 737.828,485.826 765.154,444.855 765.154,434.155 "/>
<polygon fill="#E4E4E4" points="792.482,475.126 765.154,434.155 765.154,444.855 792.482,485.826 819.809,444.855 819.809,434.155 
	"/>
<polygon fill="#E4E4E4" points="847.135,475.126 819.809,434.155 819.809,444.855 847.135,485.826 874.463,444.855 874.463,434.155 
	"/>
<polygon fill="#E4E4E4" points="901.789,475.126 874.463,434.155 874.463,444.855 901.789,485.826 929.117,444.855 929.117,434.155 
	"/>
<polygon fill="#E4E4E4" points="956.443,475.126 929.117,434.155 929.117,444.855 956.443,485.826 983.771,444.855 983.771,434.155 
	"/>
<polygon fill="#E4E4E4" points="1011.098,475.126 983.771,434.155 983.771,444.855 1011.098,485.826 1038.424,444.855 
	1038.424,434.155 "/>
<polygon fill="#E4E4E4" points="1065.752,475.126 1038.424,434.155 1038.424,444.855 1065.752,485.826 1093.078,444.855 
	1093.078,434.155 "/>
<polygon fill="#E4E4E4" points="1120.406,475.126 1093.078,434.155 1093.078,444.855 1120.406,485.826 1147.732,444.855 
	1147.732,434.155 "/>
<polygon fill="#E4E4E4" points="1175.059,475.126 1147.732,434.155 1147.732,444.855 1175.059,485.826 1202.387,444.855 
	1202.387,434.155 "/>
<polygon fill="#E4E4E4" points="1229.713,475.126 1202.387,434.155 1202.387,444.855 1229.713,485.826 1257.041,444.855 
	1257.041,434.155 "/>
<polygon fill="#E4E4E4" points="1284.367,475.126 1257.041,434.155 1257.041,444.855 1284.367,485.826 1311.693,444.855 
	1311.693,434.155 "/>
<polygon fill="#E4E4E4" points="1339.021,475.126 1311.693,434.155 1311.693,444.855 1339.021,485.826 1366.348,444.855 
	1366.348,434.155 "/>
<polygon fill="#E4E4E4" points="27.327,446.961 0,405.99 0,416.691 27.327,457.662 54.654,416.691 54.654,405.99 "/>
<polygon fill="#E4E4E4" points="81.981,446.961 54.654,405.99 54.654,416.691 81.981,457.662 109.308,416.691 109.308,405.99 "/>
<polygon fill="#E4E4E4" points="136.635,446.961 109.308,405.99 109.308,416.691 136.635,457.662 163.962,416.691 163.962,405.99 
	"/>
<polygon fill="#E4E4E4" points="191.289,446.961 163.962,405.99 163.962,416.691 191.289,457.662 218.616,416.691 218.616,405.99 
	"/>
<polygon fill="#E4E4E4" points="245.943,446.961 218.616,405.99 218.616,416.691 245.943,457.662 273.27,416.691 273.27,405.99 "/>
<polygon fill="#E4E4E4" points="300.597,446.961 273.27,405.99 273.27,416.691 300.597,457.662 327.924,416.691 327.924,405.99 "/>
<polygon fill="#E4E4E4" points="355.25,446.961 327.924,405.99 327.924,416.691 355.25,457.662 382.578,416.691 382.578,405.99 "/>
<polygon fill="#E4E4E4" points="409.905,446.961 382.578,405.99 382.578,416.691 409.905,457.662 437.231,416.691 437.231,405.99 
	"/>
<polygon fill="#E4E4E4" points="464.559,446.961 437.231,405.99 437.231,416.691 464.559,457.662 491.886,416.691 491.886,405.99 
	"/>
<polygon fill="#E4E4E4" points="519.212,446.961 491.886,405.99 491.886,416.691 519.212,457.662 546.54,416.691 546.54,405.99 "/>
<polygon fill="#E4E4E4" points="573.866,446.961 546.54,405.99 546.54,416.691 573.866,457.662 601.193,416.691 601.193,405.99 "/>
<polygon fill="#E4E4E4" points="628.521,446.961 601.193,405.99 601.193,416.691 628.521,457.662 655.847,416.691 655.847,405.99 
	"/>
<polygon fill="#E4E4E4" points="683.174,446.961 655.847,405.99 655.847,416.691 683.174,457.662 710.5,416.691 710.5,405.99 "/>
<polygon fill="#E4E4E4" points="737.828,446.961 710.5,405.99 710.5,416.691 737.828,457.662 765.154,416.691 765.154,405.99 "/>
<polygon fill="#E4E4E4" points="792.482,446.961 765.154,405.99 765.154,416.691 792.482,457.662 819.809,416.691 819.809,405.99 
	"/>
<polygon fill="#E4E4E4" points="847.135,446.961 819.809,405.99 819.809,416.691 847.135,457.662 874.463,416.691 874.463,405.99 
	"/>
<polygon fill="#E4E4E4" points="901.789,446.961 874.463,405.99 874.463,416.691 901.789,457.662 929.117,416.691 929.117,405.99 
	"/>
<polygon fill="#E4E4E4" points="956.443,446.961 929.117,405.99 929.117,416.691 956.443,457.662 983.771,416.691 983.771,405.99 
	"/>
<polygon fill="#E4E4E4" points="1011.098,446.961 983.771,405.99 983.771,416.691 1011.098,457.662 1038.424,416.691 
	1038.424,405.99 "/>
<polygon fill="#E4E4E4" points="1065.752,446.961 1038.424,405.99 1038.424,416.691 1065.752,457.662 1093.078,416.691 
	1093.078,405.99 "/>
<polygon fill="#E4E4E4" points="1120.406,446.961 1093.078,405.99 1093.078,416.691 1120.406,457.662 1147.732,416.691 
	1147.732,405.99 "/>
<polygon fill="#E4E4E4" points="1175.059,446.961 1147.732,405.99 1147.732,416.691 1175.059,457.662 1202.387,416.691 
	1202.387,405.99 "/>
<polygon fill="#E4E4E4" points="1229.713,446.961 1202.387,405.99 1202.387,416.691 1229.713,457.662 1257.041,416.691 
	1257.041,405.99 "/>
<polygon fill="#E4E4E4" points="1284.367,446.961 1257.041,405.99 1257.041,416.691 1284.367,457.662 1311.693,416.691 
	1311.693,405.99 "/>
<polygon fill="#E4E4E4" points="1339.021,446.961 1311.693,405.99 1311.693,416.691 1339.021,457.662 1366.348,416.691 
	1366.348,405.99 "/>
<polygon fill="#E4E4E4" points="27.327,529.126 0,488.155 0,498.855 27.327,539.826 54.654,498.855 54.654,488.155 "/>
<polygon fill="#E4E4E4" points="81.981,529.126 54.654,488.155 54.654,498.855 81.981,539.826 109.308,498.855 109.308,488.155 "/>
<polygon fill="#E4E4E4" points="136.635,529.126 109.308,488.155 109.308,498.855 136.635,539.826 163.962,498.855 163.962,488.155 
	"/>
<polygon fill="#E4E4E4" points="191.289,529.126 163.962,488.155 163.962,498.855 191.289,539.826 218.616,498.855 218.616,488.155 
	"/>
<polygon fill="#E4E4E4" points="245.943,529.126 218.616,488.155 218.616,498.855 245.943,539.826 273.27,498.855 273.27,488.155 
	"/>
<polygon fill="#E4E4E4" points="300.597,529.126 273.27,488.155 273.27,498.855 300.597,539.826 327.924,498.855 327.924,488.155 
	"/>
<polygon fill="#E4E4E4" points="355.25,529.126 327.924,488.155 327.924,498.855 355.25,539.826 382.578,498.855 382.578,488.155 
	"/>
<polygon fill="#E4E4E4" points="409.905,529.126 382.578,488.155 382.578,498.855 409.905,539.826 437.231,498.855 437.231,488.155 
	"/>
<polygon fill="#E4E4E4" points="464.559,529.126 437.231,488.155 437.231,498.855 464.559,539.826 491.886,498.855 491.886,488.155 
	"/>
<polygon fill="#E4E4E4" points="519.212,529.126 491.886,488.155 491.886,498.855 519.212,539.826 546.54,498.855 546.54,488.155 
	"/>
<polygon fill="#E4E4E4" points="573.866,529.126 546.54,488.155 546.54,498.855 573.866,539.826 601.193,498.855 601.193,488.155 
	"/>
<polygon fill="#E4E4E4" points="628.521,529.126 601.193,488.155 601.193,498.855 628.521,539.826 655.847,498.855 655.847,488.155 
	"/>
<polygon fill="#E4E4E4" points="683.174,529.126 655.847,488.155 655.847,498.855 683.174,539.826 710.5,498.855 710.5,488.155 "/>
<polygon fill="#E4E4E4" points="737.828,529.126 710.5,488.155 710.5,498.855 737.828,539.826 765.154,498.855 765.154,488.155 "/>
<polygon fill="#E4E4E4" points="792.482,529.126 765.154,488.155 765.154,498.855 792.482,539.826 819.809,498.855 819.809,488.155 
	"/>
<polygon fill="#E4E4E4" points="847.135,529.126 819.809,488.155 819.809,498.855 847.135,539.826 874.463,498.855 874.463,488.155 
	"/>
<polygon fill="#E4E4E4" points="901.789,529.126 874.463,488.155 874.463,498.855 901.789,539.826 929.117,498.855 929.117,488.155 
	"/>
<polygon fill="#E4E4E4" points="956.443,529.126 929.117,488.155 929.117,498.855 956.443,539.826 983.771,498.855 983.771,488.155 
	"/>
<polygon fill="#E4E4E4" points="1011.098,529.126 983.771,488.155 983.771,498.855 1011.098,539.826 1038.424,498.855 
	1038.424,488.155 "/>
<polygon fill="#E4E4E4" points="1065.752,529.126 1038.424,488.155 1038.424,498.855 1065.752,539.826 1093.078,498.855 
	1093.078,488.155 "/>
<polygon fill="#E4E4E4" points="1120.406,529.126 1093.078,488.155 1093.078,498.855 1120.406,539.826 1147.732,498.855 
	1147.732,488.155 "/>
<polygon fill="#E4E4E4" points="1175.059,529.126 1147.732,488.155 1147.732,498.855 1175.059,539.826 1202.387,498.855 
	1202.387,488.155 "/>
<polygon fill="#E4E4E4" points="1229.713,529.126 1202.387,488.155 1202.387,498.855 1229.713,539.826 1257.041,498.855 
	1257.041,488.155 "/>
<polygon fill="#E4E4E4" points="1284.367,529.126 1257.041,488.155 1257.041,498.855 1284.367,539.826 1311.693,498.855 
	1311.693,488.155 "/>
<polygon fill="#E4E4E4" points="1339.021,529.126 1311.693,488.155 1311.693,498.855 1339.021,539.826 1366.348,498.855 
	1366.348,488.155 "/>
<polygon fill="#E4E4E4" points="27.327,500.961 0,459.99 0,470.691 27.327,511.662 54.654,470.691 54.654,459.99 "/>
<polygon fill="#E4E4E4" points="81.981,500.961 54.654,459.99 54.654,470.691 81.981,511.662 109.308,470.691 109.308,459.99 "/>
<polygon fill="#E4E4E4" points="136.635,500.961 109.308,459.99 109.308,470.691 136.635,511.662 163.962,470.691 163.962,459.99 
	"/>
<polygon fill="#E4E4E4" points="191.289,500.961 163.962,459.99 163.962,470.691 191.289,511.662 218.616,470.691 218.616,459.99 
	"/>
<polygon fill="#E4E4E4" points="245.943,500.961 218.616,459.99 218.616,470.691 245.943,511.662 273.27,470.691 273.27,459.99 "/>
<polygon fill="#E4E4E4" points="300.597,500.961 273.27,459.99 273.27,470.691 300.597,511.662 327.924,470.691 327.924,459.99 "/>
<polygon fill="#E4E4E4" points="355.25,500.961 327.924,459.99 327.924,470.691 355.25,511.662 382.578,470.691 382.578,459.99 "/>
<polygon fill="#E4E4E4" points="409.905,500.961 382.578,459.99 382.578,470.691 409.905,511.662 437.231,470.691 437.231,459.99 
	"/>
<polygon fill="#E4E4E4" points="464.559,500.961 437.231,459.99 437.231,470.691 464.559,511.662 491.886,470.691 491.886,459.99 
	"/>
<polygon fill="#E4E4E4" points="519.212,500.961 491.886,459.99 491.886,470.691 519.212,511.662 546.54,470.691 546.54,459.99 "/>
<polygon fill="#E4E4E4" points="573.866,500.961 546.54,459.99 546.54,470.691 573.866,511.662 601.193,470.691 601.193,459.99 "/>
<polygon fill="#E4E4E4" points="628.521,500.961 601.193,459.99 601.193,470.691 628.521,511.662 655.847,470.691 655.847,459.99 
	"/>
<polygon fill="#E4E4E4" points="683.174,500.961 655.847,459.99 655.847,470.691 683.174,511.662 710.5,470.691 710.5,459.99 "/>
<polygon fill="#E4E4E4" points="737.828,500.961 710.5,459.99 710.5,470.691 737.828,511.662 765.154,470.691 765.154,459.99 "/>
<polygon fill="#E4E4E4" points="792.482,500.961 765.154,459.99 765.154,470.691 792.482,511.662 819.809,470.691 819.809,459.99 
	"/>
<polygon fill="#E4E4E4" points="847.135,500.961 819.809,459.99 819.809,470.691 847.135,511.662 874.463,470.691 874.463,459.99 
	"/>
<polygon fill="#E4E4E4" points="901.789,500.961 874.463,459.99 874.463,470.691 901.789,511.662 929.117,470.691 929.117,459.99 
	"/>
<polygon fill="#E4E4E4" points="956.443,500.961 929.117,459.99 929.117,470.691 956.443,511.662 983.771,470.691 983.771,459.99 
	"/>
<polygon fill="#E4E4E4" points="1011.098,500.961 983.771,459.99 983.771,470.691 1011.098,511.662 1038.424,470.691 
	1038.424,459.99 "/>
<polygon fill="#E4E4E4" points="1065.752,500.961 1038.424,459.99 1038.424,470.691 1065.752,511.662 1093.078,470.691 
	1093.078,459.99 "/>
<polygon fill="#E4E4E4" points="1120.406,500.961 1093.078,459.99 1093.078,470.691 1120.406,511.662 1147.732,470.691 
	1147.732,459.99 "/>
<polygon fill="#E4E4E4" points="1175.059,500.961 1147.732,459.99 1147.732,470.691 1175.059,511.662 1202.387,470.691 
	1202.387,459.99 "/>
<polygon fill="#E4E4E4" points="1229.713,500.961 1202.387,459.99 1202.387,470.691 1229.713,511.662 1257.041,470.691 
	1257.041,459.99 "/>
<polygon fill="#E4E4E4" points="1284.367,500.961 1257.041,459.99 1257.041,470.691 1284.367,511.662 1311.693,470.691 
	1311.693,459.99 "/>
<polygon fill="#E4E4E4" points="1339.021,500.961 1311.693,459.99 1311.693,470.691 1339.021,511.662 1366.348,470.691 
	1366.348,459.99 "/>
<polygon fill="#E4E4E4" points="27.327,583.126 0,542.155 0,552.855 27.327,593.826 54.654,552.855 54.654,542.155 "/>
<polygon fill="#E4E4E4" points="81.981,583.126 54.654,542.155 54.654,552.855 81.981,593.826 109.308,552.855 109.308,542.155 "/>
<polygon fill="#E4E4E4" points="136.635,583.126 109.308,542.155 109.308,552.855 136.635,593.826 163.962,552.855 163.962,542.155 
	"/>
<polygon fill="#E4E4E4" points="191.289,583.126 163.962,542.155 163.962,552.855 191.289,593.826 218.616,552.855 218.616,542.155 
	"/>
<polygon fill="#E4E4E4" points="245.943,583.126 218.616,542.155 218.616,552.855 245.943,593.826 273.27,552.855 273.27,542.155 
	"/>
<polygon fill="#E4E4E4" points="300.597,583.126 273.27,542.155 273.27,552.855 300.597,593.826 327.924,552.855 327.924,542.155 
	"/>
<polygon fill="#E4E4E4" points="355.25,583.126 327.924,542.155 327.924,552.855 355.25,593.826 382.578,552.855 382.578,542.155 
	"/>
<polygon fill="#E4E4E4" points="409.905,583.126 382.578,542.155 382.578,552.855 409.905,593.826 437.231,552.855 437.231,542.155 
	"/>
<polygon fill="#E4E4E4" points="464.559,583.126 437.231,542.155 437.231,552.855 464.559,593.826 491.886,552.855 491.886,542.155 
	"/>
<polygon fill="#E4E4E4" points="519.212,583.126 491.886,542.155 491.886,552.855 519.212,593.826 546.54,552.855 546.54,542.155 
	"/>
<polygon fill="#E4E4E4" points="573.866,583.126 546.54,542.155 546.54,552.855 573.866,593.826 601.193,552.855 601.193,542.155 
	"/>
<polygon fill="#E4E4E4" points="628.521,583.126 601.193,542.155 601.193,552.855 628.521,593.826 655.847,552.855 655.847,542.155 
	"/>
<polygon fill="#E4E4E4" points="683.174,583.126 655.847,542.155 655.847,552.855 683.174,593.826 710.5,552.855 710.5,542.155 "/>
<polygon fill="#E4E4E4" points="737.828,583.126 710.5,542.155 710.5,552.855 737.828,593.826 765.154,552.855 765.154,542.155 "/>
<polygon fill="#E4E4E4" points="792.482,583.126 765.154,542.155 765.154,552.855 792.482,593.826 819.809,552.855 819.809,542.155 
	"/>
<polygon fill="#E4E4E4" points="847.135,583.126 819.809,542.155 819.809,552.855 847.135,593.826 874.463,552.855 874.463,542.155 
	"/>
<polygon fill="#E4E4E4" points="901.789,583.126 874.463,542.155 874.463,552.855 901.789,593.826 929.117,552.855 929.117,542.155 
	"/>
<polygon fill="#E4E4E4" points="956.443,583.126 929.117,542.155 929.117,552.855 956.443,593.826 983.771,552.855 983.771,542.155 
	"/>
<polygon fill="#E4E4E4" points="1011.098,583.126 983.771,542.155 983.771,552.855 1011.098,593.826 1038.424,552.855 
	1038.424,542.155 "/>
<polygon fill="#E4E4E4" points="1065.752,583.126 1038.424,542.155 1038.424,552.855 1065.752,593.826 1093.078,552.855 
	1093.078,542.155 "/>
<polygon fill="#E4E4E4" points="1120.406,583.126 1093.078,542.155 1093.078,552.855 1120.406,593.826 1147.732,552.855 
	1147.732,542.155 "/>
<polygon fill="#E4E4E4" points="1175.059,583.126 1147.732,542.155 1147.732,552.855 1175.059,593.826 1202.387,552.855 
	1202.387,542.155 "/>
<polygon fill="#E4E4E4" points="1229.713,583.126 1202.387,542.155 1202.387,552.855 1229.713,593.826 1257.041,552.855 
	1257.041,542.155 "/>
<polygon fill="#E4E4E4" points="1284.367,583.126 1257.041,542.155 1257.041,552.855 1284.367,593.826 1311.693,552.855 
	1311.693,542.155 "/>
<polygon fill="#E4E4E4" points="1339.021,583.126 1311.693,542.155 1311.693,552.855 1339.021,593.826 1366.348,552.855 
	1366.348,542.155 "/>
<polygon fill="#E4E4E4" points="27.327,554.961 0,513.99 0,524.691 27.327,565.662 54.654,524.691 54.654,513.99 "/>
<polygon fill="#E4E4E4" points="81.981,554.961 54.654,513.99 54.654,524.691 81.981,565.662 109.308,524.691 109.308,513.99 "/>
<polygon fill="#E4E4E4" points="136.635,554.961 109.308,513.99 109.308,524.691 136.635,565.662 163.962,524.691 163.962,513.99 
	"/>
<polygon fill="#E4E4E4" points="191.289,554.961 163.962,513.99 163.962,524.691 191.289,565.662 218.616,524.691 218.616,513.99 
	"/>
<polygon fill="#E4E4E4" points="245.943,554.961 218.616,513.99 218.616,524.691 245.943,565.662 273.27,524.691 273.27,513.99 "/>
<polygon fill="#E4E4E4" points="300.597,554.961 273.27,513.99 273.27,524.691 300.597,565.662 327.924,524.691 327.924,513.99 "/>
<polygon fill="#E4E4E4" points="355.25,554.961 327.924,513.99 327.924,524.691 355.25,565.662 382.578,524.691 382.578,513.99 "/>
<polygon fill="#E4E4E4" points="409.905,554.961 382.578,513.99 382.578,524.691 409.905,565.662 437.231,524.691 437.231,513.99 
	"/>
<polygon fill="#E4E4E4" points="464.559,554.961 437.231,513.99 437.231,524.691 464.559,565.662 491.886,524.691 491.886,513.99 
	"/>
<polygon fill="#E4E4E4" points="519.212,554.961 491.886,513.99 491.886,524.691 519.212,565.662 546.54,524.691 546.54,513.99 "/>
<polygon fill="#E4E4E4" points="573.866,554.961 546.54,513.99 546.54,524.691 573.866,565.662 601.193,524.691 601.193,513.99 "/>
<polygon fill="#E4E4E4" points="628.521,554.961 601.193,513.99 601.193,524.691 628.521,565.662 655.847,524.691 655.847,513.99 
	"/>
<polygon fill="#E4E4E4" points="683.174,554.961 655.847,513.99 655.847,524.691 683.174,565.662 710.5,524.691 710.5,513.99 "/>
<polygon fill="#E4E4E4" points="737.828,554.961 710.5,513.99 710.5,524.691 737.828,565.662 765.154,524.691 765.154,513.99 "/>
<polygon fill="#E4E4E4" points="792.482,554.961 765.154,513.99 765.154,524.691 792.482,565.662 819.809,524.691 819.809,513.99 
	"/>
<polygon fill="#E4E4E4" points="847.135,554.961 819.809,513.99 819.809,524.691 847.135,565.662 874.463,524.691 874.463,513.99 
	"/>
<polygon fill="#E4E4E4" points="901.789,554.961 874.463,513.99 874.463,524.691 901.789,565.662 929.117,524.691 929.117,513.99 
	"/>
<polygon fill="#E4E4E4" points="956.443,554.961 929.117,513.99 929.117,524.691 956.443,565.662 983.771,524.691 983.771,513.99 
	"/>
<polygon fill="#E4E4E4" points="1011.098,554.961 983.771,513.99 983.771,524.691 1011.098,565.662 1038.424,524.691 
	1038.424,513.99 "/>
<polygon fill="#E4E4E4" points="1065.752,554.961 1038.424,513.99 1038.424,524.691 1065.752,565.662 1093.078,524.691 
	1093.078,513.99 "/>
<polygon fill="#E4E4E4" points="1120.406,554.961 1093.078,513.99 1093.078,524.691 1120.406,565.662 1147.732,524.691 
	1147.732,513.99 "/>
<polygon fill="#E4E4E4" points="1175.059,554.961 1147.732,513.99 1147.732,524.691 1175.059,565.662 1202.387,524.691 
	1202.387,513.99 "/>
<polygon fill="#E4E4E4" points="1229.713,554.961 1202.387,513.99 1202.387,524.691 1229.713,565.662 1257.041,524.691 
	1257.041,513.99 "/>
<polygon fill="#E4E4E4" points="1284.367,554.961 1257.041,513.99 1257.041,524.691 1284.367,565.662 1311.693,524.691 
	1311.693,513.99 "/>
<polygon fill="#E4E4E4" points="1339.021,554.961 1311.693,513.99 1311.693,524.691 1339.021,565.662 1366.348,524.691 
	1366.348,513.99 "/>
<polygon fill="#E4E4E4" points="27.327,637.126 0,596.155 0,606.855 27.327,647.826 54.654,606.855 54.654,596.155 "/>
<polygon fill="#E4E4E4" points="81.981,637.126 54.654,596.155 54.654,606.855 81.981,647.826 109.308,606.855 109.308,596.155 "/>
<polygon fill="#E4E4E4" points="136.635,637.126 109.308,596.155 109.308,606.855 136.635,647.826 163.962,606.855 163.962,596.155 
	"/>
<polygon fill="#E4E4E4" points="191.289,637.126 163.962,596.155 163.962,606.855 191.289,647.826 218.616,606.855 218.616,596.155 
	"/>
<polygon fill="#E4E4E4" points="245.943,637.126 218.616,596.155 218.616,606.855 245.943,647.826 273.27,606.855 273.27,596.155 
	"/>
<polygon fill="#E4E4E4" points="300.597,637.126 273.27,596.155 273.27,606.855 300.597,647.826 327.924,606.855 327.924,596.155 
	"/>
<polygon fill="#E4E4E4" points="355.25,637.126 327.924,596.155 327.924,606.855 355.25,647.826 382.578,606.855 382.578,596.155 
	"/>
<polygon fill="#E4E4E4" points="409.905,637.126 382.578,596.155 382.578,606.855 409.905,647.826 437.231,606.855 437.231,596.155 
	"/>
<polygon fill="#E4E4E4" points="464.559,637.126 437.231,596.155 437.231,606.855 464.559,647.826 491.886,606.855 491.886,596.155 
	"/>
<polygon fill="#E4E4E4" points="519.212,637.126 491.886,596.155 491.886,606.855 519.212,647.826 546.54,606.855 546.54,596.155 
	"/>
<polygon fill="#E4E4E4" points="573.866,637.126 546.54,596.155 546.54,606.855 573.866,647.826 601.193,606.855 601.193,596.155 
	"/>
<polygon fill="#E4E4E4" points="628.521,637.126 601.193,596.155 601.193,606.855 628.521,647.826 655.847,606.855 655.847,596.155 
	"/>
<polygon fill="#E4E4E4" points="683.174,637.126 655.847,596.155 655.847,606.855 683.174,647.826 710.5,606.855 710.5,596.155 "/>
<polygon fill="#E4E4E4" points="737.828,637.126 710.5,596.155 710.5,606.855 737.828,647.826 765.154,606.855 765.154,596.155 "/>
<polygon fill="#E4E4E4" points="792.482,637.126 765.154,596.155 765.154,606.855 792.482,647.826 819.809,606.855 819.809,596.155 
	"/>
<polygon fill="#E4E4E4" points="847.135,637.126 819.809,596.155 819.809,606.855 847.135,647.826 874.463,606.855 874.463,596.155 
	"/>
<polygon fill="#E4E4E4" points="901.789,637.126 874.463,596.155 874.463,606.855 901.789,647.826 929.117,606.855 929.117,596.155 
	"/>
<polygon fill="#E4E4E4" points="956.443,637.126 929.117,596.155 929.117,606.855 956.443,647.826 983.771,606.855 983.771,596.155 
	"/>
<polygon fill="#E4E4E4" points="1011.098,637.126 983.771,596.155 983.771,606.855 1011.098,647.826 1038.424,606.855 
	1038.424,596.155 "/>
<polygon fill="#E4E4E4" points="1065.752,637.126 1038.424,596.155 1038.424,606.855 1065.752,647.826 1093.078,606.855 
	1093.078,596.155 "/>
<polygon fill="#E4E4E4" points="1120.406,637.126 1093.078,596.155 1093.078,606.855 1120.406,647.826 1147.732,606.855 
	1147.732,596.155 "/>
<polygon fill="#E4E4E4" points="1175.059,637.126 1147.732,596.155 1147.732,606.855 1175.059,647.826 1202.387,606.855 
	1202.387,596.155 "/>
<polygon fill="#E4E4E4" points="1229.713,637.126 1202.387,596.155 1202.387,606.855 1229.713,647.826 1257.041,606.855 
	1257.041,596.155 "/>
<polygon fill="#E4E4E4" points="1284.367,637.126 1257.041,596.155 1257.041,606.855 1284.367,647.826 1311.693,606.855 
	1311.693,596.155 "/>
<polygon fill="#E4E4E4" points="1339.021,637.126 1311.693,596.155 1311.693,606.855 1339.021,647.826 1366.348,606.855 
	1366.348,596.155 "/>
<polygon fill="#E4E4E4" points="27.327,608.961 0,567.99 0,578.691 27.327,619.662 54.654,578.691 54.654,567.99 "/>
<polygon fill="#E4E4E4" points="81.981,608.961 54.654,567.99 54.654,578.691 81.981,619.662 109.308,578.691 109.308,567.99 "/>
<polygon fill="#E4E4E4" points="136.635,608.961 109.308,567.99 109.308,578.691 136.635,619.662 163.962,578.691 163.962,567.99 
	"/>
<polygon fill="#E4E4E4" points="191.289,608.961 163.962,567.99 163.962,578.691 191.289,619.662 218.616,578.691 218.616,567.99 
	"/>
<polygon fill="#E4E4E4" points="245.943,608.961 218.616,567.99 218.616,578.691 245.943,619.662 273.27,578.691 273.27,567.99 "/>
<polygon fill="#E4E4E4" points="300.597,608.961 273.27,567.99 273.27,578.691 300.597,619.662 327.924,578.691 327.924,567.99 "/>
<polygon fill="#E4E4E4" points="355.25,608.961 327.924,567.99 327.924,578.691 355.25,619.662 382.578,578.691 382.578,567.99 "/>
<polygon fill="#E4E4E4" points="409.905,608.961 382.578,567.99 382.578,578.691 409.905,619.662 437.231,578.691 437.231,567.99 
	"/>
<polygon fill="#E4E4E4" points="464.559,608.961 437.231,567.99 437.231,578.691 464.559,619.662 491.886,578.691 491.886,567.99 
	"/>
<polygon fill="#E4E4E4" points="519.212,608.961 491.886,567.99 491.886,578.691 519.212,619.662 546.54,578.691 546.54,567.99 "/>
<polygon fill="#E4E4E4" points="573.866,608.961 546.54,567.99 546.54,578.691 573.866,619.662 601.193,578.691 601.193,567.99 "/>
<polygon fill="#E4E4E4" points="628.521,608.961 601.193,567.99 601.193,578.691 628.521,619.662 655.847,578.691 655.847,567.99 
	"/>
<polygon fill="#E4E4E4" points="683.174,608.961 655.847,567.99 655.847,578.691 683.174,619.662 710.5,578.691 710.5,567.99 "/>
<polygon fill="#E4E4E4" points="737.828,608.961 710.5,567.99 710.5,578.691 737.828,619.662 765.154,578.691 765.154,567.99 "/>
<polygon fill="#E4E4E4" points="792.482,608.961 765.154,567.99 765.154,578.691 792.482,619.662 819.809,578.691 819.809,567.99 
	"/>
<polygon fill="#E4E4E4" points="847.135,608.961 819.809,567.99 819.809,578.691 847.135,619.662 874.463,578.691 874.463,567.99 
	"/>
<polygon fill="#E4E4E4" points="901.789,608.961 874.463,567.99 874.463,578.691 901.789,619.662 929.117,578.691 929.117,567.99 
	"/>
<polygon fill="#E4E4E4" points="956.443,608.961 929.117,567.99 929.117,578.691 956.443,619.662 983.771,578.691 983.771,567.99 
	"/>
<polygon fill="#E4E4E4" points="1011.098,608.961 983.771,567.99 983.771,578.691 1011.098,619.662 1038.424,578.691 
	1038.424,567.99 "/>
<polygon fill="#E4E4E4" points="1065.752,608.961 1038.424,567.99 1038.424,578.691 1065.752,619.662 1093.078,578.691 
	1093.078,567.99 "/>
<polygon fill="#E4E4E4" points="1120.406,608.961 1093.078,567.99 1093.078,578.691 1120.406,619.662 1147.732,578.691 
	1147.732,567.99 "/>
<polygon fill="#E4E4E4" points="1175.059,608.961 1147.732,567.99 1147.732,578.691 1175.059,619.662 1202.387,578.691 
	1202.387,567.99 "/>
<polygon fill="#E4E4E4" points="1229.713,608.961 1202.387,567.99 1202.387,578.691 1229.713,619.662 1257.041,578.691 
	1257.041,567.99 "/>
<polygon fill="#E4E4E4" points="1284.367,608.961 1257.041,567.99 1257.041,578.691 1284.367,619.662 1311.693,578.691 
	1311.693,567.99 "/>
<polygon fill="#E4E4E4" points="1339.021,608.961 1311.693,567.99 1311.693,578.691 1339.021,619.662 1366.348,578.691 
	1366.348,567.99 "/>
<polygon fill="#E4E4E4" points="27.327,691.126 0,650.155 0,660.855 27.327,701.826 54.654,660.855 54.654,650.155 "/>
<polygon fill="#E4E4E4" points="81.981,691.126 54.654,650.155 54.654,660.855 81.981,701.826 109.308,660.855 109.308,650.155 "/>
<polygon fill="#E4E4E4" points="136.635,691.126 109.308,650.155 109.308,660.855 136.635,701.826 163.962,660.855 163.962,650.155 
	"/>
<polygon fill="#E4E4E4" points="191.289,691.126 163.962,650.155 163.962,660.855 191.289,701.826 218.616,660.855 218.616,650.155 
	"/>
<polygon fill="#E4E4E4" points="245.943,691.126 218.616,650.155 218.616,660.855 245.943,701.826 273.27,660.855 273.27,650.155 
	"/>
<polygon fill="#E4E4E4" points="300.597,691.126 273.27,650.155 273.27,660.855 300.597,701.826 327.924,660.855 327.924,650.155 
	"/>
<polygon fill="#E4E4E4" points="355.25,691.126 327.924,650.155 327.924,660.855 355.25,701.826 382.578,660.855 382.578,650.155 
	"/>
<polygon fill="#E4E4E4" points="409.905,691.126 382.578,650.155 382.578,660.855 409.905,701.826 437.231,660.855 437.231,650.155 
	"/>
<polygon fill="#E4E4E4" points="464.559,691.126 437.231,650.155 437.231,660.855 464.559,701.826 491.886,660.855 491.886,650.155 
	"/>
<polygon fill="#E4E4E4" points="519.212,691.126 491.886,650.155 491.886,660.855 519.212,701.826 546.54,660.855 546.54,650.155 
	"/>
<polygon fill="#E4E4E4" points="573.866,691.126 546.54,650.155 546.54,660.855 573.866,701.826 601.193,660.855 601.193,650.155 
	"/>
<polygon fill="#E4E4E4" points="628.521,691.126 601.193,650.155 601.193,660.855 628.521,701.826 655.847,660.855 655.847,650.155 
	"/>
<polygon fill="#E4E4E4" points="683.174,691.126 655.847,650.155 655.847,660.855 683.174,701.826 710.5,660.855 710.5,650.155 "/>
<polygon fill="#E4E4E4" points="737.828,691.126 710.5,650.155 710.5,660.855 737.828,701.826 765.154,660.855 765.154,650.155 "/>
<polygon fill="#E4E4E4" points="792.482,691.126 765.154,650.155 765.154,660.855 792.482,701.826 819.809,660.855 819.809,650.155 
	"/>
<polygon fill="#E4E4E4" points="847.135,691.126 819.809,650.155 819.809,660.855 847.135,701.826 874.463,660.855 874.463,650.155 
	"/>
<polygon fill="#E4E4E4" points="901.789,691.126 874.463,650.155 874.463,660.855 901.789,701.826 929.117,660.855 929.117,650.155 
	"/>
<polygon fill="#E4E4E4" points="956.443,691.126 929.117,650.155 929.117,660.855 956.443,701.826 983.771,660.855 983.771,650.155 
	"/>
<polygon fill="#E4E4E4" points="1011.098,691.126 983.771,650.155 983.771,660.855 1011.098,701.826 1038.424,660.855 
	1038.424,650.155 "/>
<polygon fill="#E4E4E4" points="1065.752,691.126 1038.424,650.155 1038.424,660.855 1065.752,701.826 1093.078,660.855 
	1093.078,650.155 "/>
<polygon fill="#E4E4E4" points="1120.406,691.126 1093.078,650.155 1093.078,660.855 1120.406,701.826 1147.732,660.855 
	1147.732,650.155 "/>
<polygon fill="#E4E4E4" points="1175.059,691.126 1147.732,650.155 1147.732,660.855 1175.059,701.826 1202.387,660.855 
	1202.387,650.155 "/>
<polygon fill="#E4E4E4" points="1229.713,691.126 1202.387,650.155 1202.387,660.855 1229.713,701.826 1257.041,660.855 
	1257.041,650.155 "/>
<polygon fill="#E4E4E4" points="1284.367,691.126 1257.041,650.155 1257.041,660.855 1284.367,701.826 1311.693,660.855 
	1311.693,650.155 "/>
<polygon fill="#E4E4E4" points="1339.021,691.126 1311.693,650.155 1311.693,660.855 1339.021,701.826 1366.348,660.855 
	1366.348,650.155 "/>
<polygon fill="#E4E4E4" points="27.327,662.961 0,621.99 0,632.691 27.327,673.662 54.654,632.691 54.654,621.99 "/>
<polygon fill="#E4E4E4" points="81.981,662.961 54.654,621.99 54.654,632.691 81.981,673.662 109.308,632.691 109.308,621.99 "/>
<polygon fill="#E4E4E4" points="136.635,662.961 109.308,621.99 109.308,632.691 136.635,673.662 163.962,632.691 163.962,621.99 
	"/>
<polygon fill="#E4E4E4" points="191.289,662.961 163.962,621.99 163.962,632.691 191.289,673.662 218.616,632.691 218.616,621.99 
	"/>
<polygon fill="#E4E4E4" points="245.943,662.961 218.616,621.99 218.616,632.691 245.943,673.662 273.27,632.691 273.27,621.99 "/>
<polygon fill="#E4E4E4" points="300.597,662.961 273.27,621.99 273.27,632.691 300.597,673.662 327.924,632.691 327.924,621.99 "/>
<polygon fill="#E4E4E4" points="355.25,662.961 327.924,621.99 327.924,632.691 355.25,673.662 382.578,632.691 382.578,621.99 "/>
<polygon fill="#E4E4E4" points="409.905,662.961 382.578,621.99 382.578,632.691 409.905,673.662 437.231,632.691 437.231,621.99 
	"/>
<polygon fill="#E4E4E4" points="464.559,662.961 437.231,621.99 437.231,632.691 464.559,673.662 491.886,632.691 491.886,621.99 
	"/>
<polygon fill="#E4E4E4" points="519.212,662.961 491.886,621.99 491.886,632.691 519.212,673.662 546.54,632.691 546.54,621.99 "/>
<polygon fill="#E4E4E4" points="573.866,662.961 546.54,621.99 546.54,632.691 573.866,673.662 601.193,632.691 601.193,621.99 "/>
<polygon fill="#E4E4E4" points="628.521,662.961 601.193,621.99 601.193,632.691 628.521,673.662 655.847,632.691 655.847,621.99 
	"/>
<polygon fill="#E4E4E4" points="683.174,662.961 655.847,621.99 655.847,632.691 683.174,673.662 710.5,632.691 710.5,621.99 "/>
<polygon fill="#E4E4E4" points="737.828,662.961 710.5,621.99 710.5,632.691 737.828,673.662 765.154,632.691 765.154,621.99 "/>
<polygon fill="#E4E4E4" points="792.482,662.961 765.154,621.99 765.154,632.691 792.482,673.662 819.809,632.691 819.809,621.99 
	"/>
<polygon fill="#E4E4E4" points="847.135,662.961 819.809,621.99 819.809,632.691 847.135,673.662 874.463,632.691 874.463,621.99 
	"/>
<polygon fill="#E4E4E4" points="901.789,662.961 874.463,621.99 874.463,632.691 901.789,673.662 929.117,632.691 929.117,621.99 
	"/>
<polygon fill="#E4E4E4" points="956.443,662.961 929.117,621.99 929.117,632.691 956.443,673.662 983.771,632.691 983.771,621.99 
	"/>
<polygon fill="#E4E4E4" points="1011.098,662.961 983.771,621.99 983.771,632.691 1011.098,673.662 1038.424,632.691 
	1038.424,621.99 "/>
<polygon fill="#E4E4E4" points="1065.752,662.961 1038.424,621.99 1038.424,632.691 1065.752,673.662 1093.078,632.691 
	1093.078,621.99 "/>
<polygon fill="#E4E4E4" points="1120.406,662.961 1093.078,621.99 1093.078,632.691 1120.406,673.662 1147.732,632.691 
	1147.732,621.99 "/>
<polygon fill="#E4E4E4" points="1175.059,662.961 1147.732,621.99 1147.732,632.691 1175.059,673.662 1202.387,632.691 
	1202.387,621.99 "/>
<polygon fill="#E4E4E4" points="1229.713,662.961 1202.387,621.99 1202.387,632.691 1229.713,673.662 1257.041,632.691 
	1257.041,621.99 "/>
<polygon fill="#E4E4E4" points="1284.367,662.961 1257.041,621.99 1257.041,632.691 1284.367,673.662 1311.693,632.691 
	1311.693,621.99 "/>
<polygon fill="#E4E4E4" points="1339.021,662.961 1311.693,621.99 1311.693,632.691 1339.021,673.662 1366.348,632.691 
	1366.348,621.99 "/>
<polygon fill="#E4E4E4" points="27.327,745.126 0,704.155 0,714.855 27.327,755.826 54.654,714.855 54.654,704.155 "/>
<polygon fill="#E4E4E4" points="81.981,745.126 54.654,704.155 54.654,714.855 81.981,755.826 109.308,714.855 109.308,704.155 "/>
<polygon fill="#E4E4E4" points="136.635,745.126 109.308,704.155 109.308,714.855 136.635,755.826 163.962,714.855 163.962,704.155 
	"/>
<polygon fill="#E4E4E4" points="191.289,745.126 163.962,704.155 163.962,714.855 191.289,755.826 218.616,714.855 218.616,704.155 
	"/>
<polygon fill="#E4E4E4" points="245.943,745.126 218.616,704.155 218.616,714.855 245.943,755.826 273.27,714.855 273.27,704.155 
	"/>
<polygon fill="#E4E4E4" points="300.597,745.126 273.27,704.155 273.27,714.855 300.597,755.826 327.924,714.855 327.924,704.155 
	"/>
<polygon fill="#E4E4E4" points="355.25,745.126 327.924,704.155 327.924,714.855 355.25,755.826 382.578,714.855 382.578,704.155 
	"/>
<polygon fill="#E4E4E4" points="409.905,745.126 382.578,704.155 382.578,714.855 409.905,755.826 437.231,714.855 437.231,704.155 
	"/>
<polygon fill="#E4E4E4" points="464.559,745.126 437.231,704.155 437.231,714.855 464.559,755.826 491.886,714.855 491.886,704.155 
	"/>
<polygon fill="#E4E4E4" points="519.212,745.126 491.886,704.155 491.886,714.855 519.212,755.826 546.54,714.855 546.54,704.155 
	"/>
<polygon fill="#E4E4E4" points="573.866,745.126 546.54,704.155 546.54,714.855 573.866,755.826 601.193,714.855 601.193,704.155 
	"/>
<polygon fill="#E4E4E4" points="628.521,745.126 601.193,704.155 601.193,714.855 628.521,755.826 655.847,714.855 655.847,704.155 
	"/>
<polygon fill="#E4E4E4" points="683.174,745.126 655.847,704.155 655.847,714.855 683.174,755.826 710.5,714.855 710.5,704.155 "/>
<polygon fill="#E4E4E4" points="737.828,745.126 710.5,704.155 710.5,714.855 737.828,755.826 765.154,714.855 765.154,704.155 "/>
<polygon fill="#E4E4E4" points="792.482,745.126 765.154,704.155 765.154,714.855 792.482,755.826 819.809,714.855 819.809,704.155 
	"/>
<polygon fill="#E4E4E4" points="847.135,745.126 819.809,704.155 819.809,714.855 847.135,755.826 874.463,714.855 874.463,704.155 
	"/>
<polygon fill="#E4E4E4" points="901.789,745.126 874.463,704.155 874.463,714.855 901.789,755.826 929.117,714.855 929.117,704.155 
	"/>
<polygon fill="#E4E4E4" points="956.443,745.126 929.117,704.155 929.117,714.855 956.443,755.826 983.771,714.855 983.771,704.155 
	"/>
<polygon fill="#E4E4E4" points="1011.098,745.126 983.771,704.155 983.771,714.855 1011.098,755.826 1038.424,714.855 
	1038.424,704.155 "/>
<polygon fill="#E4E4E4" points="1065.752,745.126 1038.424,704.155 1038.424,714.855 1065.752,755.826 1093.078,714.855 
	1093.078,704.155 "/>
<polygon fill="#E4E4E4" points="1120.406,745.126 1093.078,704.155 1093.078,714.855 1120.406,755.826 1147.732,714.855 
	1147.732,704.155 "/>
<polygon fill="#E4E4E4" points="1175.059,745.126 1147.732,704.155 1147.732,714.855 1175.059,755.826 1202.387,714.855 
	1202.387,704.155 "/>
<polygon fill="#E4E4E4" points="1229.713,745.126 1202.387,704.155 1202.387,714.855 1229.713,755.826 1257.041,714.855 
	1257.041,704.155 "/>
<polygon fill="#E4E4E4" points="1284.367,745.126 1257.041,704.155 1257.041,714.855 1284.367,755.826 1311.693,714.855 
	1311.693,704.155 "/>
<polygon fill="#E4E4E4" points="1339.021,745.126 1311.693,704.155 1311.693,714.855 1339.021,755.826 1366.348,714.855 
	1366.348,704.155 "/>
<polygon fill="#E4E4E4" points="27.327,716.961 0,675.99 0,686.691 27.327,727.662 54.654,686.691 54.654,675.99 "/>
<polygon fill="#E4E4E4" points="81.981,716.961 54.654,675.99 54.654,686.691 81.981,727.662 109.308,686.691 109.308,675.99 "/>
<polygon fill="#E4E4E4" points="136.635,716.961 109.308,675.99 109.308,686.691 136.635,727.662 163.962,686.691 163.962,675.99 
	"/>
<polygon fill="#E4E4E4" points="191.289,716.961 163.962,675.99 163.962,686.691 191.289,727.662 218.616,686.691 218.616,675.99 
	"/>
<polygon fill="#E4E4E4" points="245.943,716.961 218.616,675.99 218.616,686.691 245.943,727.662 273.27,686.691 273.27,675.99 "/>
<polygon fill="#E4E4E4" points="300.597,716.961 273.27,675.99 273.27,686.691 300.597,727.662 327.924,686.691 327.924,675.99 "/>
<polygon fill="#E4E4E4" points="355.25,716.961 327.924,675.99 327.924,686.691 355.25,727.662 382.578,686.691 382.578,675.99 "/>
<polygon fill="#E4E4E4" points="409.905,716.961 382.578,675.99 382.578,686.691 409.905,727.662 437.231,686.691 437.231,675.99 
	"/>
<polygon fill="#E4E4E4" points="464.559,716.961 437.231,675.99 437.231,686.691 464.559,727.662 491.886,686.691 491.886,675.99 
	"/>
<polygon fill="#E4E4E4" points="519.212,716.961 491.886,675.99 491.886,686.691 519.212,727.662 546.54,686.691 546.54,675.99 "/>
<polygon fill="#E4E4E4" points="573.866,716.961 546.54,675.99 546.54,686.691 573.866,727.662 601.193,686.691 601.193,675.99 "/>
<polygon fill="#E4E4E4" points="628.521,716.961 601.193,675.99 601.193,686.691 628.521,727.662 655.847,686.691 655.847,675.99 
	"/>
<polygon fill="#E4E4E4" points="683.174,716.961 655.847,675.99 655.847,686.691 683.174,727.662 710.5,686.691 710.5,675.99 "/>
<polygon fill="#E4E4E4" points="737.828,716.961 710.5,675.99 710.5,686.691 737.828,727.662 765.154,686.691 765.154,675.99 "/>
<polygon fill="#E4E4E4" points="792.482,716.961 765.154,675.99 765.154,686.691 792.482,727.662 819.809,686.691 819.809,675.99 
	"/>
<polygon fill="#E4E4E4" points="847.135,716.961 819.809,675.99 819.809,686.691 847.135,727.662 874.463,686.691 874.463,675.99 
	"/>
<polygon fill="#E4E4E4" points="901.789,716.961 874.463,675.99 874.463,686.691 901.789,727.662 929.117,686.691 929.117,675.99 
	"/>
<polygon fill="#E4E4E4" points="956.443,716.961 929.117,675.99 929.117,686.691 956.443,727.662 983.771,686.691 983.771,675.99 
	"/>
<polygon fill="#E4E4E4" points="1011.098,716.961 983.771,675.99 983.771,686.691 1011.098,727.662 1038.424,686.691 
	1038.424,675.99 "/>
<polygon fill="#E4E4E4" points="1065.752,716.961 1038.424,675.99 1038.424,686.691 1065.752,727.662 1093.078,686.691 
	1093.078,675.99 "/>
<polygon fill="#E4E4E4" points="1120.406,716.961 1093.078,675.99 1093.078,686.691 1120.406,727.662 1147.732,686.691 
	1147.732,675.99 "/>
<polygon fill="#E4E4E4" points="1175.059,716.961 1147.732,675.99 1147.732,686.691 1175.059,727.662 1202.387,686.691 
	1202.387,675.99 "/>
<polygon fill="#E4E4E4" points="1229.713,716.961 1202.387,675.99 1202.387,686.691 1229.713,727.662 1257.041,686.691 
	1257.041,675.99 "/>
<polygon fill="#E4E4E4" points="1284.367,716.961 1257.041,675.99 1257.041,686.691 1284.367,727.662 1311.693,686.691 
	1311.693,675.99 "/>
<polygon fill="#E4E4E4" points="1339.021,716.961 1311.693,675.99 1311.693,686.691 1339.021,727.662 1366.348,686.691 
	1366.348,675.99 "/>
<polygon fill="#E4E4E4" points="1013.072,768 1009.123,768 1011.098,770.961 "/>
<polygon fill="#E4E4E4" points="1177.033,768 1173.084,768 1175.059,770.961 "/>
<polygon fill="#E4E4E4" points="1231.688,768 1227.738,768 1229.713,770.961 "/>
<polygon fill="#E4E4E4" points="1067.727,768 1063.777,768 1065.752,770.961 "/>
<polygon fill="#E4E4E4" points="1122.381,768 1118.432,768 1120.406,770.961 "/>
<polygon fill="#E4E4E4" points="1340.996,768 1337.047,768 1339.021,770.961 "/>
<polygon fill="#E4E4E4" points="1286.342,768 1282.393,768 1284.367,770.961 "/>
<polygon fill="#E4E4E4" points="138.61,768 134.66,768 136.635,770.961 "/>
<polygon fill="#E4E4E4" points="521.188,768 517.237,768 519.212,770.961 "/>
<polygon fill="#E4E4E4" points="849.109,768 845.16,768 847.135,770.961 "/>
<polygon fill="#E4E4E4" points="466.534,768 462.583,768 464.559,770.961 "/>
<polygon fill="#E4E4E4" points="630.496,768 626.545,768 628.521,770.961 "/>
<polygon fill="#E4E4E4" points="794.457,768 790.508,768 792.482,770.961 "/>
<polygon fill="#E4E4E4" points="411.88,768 407.93,768 409.905,770.961 "/>
<polygon fill="#E4E4E4" points="685.149,768 681.199,768 683.174,770.961 "/>
<polygon fill="#E4E4E4" points="739.803,768 735.854,768 737.828,770.961 "/>
<polygon fill="#E4E4E4" points="575.841,768 571.891,768 573.866,770.961 "/>
<polygon fill="#E4E4E4" points="29.302,768 25.352,768 27.327,770.961 "/>
<polygon fill="#E4E4E4" points="357.226,768 353.275,768 355.25,770.961 "/>
<polygon fill="#E4E4E4" points="83.956,768 80.006,768 81.981,770.961 "/>
<polygon fill="#E4E4E4" points="247.918,768 243.968,768 245.943,770.961 "/>
<polygon fill="#E4E4E4" points="193.264,768 189.313,768 191.289,770.961 "/>
<polygon fill="#E4E4E4" points="302.572,768 298.622,768 300.597,770.961 "/>
<polygon fill="#E4E4E4" points="958.418,768 954.469,768 956.443,770.961 "/>
<polygon fill="#E4E4E4" points="903.764,768 899.814,768 901.789,770.961 "/>
<polygon fill="#E4E4E4" points="48.087,768 61.22,768 54.654,758.155 "/>
<polygon fill="#E4E4E4" points="0,758.155 0,768 6.566,768 "/>
<polygon fill="#E4E4E4" points="102.742,768 115.875,768 109.308,758.155 "/>
<polygon fill="#E4E4E4" points="157.396,768 170.528,768 163.962,758.155 "/>
<polygon fill="#E4E4E4" points="212.049,768 225.182,768 218.616,758.155 "/>
<polygon fill="#E4E4E4" points="266.703,768 279.836,768 273.27,758.155 "/>
<polygon fill="#E4E4E4" points="321.357,768 334.49,768 327.924,758.155 "/>
<polygon fill="#E4E4E4" points="376.011,768 389.144,768 382.578,758.155 "/>
<polygon fill="#E4E4E4" points="430.665,768 443.798,768 437.231,758.155 "/>
<polygon fill="#E4E4E4" points="485.319,768 498.452,768 491.886,758.155 "/>
<polygon fill="#E4E4E4" points="539.973,768 553.106,768 546.54,758.155 "/>
<polygon fill="#E4E4E4" points="594.627,768 607.76,768 601.193,758.155 "/>
<polygon fill="#E4E4E4" points="649.281,768 662.414,768 655.847,758.155 "/>
<polygon fill="#E4E4E4" points="703.934,768 717.066,768 710.5,758.155 "/>
<polygon fill="#E4E4E4" points="758.588,768 771.721,768 765.154,758.155 "/>
<polygon fill="#E4E4E4" points="813.242,768 826.375,768 819.809,758.155 "/>
<polygon fill="#E4E4E4" points="867.896,768 881.029,768 874.463,758.155 "/>
<polygon fill="#E4E4E4" points="922.551,768 935.684,768 929.117,758.155 "/>
<polygon fill="#E4E4E4" points="977.205,768 990.338,768 983.771,758.155 "/>
<polygon fill="#E4E4E4" points="1031.857,768 1044.99,768 1038.424,758.155 "/>
<polygon fill="#E4E4E4" points="1086.512,768 1099.645,768 1093.078,758.155 "/>
<polygon fill="#E4E4E4" points="1141.166,768 1154.299,768 1147.732,758.155 "/>
<polygon fill="#E4E4E4" points="1195.82,768 1208.953,768 1202.387,758.155 "/>
<polygon fill="#E4E4E4" points="1250.475,768 1263.607,768 1257.041,758.155 "/>
<polygon fill="#E4E4E4" points="1305.127,768 1318.26,768 1311.693,758.155 "/>
<polygon fill="#E4E4E4" points="1366.348,758.155 1359.781,768 1366.348,768 "/>
<polygon fill="#E4E4E4" points="0,729.99 0,740.691 18.215,768 25.352,768 "/>
<polygon fill="#E4E4E4" points="54.654,740.691 72.868,768 80.006,768 54.654,729.99 29.302,768 36.439,768 "/>
<polygon fill="#E4E4E4" points="109.308,740.691 127.522,768 134.66,768 109.308,729.99 83.956,768 91.094,768 "/>
<polygon fill="#E4E4E4" points="163.962,740.691 182.176,768 189.313,768 163.962,729.99 138.61,768 145.747,768 "/>
<polygon fill="#E4E4E4" points="218.616,740.691 236.83,768 243.968,768 218.616,729.99 193.264,768 200.401,768 "/>
<polygon fill="#E4E4E4" points="273.27,740.691 291.484,768 298.622,768 273.27,729.99 247.918,768 255.055,768 "/>
<polygon fill="#E4E4E4" points="327.924,740.691 346.138,768 353.275,768 327.924,729.99 302.572,768 309.709,768 "/>
<polygon fill="#E4E4E4" points="382.578,740.691 400.792,768 407.93,768 382.578,729.99 357.226,768 364.363,768 "/>
<polygon fill="#E4E4E4" points="437.231,740.691 455.446,768 462.583,768 437.231,729.99 411.88,768 419.017,768 "/>
<polygon fill="#E4E4E4" points="491.886,740.691 510.1,768 517.237,768 491.886,729.99 466.534,768 473.671,768 "/>
<polygon fill="#E4E4E4" points="546.54,740.691 564.754,768 571.891,768 546.54,729.99 521.188,768 528.325,768 "/>
<polygon fill="#E4E4E4" points="601.193,740.691 619.408,768 626.545,768 601.193,729.99 575.841,768 582.979,768 "/>
<polygon fill="#E4E4E4" points="655.847,740.691 674.062,768 681.199,768 655.847,729.99 630.496,768 637.633,768 "/>
<polygon fill="#E4E4E4" points="710.5,740.691 728.715,768 735.854,768 710.5,729.99 685.149,768 692.286,768 "/>
<polygon fill="#E4E4E4" points="765.154,740.691 783.369,768 790.508,768 765.154,729.99 739.803,768 746.94,768 "/>
<polygon fill="#E4E4E4" points="819.809,740.691 838.022,768 845.16,768 819.809,729.99 794.457,768 801.595,768 "/>
<polygon fill="#E4E4E4" points="874.463,740.691 892.677,768 899.814,768 874.463,729.99 849.109,768 856.248,768 "/>
<polygon fill="#E4E4E4" points="929.117,740.691 947.331,768 954.469,768 929.117,729.99 903.764,768 910.902,768 "/>
<polygon fill="#E4E4E4" points="983.771,740.691 1001.985,768 1009.123,768 983.771,729.99 958.418,768 965.557,768 "/>
<polygon fill="#E4E4E4" points="1038.424,740.691 1056.639,768 1063.777,768 1038.424,729.99 1013.072,768 1020.21,768 "/>
<polygon fill="#E4E4E4" points="1093.078,740.691 1111.293,768 1118.432,768 1093.078,729.99 1067.727,768 1074.864,768 "/>
<polygon fill="#E4E4E4" points="1147.732,740.691 1165.946,768 1173.084,768 1147.732,729.99 1122.381,768 1129.519,768 "/>
<polygon fill="#E4E4E4" points="1202.387,740.691 1220.601,768 1227.738,768 1202.387,729.99 1177.033,768 1184.172,768 "/>
<polygon fill="#E4E4E4" points="1257.041,740.691 1275.255,768 1282.393,768 1257.041,729.99 1231.688,768 1238.826,768 "/>
<polygon fill="#E4E4E4" points="1311.693,740.691 1329.908,768 1337.047,768 1311.693,729.99 1286.342,768 1293.479,768 "/>
<polygon fill="#E4E4E4" points="1366.348,740.691 1366.348,729.99 1340.996,768 1348.134,768 "/>
</svg>
