<?xml version="1.0" encoding="utf-8"?>
<!-- Generator: Adobe Illustrator 15.0.0, SVG Export Plug-In . SVG Version: 6.00 Build 0)  -->
<!DOCTYPE svg PUBLIC "-//W3C//DTD SVG 1.1//EN" "http://www.w3.org/Graphics/SVG/1.1/DTD/svg11.dtd">
<svg version="1.1" id="Layer_1" xmlns="http://www.w3.org/2000/svg" xmlns:xlink="http://www.w3.org/1999/xlink" x="0px" y="0px"
	 width="116.134px" height="130.636px" viewBox="0 0 116.134 130.636" enable-background="new 0 0 116.134 130.636"
	 xml:space="preserve">
<path opacity="0.5" fill-rule="evenodd" clip-rule="evenodd" fill="#3AC0C3" d="M20.666,0.125c27.529,0,84.902-0.282,85.811,0
	c2.684,8.81,0.854,20.421,0.854,31.099c0,25.729,0.282,52.278,0,79.02c-0.042,4.178,0.978,10.539-4.588,11.217
	c0-38.746,0-77.491,0-116.236c-17.724-0.92-41.74-0.511-62.196-0.511c-12.138,0-23.95-2.443-27.019,6.117
	c1.883,0.327,5.078-0.659,6.118,0.51c0,10.197,0,20.391,0,30.587c2.479,0.263,4.397-4.429,6.626-6.117
	c3.435,1.159,5.57,6.319,8.159,6.627c0.92-10.973-1.242-22.951,2.194-31.411C39.569,9,60.937,10.831,70.628,10.831
	c9.867,0,19.795-1.151,27.527,1.528c1.698,36.56,1.696,80.191,0,116.746c-0.792,0.738-2.38,0.68-3.056,1.531
	c-27.364,0-54.722,0-82.081,0c0-0.172,0-0.34,0-0.512c-3.727-0.506-3.602-2.174-4.078-4.076c-1.679-6.705,0-19.184,0-29.57
	c0-20.228,0-39.648,0-59.648C8.941,18.561,6.148,1.623,20.666,0.125z"/>
</svg>
