<?xml version="1.0" encoding="utf-8"?>
<!-- Generator: Adobe Illustrator 15.0.0, SVG Export Plug-In . SVG Version: 6.00 Build 0)  -->
<!DOCTYPE svg PUBLIC "-//W3C//DTD SVG 1.1//EN" "http://www.w3.org/Graphics/SVG/1.1/DTD/svg11.dtd">
<svg version="1.1" id="Layer_1" xmlns="http://www.w3.org/2000/svg" xmlns:xlink="http://www.w3.org/1999/xlink" x="0px" y="0px"
	 width="125.617px" height="130.636px" viewBox="0 0 125.617 130.636" enable-background="new 0 0 125.617 130.636"
	 xml:space="preserve">
<path opacity="0.5" fill-rule="evenodd" clip-rule="evenodd" fill="#3AC0C3" d="M24.945,1.012c25.242,0,50.484,0,75.727,0
	c-0.262,2.403,0.131,2.022,2.003,2.227c7.257,0.798,17.475-0.792,22.942,0.223c-3.05,11.88-7.345,21.886-13.586,30.066
	c-6.034,7.908-14.917,15.255-27.395,16.259c-1.095,0.089-2.325-0.276-3.342,0c-1.271,0.352-2.057,1.893-3.116,2.898
	c-1.114,1.048-2.43,1.616-3.119,2.893c6.939-0.813,4.599,7.835-2.007,5.57c2.508,12.118,5.684,23.565,8.242,35.633
	c2.091,0.136,4.73-0.276,6.459,0.224c-0.151,11.135,0.297,22.864-0.225,33.629c-15.886,0-31.774,0-47.662,0
	c0.15-11.208-0.297-23.015,0.221-33.853c2.005,0,4.012,0,6.014,0c2.934-11.766,5.737-23.662,8.463-35.633
	c-6.006,1.707-8.395-4.149-4.007-6.013c-2.912-1.079-3.629-4.663-6.459-5.349c-1.043-0.25-2.206,0.099-3.342,0
	c-12.521-1.068-21.185-8.536-27.173-16.481C7.382,25.077,2.775,15.309,0,3.239c8.314,0,16.629,0,24.945,0
	C24.945,2.497,24.945,1.756,24.945,1.012z M40.089,44.443c-6.454-10.4-11.948-21.754-14.476-36.083
	c-5.868-0.367-13.287-0.37-19.154,0C12.849,25.21,20.466,40.831,40.089,44.443z M100.227,8.139
	c-2.922,14.082-8.078,25.926-14.702,36.305c19.472-3.769,27.521-18.957,33.41-36.305C112.698,8.139,106.464,8.139,100.227,8.139z
	 M46.103,102.125c0.147,7.573-0.295,15.743,0.223,22.941c11.508-0.146,23.606,0.298,34.745-0.224c0-7.794,0-15.588,0-23.386
	c-11.584,0-23.163,0-34.745,0C46.067,101.5,46.084,101.812,46.103,102.125z"/>
</svg>
