<?xml version="1.0" encoding="utf-8"?>
<!-- Generator: Adobe Illustrator 15.0.0, SVG Export Plug-In . SVG Version: 6.00 Build 0)  -->
<!DOCTYPE svg PUBLIC "-//W3C//DTD SVG 1.1//EN" "http://www.w3.org/Graphics/SVG/1.1/DTD/svg11.dtd">
<svg version="1.1" id="Layer_1" xmlns="http://www.w3.org/2000/svg" xmlns:xlink="http://www.w3.org/1999/xlink" x="0px" y="0px"
	 width="116.134px" height="113.908px" viewBox="0 0 116.134 113.908" enable-background="new 0 0 116.134 113.908"
	 xml:space="preserve">
<g opacity="0.5">
	<path fill-rule="evenodd" clip-rule="evenodd" fill="#3AC0C3" d="M116.134,0c0,34.259,0,68.518,0,102.777
		c-1.321,5.521-4.58,9.836-10.017,10.946c-3.792,0.776-8.765,0.185-13.172,0.185c-30.41,0-63.102,0-92.945,0
		c0-34.26,0-68.516,0-102.776C1.579,2.94,8.021-1.378,18.737,0.185c0,10.761,0,21.521,0,32.28
		c21.705,0.433,44.218,0.062,66.23,0.187C85.4,22.139,85.029,10.823,85.153,0C95.482,0,105.809,0,116.134,0z M40.628,52.317
		c-5.057,0-11.95-0.796-16.696,0c-5.739,0.964-5.196,6.786-5.196,13.173c0,10.125,0,22.11,0,30.983c16.909,0,34.19,0,51.388,0
		c4.885,0,13.002,0.991,16.515-0.744c4.035-1.997,3.522-7.159,3.522-12.987c0-10.121,0-21.161,0-30.424
		C73.641,52.317,57.019,52.317,40.628,52.317z"/>
	<path fill-rule="evenodd" clip-rule="evenodd" fill="#3AC0C3" d="M58.253,0c4.823,0,9.645,0,14.47,0c0,8.843,0,17.688,0,26.529
		c-4.884,0-9.768,0-14.654,0C58.191,17.749,57.82,8.474,58.253,0z"/>
</g>
</svg>
