<?xml version="1.0" encoding="utf-8"?>
<!-- Generator: Adobe Illustrator 15.0.0, SVG Export Plug-In . SVG Version: 6.00 Build 0)  -->
<!DOCTYPE svg PUBLIC "-//W3C//DTD SVG 1.1//EN" "http://www.w3.org/Graphics/SVG/1.1/DTD/svg11.dtd">
<svg version="1.1" id="Layer_1" xmlns="http://www.w3.org/2000/svg" xmlns:xlink="http://www.w3.org/1999/xlink" x="0px" y="0px"
	 width="112.752px" height="122.485px" viewBox="0 0 112.752 122.485" enable-background="new 0 0 112.752 122.485"
	 xml:space="preserve">
<g>
	<path fill-rule="evenodd" clip-rule="evenodd" fill="#FFFFFF" d="M54.958,4.062c0.846,0,1.693,0,2.539,0
		c8.162,2.15,7.437,7.408,7.437,17.784c0,8.138,0,17.241,0,25.045c0,3.591,0.684,9.074-0.359,12.34
		c-1.253,3.917-6.168,7.309-11.431,5.445c-6.155-2.18-5.627-8.512-5.627-17.241c0-8.086,0-17.458,0-25.406
		c0-4.286-0.407-8.935,0.545-12.16C48.988,6.711,51.417,5.192,54.958,4.062z"/>
	<path fill-rule="evenodd" clip-rule="evenodd" fill="#FFFFFF" d="M59.491,117.667c-2.174,0-4.353,0-6.533,0
		c-11.958-1.063-22.669-5.68-30.309-12.158c-7.871-6.678-13.546-15.037-16.693-25.59C2.594,68.65,3.725,54.288,8.129,44.169
		c2.082-4.758,4.858-9.074,8.174-12.885c2.608-3.005,7.441-8.555,11.795-9.438c7.471-1.51,12.479,5.442,9.981,11.798
		c-0.893,2.264-2.707,3.484-4.539,5.081c-5.848,5.104-11.366,12.65-12.155,22.869c-1.054,13.621,4.203,22.913,11.072,29.217
		c5.808,5.336,14.189,9.436,23.77,9.436c9.761,0,18.085-4.216,23.771-9.436c5.5-5.049,10.381-12.671,11.07-22.322
		c1.004-13.972-4.7-22.858-11.43-29.22c-2.022-1.912-4.538-3.245-5.449-5.987c-2.18-6.628,3.577-13.683,11.071-11.251
		c2.092,0.679,4.087,2.708,5.994,4.354c12.438,10.764,21.916,31.785,15.063,53.899c-3.35,10.79-9.106,19.108-16.698,25.406
		C81.807,112.178,72.769,116.125,59.491,117.667z"/>
</g>
</svg>
