<?xml version="1.0" encoding="utf-8"?>
<!-- Generator: Adobe Illustrator 15.0.0, SVG Export Plug-In . SVG Version: 6.00 Build 0)  -->
<!DOCTYPE svg PUBLIC "-//W3C//DTD SVG 1.1//EN" "http://www.w3.org/Graphics/SVG/1.1/DTD/svg11.dtd">
<svg version="1.1" id="Layer_1" xmlns="http://www.w3.org/2000/svg" xmlns:xlink="http://www.w3.org/1999/xlink" x="0px" y="0px"
	 width="122.418px" height="122.485px" viewBox="0 0 122.418 122.485" enable-background="new 0 0 122.418 122.485"
	 xml:space="preserve">
<path fill-rule="evenodd" clip-rule="evenodd" fill="#FFFFFF" d="M74.795,17.501c2.132,1.625,5.52,1.984,7.746,3.52
	c4.435-0.71,8.711-9.112,13.72-9.15c2.996-0.022,5.803,4.403,8.093,6.687c1.804,1.804,6.466,4.658,6.687,7.743
	c0.208,2.917-2.908,5.624-4.227,7.39c-1.898,2.529-3.186,4.147-4.92,6.683c1.242,2.391,2.466,4.803,3.166,7.746
	c5.545,1.252,12.944,0.656,16.893,3.514c0.41,5.974,0.946,14.997-0.359,20.409c-4.358,1.968-10.666,2.006-16.192,2.813
	c-1.337,2.416-1.86,5.64-3.507,7.747c1.488,2.536,3.16,4.353,4.92,6.687c1.388,1.829,4.327,4.572,4.227,7.387
	c-0.113,2.971-4.479,6.238-6.34,8.093c-2.094,2.101-5.053,6.093-7.739,6.333c-5.463,0.492-9.859-7.684-14.073-9.146
	c-2.555,1.198-4.989,2.517-8.093,3.166c-0.682,5.772-0.877,12.023-2.813,16.54c-5.412,1.306-14.439,0.77-20.413,0.354
	c-2.87-3.823-2.176-11.19-3.513-16.54c-2.233-1.412-5.482-1.804-7.387-3.52c-2.87,1.198-4.265,3.116-6.693,4.926
	c-1.722,1.281-4.794,4.271-7.386,4.221c-3.356-0.063-6.037-4.617-8.1-6.68c-2.057-2.063-6.548-4.939-6.687-7.746
	c-0.228-4.846,7.941-9.506,9.152-13.721c-1.085-2.668-2.245-5.26-3.166-8.099c-4.106-1.671-13.058,0.467-16.186-2.813
	c-3.476-3.64-0.196-15.111-0.36-20.759c4.138-2.321,10.944-1.965,16.192-3.164c1.564-2.079,2.05-5.226,3.52-7.393
	c-1.368-2.87-2.579-4.384-4.573-7.036c-1.236-1.64-4.598-4.268-4.579-7.043c0.031-3.227,4.687-6.087,6.687-8.09
	c2.113-2.11,4.907-6.522,7.746-6.687c5.084-0.293,9.524,8.093,14.073,9.15c2.624-1.013,4.971-2.303,7.746-3.167
	c1.109-5.45,0.852-12.281,3.16-16.539c5.626,0.233,16.28-3.072,20.412,0C74.991,3.81,73.206,13.12,74.795,17.501z M61.422,73.102
	c15.549,0.151,14.861-26.045-2.467-22.522C46.882,53.034,47.431,72.963,61.422,73.102z"/>
</svg>
