<?xml version="1.0" encoding="utf-8"?>
<!-- Generator: Adobe Illustrator 15.0.0, SVG Export Plug-In . SVG Version: 6.00 Build 0)  -->
<!DOCTYPE svg PUBLIC "-//W3C//DTD SVG 1.1//EN" "http://www.w3.org/Graphics/SVG/1.1/DTD/svg11.dtd">
<svg version="1.1" id="Layer_1" xmlns="http://www.w3.org/2000/svg" xmlns:xlink="http://www.w3.org/1999/xlink" x="0px" y="0px"
	 width="453.096px" height="448.371px" viewBox="0 0 453.096 448.371" enable-background="new 0 0 453.096 448.371"
	 xml:space="preserve">
<path fill="#D7E516" d="M198.435,21.375"/>
<path fill="#EF4F39" d="M182.51,24.127"/>
<path fill="#633192" d="M437.229,191.68c2.69,16.08,6.84,35.13,5.89,51.79c-0.039,0.67-0.079,1.351-0.14,2.039l-23.86-2.039v-25
	l-34-2.66l-2-37.44l-44-20.9l6-66.66l-50.999-12.03l9.999-19.311l-25.669-10.33l16.67-29.67c9.109,2.17,30.359,4.34,47.771,9.45
	v0.01l-6.44,39.27l29.771-6.64v41.01l42.229,16.9l-4,53.22L437.229,191.68z"/>
<path fill="#D7E516" d="M419.118,243.468l23.86,2.041c-0.96,12.279-4.32,26.859-8.81,40.74l-42.381,6.219v-35h-63l7.329-69.659
	l-24.619-7.19c4.061-6.71,7.54-14.59,9.29-22.48c4-18-5-40.67-12.671-46c-7.67-5.33-17.328-23.44-40.328-25.89
	c-11.82-1.25-21.88-0.92-30.67-0.46l8.67-46.32l-32-20c21.33-2.66,67.33-3.33,81.33,0l-16.67,29.67l25.669,10.33l-9.999,19.31
	l50.999,12.03l-6,66.66l44,20.9l2,37.44l34,2.66V243.468L419.118,243.468z"/>
<path fill="#D7E516" d="M437.229,191.68l-32.78-18.99l4-53.22l-42.229-16.9V61.56l-29.771,6.64l6.44-39.27v-0.01
	c9.34,2.74,17.58,6.33,22.229,11.22c13.33,14,33.33,16,48.671,57.33c15.329,41.34,20.659,58.67,21.329,76.67
	C435.31,179.28,436.149,185.25,437.229,191.68z"/>
<path fill="#633192" d="M391.789,292.468l42.381-6.219c-3.98,12.319-8.852,24.09-13.722,33.219c-10.659,20-26,42-32,50.671
	c-1.17,1.7-2.659,3.829-4.438,6.25l3.779-48.921l-42.341-6.329l15.271-41.329l-62.271-2.671l-13.329-72.45
	c3.961-2.84,7.54-5.21,10.33-6.55c4.689-2.25,10.84-8.91,16.051-17.52l24.618,7.19l-7.329,69.659h63V292.468L391.789,292.468z"/>
<path fill="#D7E516" d="M387.789,327.468l-3.779,48.921c-4.26,5.79-10.24,13.229-17.79,20.221l-41.102-31.8l2.671-50.671
	l-35.341,10.671l-2.658-35.342l-63.24-38.188c10.6-9.989,24.46-22.069,33.569-28.14c7.381-4.92,16.949-12.66,25-18.45l13.329,72.45
	l62.271,2.671l-15.271,41.329L387.789,327.468z"/>
<path fill="#633192" d="M325.118,364.81l41.102,31.8c-5.37,4.99-11.521,9.75-18.431,13.529
	c-14.109,7.729-28.829,12.979-40.359,16.38l-4.312-66.38l-46.999-10.671l-43.8-85.68c3.931-3.06,7.15-5.68,8.131-6.649
	c1.84-1.819,3.899-3.8,6.1-5.859l63.24,38.188l2.659,35.342l35.34-10.671L325.118,364.81z"/>
<path fill="#EF4F39" d="M212.32,263.791c-7.529,5.83-17.68,13.25-19.869,13.68c-1.65,0.33-5.83,3.029-12.15,5.351h-0.01
	c-6.431,2.37-15.08,4.33-25.5,2.99c-20.67-2.671-35.67-18.671-44-28.671c-4-4.801-8.53-11.891-12.94-20
	c-4.78-8.801-9.42-18.79-13.06-28.33c-7-18.34-5.34-30.67-5.67-39c-0.04-1.15-0.141-2.61-0.25-4.32
	c-0.74-10.71-2.301-30.82,2.58-40.021c3.42-6.42,10.1-15.03,17.51-22.9c4.87-5.18,10.06-10.05,14.83-13.76
	c7.189-5.6,24.439-8.68,38.47-9.66c9.38-0.68,17.32-0.41,19.86,0.66c6.33,2.66,29.67,5.33,43,6.44c6.479,0.54,13.67-0.02,22-0.46
	c8.79-0.46,18.85-0.79,30.67,0.46c23,2.45,32.658,20.56,40.328,25.89c7.671,5.33,16.671,28,12.671,46
	c-1.75,7.89-5.229,15.77-9.289,22.48c-5.211,8.61-11.36,15.27-16.051,17.52c-2.79,1.34-6.369,3.71-10.33,6.55
	c-8.051,5.79-17.619,13.53-25,18.45c-9.109,6.07-22.971,18.15-33.569,28.14c-2.2,2.06-4.26,4.04-6.1,5.859
	C219.47,258.11,216.25,260.73,212.32,263.791z M289.119,188.14c20.381-13.23,21.67-27,21.329-34.33
	c-0.33-7.34-5.989-24.34-11.659-33c-6.341-9.67-9.67-18.34-30.341-22.34c-20.659-4-41.119-1.79-52.329-3c-9.95-1.07-9.33,3-39-5.66
	c-29.671-8.67-45.33,1-49.33,3s-24,13.66-31,30.33c-7,16.67-10.67,18.33-8.67,38.67c2,20.33,0,30.66,3.329,41.33
	c3.341,10.67,9.431,19.14,10.671,21.33c3.97,7.02,29,53.669,58,50.34c29-3.342,21.67,2.658,51-20.671
	c30.899-24.58,31.64-31.14,49.67-42.669C281.119,198.47,276.58,196.28,289.119,188.14z"/>
<path fill="#3CBFC3" d="M310.448,153.81c0.341,7.33-0.948,21.1-21.329,34.33c-12.539,8.14-8,10.33-28.329,23.33
	c-18.03,11.53-18.771,18.09-49.67,42.669c-29.33,23.329-22,17.329-51,20.671c-29,3.329-54.03-43.32-58-50.34
	c-1.24-2.19-7.33-10.66-10.67-21.33c-3.33-10.67-1.33-21-3.33-41.33c-2-20.34,1.67-22,8.67-38.67c7-16.67,27-28.33,31-30.33
	s19.66-11.67,49.33-3c29.67,8.66,29.05,4.59,39,5.66c11.21,1.21,31.67-1,52.33,3c20.67,4,24,12.67,30.341,22.34
	C304.46,129.47,310.118,146.47,310.448,153.81z M187.02,215.14c14.891-6,11.431-27,10.101-35.77s-8.33-29.56-12.67-35.23
	c-4.33-5.67-19.33-13.33-35-15.33c-15.66-2-35.801,14.29-41.66,24c-2.36,3.89-1.67,16-1.67,20.33s5,25.33,15.33,34.33
	c10.34,9,13.3,16.05,24.67,19.76C158.12,231.14,172.12,221.14,187.02,215.14z"/>
<path fill="#D7E516" d="M303.118,360.139l4.312,66.382c-5.36,1.59-10.04,2.77-13.64,3.617c-4.852,1.143-13.052,1.432-22.671,1.33
	l14-41.329l-41.33,8v-34.671l-34-10l3.33-50.658l-32.82-19.99c6.32-2.32,10.5-5.021,12.149-5.352c2.19-0.43,12.341-7.85,19.87-13.68
	l43.8,85.68L303.118,360.139z"/>
<path fill="#633192" d="M285.119,390.139l-14,41.329c-12.881-0.129-28.3-0.938-41.54-1.33c-3.471-0.1-7.23-0.34-11.181-0.67
	l2.721-28.658l-34.101-14l-4.57-46.671l-30.22,2.671l8.22-39.342L93.79,274.98l4.06-37.84c4.41,8.109,8.94,15.199,12.94,20
	c8.33,10,23.33,26,44,28.671c10.42,1.34,19.069-0.62,25.5-2.99h0.01l32.82,19.99l-3.33,50.659l34,10v34.67L285.119,390.139z"/>
<path fill="#633192" d="M245.79,39.47l-8.67,46.32c-8.33,0.44-15.521,1-22,0.46c-13.33-1.11-36.67-3.78-43-6.44
	c-2.54-1.07-10.48-1.34-19.86-0.66l-0.03-0.37V56.14l-34.99-11.79c4.95-2,10.91-4.19,18.551-6.88c36-12.66,56.66-15.33,78-18
	L245.79,39.47z"/>
<path fill="#D7E516" d="M221.12,400.81l-2.721,28.658c-22.359-1.889-50.68-6.959-66.27-8.658c-3.53-0.381-7.39-1.109-11.44-2.2
	l5.761-49.8l-34,11.329l8-68.671L78.03,324.81l-6.909-70.671l-28.67-3.329l17.34-62l-43.34-16.12c3.72-19.95,10.329-44.39,20-57.22
	c2.779-3.68,5.119-7.15,7.279-10.46l4.061,57.13l31.069,3.35h0.011c0.109,1.71,0.21,3.17,0.25,4.32c0.33,8.33-1.33,20.66,5.67,39
	c3.64,9.54,8.279,19.529,13.06,28.33l-4.06,37.84l66.66,28.489l-8.221,39.341l30.221-2.671l4.569,46.671L221.12,400.81z"/>
<path fill="#EF4F39" d="M197.12,179.37c1.33,8.77,4.79,29.77-10.101,35.77c-14.899,6-28.899,16-40.899,12.09
	c-11.37-3.71-14.33-10.76-24.67-19.76c-10.33-9-15.33-30-15.33-34.33s-0.69-16.44,1.67-20.33c5.859-9.71,26-26,41.66-24
	c15.67,2,30.67,9.66,35,15.33C188.79,149.81,195.79,170.6,197.12,179.37z M185.79,203.14c3.66-7.67-1.801-26.75-4.34-31
	c-2.66-4.47-5.44-17.09-12.33-21c-2.98-1.69-10.45-12.52-25-10.67c-18.33,2.34-24,11.34-26.33,19c-2.34,7.67,3.31,33.69,6.66,37.67
	c2.8,3.32,19.67,21.33,29.67,21.33S182.12,210.81,185.79,203.14z"/>
<path fill="#FFFF01" d="M181.45,172.14c2.539,4.25,8,23.33,4.34,31c-3.67,7.67-21.67,15.33-31.67,15.33s-26.87-18.01-29.67-21.33
	c-3.351-3.98-9-30-6.66-37.67c2.33-7.66,8-16.66,26.33-19c14.55-1.85,22.02,8.98,25,10.67
	C176.01,155.05,178.79,167.669,181.45,172.14z"/>
<path fill="#D7E516" d="M152.229,78.78l0.03,0.37c-14.03,0.98-31.28,4.06-38.47,9.66c-4.771,3.71-9.96,8.58-14.83,13.76
	l-20.101-6.43L78.03,68.2c17.75-12.91,23.11-17.35,39.211-23.85l34.989,11.79L152.229,78.78L152.229,78.78z"/>
<path fill="#633192" d="M146.45,368.81l-5.761,49.8c-17-4.53-37.319-15.239-50.239-32.471c-16-21.329-38.66-50-40-60.671
	c-1.33-10.658-18.66-50.658-26-72.658c-7.33-22-12.99-36.99-11.33-56.67c0.489-5.72,1.59-14.09,3.33-23.45l43.34,16.12l-17.34,62
	l28.67,3.329l6.909,70.671l42.421-13.342l-8,68.671L146.45,368.81z"/>
<path fill="#633192" d="M78.86,96.14l20.101,6.43c-7.41,7.87-14.09,16.48-17.51,22.9c-4.881,9.2-3.32,29.311-2.58,40.021H78.86
	l-31.069-3.35l-4.061-57.13C51.37,93.26,56.56,83.59,69.79,74.14c3.029-2.17,5.76-4.14,8.239-5.94L78.86,96.14z"/>
<path fill="#D7E516" d="M434.17,286.25c4.488-13.879,7.85-28.459,8.81-40.74c0.062-0.688,0.101-1.369,0.14-2.039
	c0.95-16.66-3.198-35.709-5.89-51.79c-1.08-6.43-1.92-12.4-2.11-17.54c-0.67-18-6-35.33-21.328-76.67
	c-15.342-41.33-35.342-43.33-48.672-57.33c-4.648-4.89-12.89-8.48-22.229-11.22c-17.41-5.11-38.66-7.28-47.771-9.45
	c-14-3.33-60-2.66-81.33,0c-21.34,2.67-42,5.34-78,18c-7.641,2.69-13.601,4.88-18.55,6.88C101.14,50.85,95.78,55.29,78.03,68.2
	c-2.479,1.8-5.21,3.77-8.239,5.94c-13.23,9.45-18.42,19.12-26.061,30.87c-2.16,3.31-4.5,6.78-7.279,10.46
	c-9.671,12.83-16.28,37.271-20,57.22c-1.74,9.36-2.841,17.73-3.33,23.45c-1.66,19.68,4,34.67,11.33,56.67
	c7.34,22,24.67,62,26,72.658c1.34,10.671,24,39.342,40,60.671c12.92,17.229,33.239,27.94,50.239,32.471
	c4.051,1.091,7.91,1.819,11.44,2.2c15.59,1.699,43.91,6.77,66.27,8.658c3.95,0.33,7.71,0.57,11.181,0.67
	c13.239,0.393,28.66,1.201,41.54,1.33c9.62,0.102,17.819-0.188,22.671-1.33c3.6-0.85,8.278-2.027,13.64-3.617
	c11.53-3.4,26.25-8.65,40.36-16.382c6.908-3.779,13.06-8.539,18.43-13.529c7.55-6.989,13.53-14.431,17.79-20.221
	c1.78-2.421,3.27-4.55,4.438-6.25c6-8.671,21.342-30.671,32-50.671C425.319,310.339,430.189,298.57,434.17,286.25z M452.448,224.35
	c0,11.12,4.28,27.33-9.188,61.899c-13.471,34.562-26.812,66.562-40.142,85.891c-13.329,19.33-35.329,34-58,47.33
	c-22.67,13.342-41.329,22-65.999,27.342c-24.67,5.328-33.33-3.342-54.669-6c-21.33-2.672-54-9.313-82-9.32
	c-28-0.021-26.66-6.021-45.33-24.021s-29.33-29.33-40.67-45.33c-11.33-16-22.66-46-28-60c-5.33-14-15.33-57.329-19.33-71
	c-4-13.67-15.33-33-4.67-70.33c10.67-37.34,31.34-68.67,39.34-78.67s27.33-33.33,49.33-41.33s73.79-25.34,93.899-33.34
	c17.83-7.09,65.431-7.33,74.101-7.33c8.671,0,24.671,3.33,65.999,7.33c41.33,4,53.33,18,61.33,26s31.342,31.94,36.67,45.31
	c5.33,13.36,13.33,31.36,13.33,38.69c0,7.34,2.95,18.67,4.812,36C445.118,170.81,452.448,213.229,452.448,224.35z"/>
<path fill="#D7E516" d="M225.12,86.399"/>
<path fill="#D7E516" d="M198.435,21.515"/>
<path fill="#EF4F39" d="M191.077,83.622"/>
<path fill="#EF4F39" d="M182.51,24.267"/>
</svg>
