<?xml version="1.0" encoding="utf-8"?>
<!-- Generator: Adobe Illustrator 15.1.0, SVG Export Plug-In . SVG Version: 6.00 Build 0)  -->
<!DOCTYPE svg PUBLIC "-//W3C//DTD SVG 1.1//EN" "http://www.w3.org/Graphics/SVG/1.1/DTD/svg11.dtd">
<svg version="1.1" id="Layer_1" xmlns="http://www.w3.org/2000/svg" xmlns:xlink="http://www.w3.org/1999/xlink" x="0px" y="0px"
	 width="453.096px" height="448.37px" viewBox="0 0 453.096 448.37" enable-background="new 0 0 453.096 448.37"
	 xml:space="preserve">
<g id="XMLID_6_">
	<g>
		<path fill="#88FFC3" d="M437.229,191.54c2.689,16.08,6.84,35.13,5.89,51.79c-0.04,0.671-0.08,1.351-0.14,2.04l-23.86-2.04v-25
			l-34-2.66l-2-37.44l-44-20.9l6-66.66l-51-12.03l10-19.31L278.449,49l16.67-29.67c9.11,2.17,30.36,4.34,47.77,9.45v0.01
			l-6.439,39.27l29.77-6.64v41.01l42.23,16.9l-4,53.22L437.229,191.54z"/>
		<path fill="#FFFF01" d="M419.119,243.33l23.86,2.04c-0.96,12.28-4.32,26.86-8.811,40.74l-42.38,6.22v-35h-63l7.33-69.66
			l-24.62-7.19c4.061-6.71,7.54-14.59,9.29-22.48c4-18-5-40.67-12.67-46s-17.33-23.44-40.33-25.89
			c-11.82-1.25-21.88-0.92-30.67-0.46l8.67-46.32l-32-20c21.33-2.66,67.33-3.33,81.33,0L278.449,49l25.67,10.33l-10,19.31l51,12.03
			l-6,66.66l44,20.9l2,37.44l34,2.66V243.33z"/>
		<path fill="#FFFF01" d="M437.229,191.54l-32.78-18.99l4-53.22l-42.23-16.9V61.42l-29.77,6.64l6.439-39.27v-0.01
			c9.341,2.74,17.58,6.33,22.23,11.22c13.33,14,33.33,16,48.67,57.33c15.33,41.34,20.66,58.67,21.33,76.67
			C435.31,179.14,436.149,185.11,437.229,191.54z"/>
		<path fill="#88FFC3" d="M391.789,292.33l42.38-6.22c-3.979,12.32-8.85,24.09-13.72,33.22c-10.66,20-26,42-32,50.671
			c-1.17,1.699-2.66,3.829-4.44,6.25l3.78-48.921L345.449,321l15.27-41.33l-62.27-2.67l-13.33-72.451
			c3.96-2.84,7.54-5.21,10.33-6.55c4.689-2.25,10.84-8.91,16.05-17.52l24.62,7.19l-7.33,69.66h63V292.33z"/>
		<path fill="#FFFF01" d="M387.789,327.33l-3.78,48.921c-4.26,5.789-10.239,13.229-17.79,20.22l-41.1-31.8l2.67-50.67l-35.34,10.67
			l-2.66-35.341l-63.24-38.189c10.6-9.99,24.46-22.07,33.57-28.14c7.38-4.92,16.95-12.66,25-18.45L298.449,277l62.27,2.67
			L345.449,321L387.789,327.33z"/>
		<path fill="#88FFC3" d="M325.119,364.67l41.1,31.8c-5.369,4.99-11.52,9.75-18.43,13.53c-14.11,7.729-28.83,12.979-40.36,16.38
			l-4.31-66.38l-47-10.671l-43.8-85.68c3.93-3.06,7.15-5.68,8.13-6.649c1.84-1.82,3.9-3.801,6.1-5.86l63.24,38.189l2.66,35.341
			l35.34-10.67L325.119,364.67z"/>
		<path fill="#0031CC" d="M212.319,263.65c-7.53,5.83-17.68,13.25-19.87,13.68c-1.65,0.33-5.83,3.03-12.15,5.351h-0.01
			c-6.43,2.37-15.08,4.33-25.5,2.99c-20.67-2.67-35.67-18.67-44-28.67c-4-4.801-8.53-11.891-12.94-20
			c-4.78-8.8-9.42-18.79-13.06-28.33c-7-18.34-5.34-30.67-5.67-39c-0.04-1.15-0.14-2.61-0.25-4.32c-0.74-10.71-2.3-30.82,2.58-40.02
			c3.42-6.42,10.1-15.03,17.51-22.9c4.87-5.18,10.06-10.05,14.83-13.76c7.19-5.6,24.44-8.68,38.47-9.66
			c9.38-0.68,17.32-0.41,19.86,0.66c6.33,2.66,29.67,5.33,43,6.44c6.48,0.54,13.67-0.02,22-0.46c8.79-0.46,18.85-0.79,30.67,0.46
			c23,2.45,32.66,20.56,40.33,25.89s16.67,28,12.67,46c-1.75,7.89-5.229,15.77-9.29,22.48c-5.21,8.61-11.36,15.27-16.05,17.52
			c-2.79,1.34-6.37,3.71-10.33,6.55c-8.05,5.79-17.62,13.53-25,18.45c-9.11,6.07-22.97,18.15-33.57,28.14
			c-2.2,2.06-4.26,4.04-6.1,5.86C219.469,257.97,216.249,260.59,212.319,263.65z M289.119,188c20.38-13.23,21.67-27,21.33-34.33
			c-0.33-7.34-5.99-24.34-11.66-33c-6.34-9.67-9.67-18.34-30.34-22.34c-20.66-4-41.12-1.79-52.33-3c-9.95-1.07-9.33,3-39-5.66
			c-29.67-8.67-45.33,1-49.33,3s-24,13.66-31,30.33s-10.67,18.33-8.67,38.67c2,20.33,0,30.66,3.33,41.33
			c3.34,10.67,9.43,19.14,10.67,21.33c3.97,7.02,29,53.67,58,50.34c29-3.341,21.67,2.659,51-20.67
			c30.9-24.581,31.64-31.141,49.67-42.67C281.119,198.33,276.579,196.14,289.119,188z"/>
		<path fill="#EF4F39" d="M310.449,153.67c0.34,7.33-0.95,21.1-21.33,34.33c-12.54,8.14-8,10.33-28.33,23.33
			c-18.03,11.53-18.77,18.09-49.67,42.67c-29.33,23.329-22,17.329-51,20.67c-29,3.33-54.03-43.32-58-50.34
			c-1.24-2.19-7.33-10.66-10.67-21.33c-3.33-10.67-1.33-21-3.33-41.33c-2-20.34,1.67-22,8.67-38.67s27-28.33,31-30.33
			s19.66-11.67,49.33-3c29.67,8.66,29.05,4.59,39,5.66c11.21,1.21,31.67-1,52.33,3c20.67,4,24,12.67,30.34,22.34
			C304.459,129.33,310.119,146.33,310.449,153.67z M187.019,215c14.89-6,11.43-27,10.1-35.77s-8.33-29.56-12.67-35.23
			c-4.33-5.67-19.33-13.33-35-15.33c-15.66-2-35.8,14.29-41.66,24c-2.36,3.89-1.67,16-1.67,20.33s5,25.33,15.33,34.33
			c10.34,9,13.3,16.05,24.67,19.76C158.119,231,172.119,221,187.019,215z"/>
		<path fill="#FFFF01" d="M303.119,360l4.31,66.38c-5.359,1.59-10.04,2.77-13.64,3.62c-4.85,1.14-13.05,1.43-22.67,1.329l14-41.329
			l-41.33,8V363.33l-34-10l3.33-50.659l-32.82-19.99c6.32-2.32,10.5-5.021,12.15-5.351c2.19-0.43,12.34-7.85,19.87-13.68l43.8,85.68
			L303.119,360z"/>
		<path fill="#88FFC3" d="M285.119,390l-14,41.329c-12.88-0.13-28.3-0.939-41.54-1.329c-3.47-0.101-7.23-0.341-11.18-0.671
			l2.72-28.659l-34.1-14l-4.57-46.67l-30.22,2.67l8.22-39.341l-66.66-28.489l4.06-37.84c4.41,8.11,8.94,15.2,12.94,20
			c8.33,10,23.33,26,44,28.67c10.42,1.34,19.07-0.62,25.5-2.99h0.01l32.82,19.99l-3.33,50.659l34,10V398L285.119,390z"/>
		<path fill="#88FFC3" d="M245.789,39.33l-8.67,46.32c-8.33,0.44-15.52,1-22,0.46c-13.33-1.11-36.67-3.78-43-6.44
			c-2.54-1.07-10.48-1.34-19.86-0.66l-0.03-0.37V56l-34.99-11.79c4.95-2,10.91-4.19,18.55-6.88c36-12.66,56.66-15.33,78-18
			L245.789,39.33z"/>
		<path fill="#FFFF01" d="M221.119,400.67l-2.72,28.659c-22.36-1.89-50.68-6.96-66.27-8.659c-3.53-0.381-7.39-1.11-11.44-2.2
			l5.76-49.8l-34,11.33l8-68.671l-42.42,13.341L71.119,254l-28.67-3.33l17.34-62l-43.34-16.12c3.72-19.95,10.33-44.39,20-57.22
			c2.78-3.68,5.12-7.15,7.28-10.46l4.06,57.13l31.07,3.35h0.01c0.11,1.71,0.21,3.17,0.25,4.32c0.33,8.33-1.33,20.66,5.67,39
			c3.64,9.54,8.28,19.53,13.06,28.33l-4.06,37.84l66.66,28.489l-8.22,39.341l30.22-2.67l4.57,46.67L221.119,400.67z"/>
		<path fill="#FFFF01" d="M197.119,179.23c1.33,8.77,4.79,29.77-10.1,35.77c-14.9,6-28.9,16-40.9,12.09
			c-11.37-3.71-14.33-10.76-24.67-19.76c-10.33-9-15.33-30-15.33-34.33s-0.69-16.44,1.67-20.33c5.86-9.71,26-26,41.66-24
			c15.67,2,30.67,9.66,35,15.33C188.789,149.67,195.789,170.46,197.119,179.23z M185.789,203c3.66-7.67-1.8-26.75-4.34-31
			c-2.66-4.47-5.44-17.09-12.33-21c-2.98-1.69-10.45-12.52-25-10.67c-18.33,2.34-24,11.34-26.33,19
			c-2.34,7.67,3.31,33.69,6.66,37.67c2.8,3.32,19.67,21.33,29.67,21.33S182.119,210.67,185.789,203z"/>
		<path fill="#88FFC3" d="M181.449,172c2.54,4.25,8,23.33,4.34,31c-3.67,7.67-21.67,15.33-31.67,15.33s-26.87-18.01-29.67-21.33
			c-3.35-3.98-9-30-6.66-37.67c2.33-7.66,8-16.66,26.33-19c14.55-1.85,22.02,8.98,25,10.67
			C176.009,154.91,178.789,167.53,181.449,172z"/>
		<path fill="#FFFF01" d="M152.229,78.64l0.03,0.37c-14.03,0.98-31.28,4.06-38.47,9.66c-4.77,3.71-9.96,8.58-14.83,13.76L78.859,96
			l-0.83-27.94c17.75-12.91,23.11-17.35,39.21-23.85L152.229,56V78.64z"/>
		<path fill="#88FFC3" d="M146.449,368.67l-5.76,49.8c-17-4.53-37.32-15.24-50.24-32.47c-16-21.33-38.66-50-40-60.671
			c-1.33-10.659-18.66-50.659-26-72.659c-7.33-22-12.99-36.99-11.33-56.67c0.49-5.72,1.59-14.09,3.33-23.45l43.34,16.12l-17.34,62
			l28.67,3.33l6.91,70.67l42.42-13.341l-8,68.671L146.449,368.67z"/>
		<path fill="#88FFC3" d="M78.859,96l20.1,6.43c-7.41,7.87-14.09,16.48-17.51,22.9c-4.88,9.2-3.32,29.31-2.58,40.02h-0.01
			L47.789,162l-4.06-57.13c7.64-11.75,12.83-21.42,26.06-30.87c3.03-2.17,5.76-4.14,8.24-5.94L78.859,96z"/>
		<path fill="#FFFF01" d="M78.029,68.06c-2.48,1.8-5.21,3.77-8.24,5.94c-13.23,9.45-18.42,19.12-26.06,30.87
			c-2.16,3.31-4.5,6.78-7.28,10.46c-9.67,12.83-16.28,37.27-20,57.22c-1.74,9.36-2.84,17.73-3.33,23.45
			c-1.66,19.68,4,34.67,11.33,56.67c7.34,22,24.67,62,26,72.659c1.34,10.671,24,39.341,40,60.671
			c12.92,17.229,33.24,27.939,50.24,32.47c4.05,1.09,7.91,1.819,11.44,2.2c15.59,1.699,43.91,6.77,66.27,8.659
			c3.95,0.33,7.71,0.57,11.18,0.671c13.24,0.39,28.66,1.199,41.54,1.329c9.62,0.101,17.82-0.189,22.67-1.329
			c3.6-0.851,8.28-2.03,13.64-3.62c11.53-3.4,26.25-8.65,40.36-16.38c6.91-3.78,13.061-8.54,18.43-13.53
			c7.551-6.99,13.53-14.431,17.79-20.22c1.78-2.421,3.271-4.551,4.44-6.25c6-8.671,21.34-30.671,32-50.671
			c4.87-9.13,9.74-20.899,13.72-33.22c4.49-13.88,7.851-28.46,8.811-40.74c0.06-0.689,0.1-1.369,0.14-2.04
			c0.95-16.66-3.2-35.709-5.89-51.79c-1.08-6.43-1.92-12.4-2.11-17.54c-0.67-18-6-35.33-21.33-76.67
			C398.449,56,378.449,54,365.119,40c-4.65-4.89-12.89-8.48-22.23-11.22c-17.409-5.11-38.659-7.28-47.77-9.45
			c-14-3.33-60-2.66-81.33,0c-21.34,2.67-42,5.34-78,18c-7.64,2.69-13.6,4.88-18.55,6.88C101.139,50.71,95.779,55.15,78.029,68.06z
			 M452.449,224.21c0,11.12,4.28,27.33-9.19,61.9c-13.47,34.561-26.81,66.561-40.14,85.891c-13.33,19.329-35.33,34-58,47.329
			c-22.67,13.341-41.33,22-66,27.341c-24.67,5.33-33.33-3.341-54.67-6c-21.33-2.67-54-9.311-82-9.32
			c-28-0.021-26.66-6.021-45.33-24.021S67.789,378,56.449,362c-11.33-16-22.66-46-28-60c-5.33-14-15.33-57.33-19.33-71
			c-4-13.67-15.33-33-4.67-70.33C15.119,123.33,35.789,92,43.789,82s27.33-33.33,49.33-41.33s73.79-25.34,93.9-33.34
			c17.83-7.09,65.43-7.33,74.1-7.33s24.67,3.33,66,7.33s53.33,18,61.33,26s31.34,31.94,36.67,45.31
			c5.33,13.36,13.33,31.36,13.33,38.69c0,7.34,2.95,18.67,4.81,36C445.119,170.67,452.449,213.09,452.449,224.21z"/>
	</g>
	<g>
	</g>
</g>
<path fill="#D7E516" d="M225.119,86.26"/>
<path fill="#D7E516" d="M198.435,21.375"/>
<path fill="#EF4F39" d="M191.076,83.482"/>
<path fill="#EF4F39" d="M182.51,24.127"/>
</svg>
