<?xml version="1.0" encoding="utf-8"?>
<!-- Generator: Adobe Illustrator 15.1.0, SVG Export Plug-In . SVG Version: 6.00 Build 0)  -->
<!DOCTYPE svg PUBLIC "-//W3C//DTD SVG 1.1//EN" "http://www.w3.org/Graphics/SVG/1.1/DTD/svg11.dtd">
<svg version="1.1" id="Layer_1" xmlns="http://www.w3.org/2000/svg" xmlns:xlink="http://www.w3.org/1999/xlink" x="0px" y="0px"
	 width="543.34px" height="514.981px" viewBox="0 0 543.34 514.981" enable-background="new 0 0 543.34 514.981"
	 xml:space="preserve">
<g id="XMLID_3_">
	<g>
		<path fill="#EF4F39" d="M539.521,211.585c2.68,27.58,11.39,99.14-11.98,152.59c-23.359,53.45-42.33,54.31-52.67,64.65
			c-10.35,10.35-51.72,42.25-77.59,52.59c-25.86,10.35-62.07,21.55-97.41,27.59c-35.35,6.03-79.31,6.89-114.66,5.17
			c-35.34-1.72-83.62-13.79-110.34-37.93c-26.72-24.141-50.75-56.9-55.55-94.83c-4.8-37.931-11.69-26.721-17.73-77.59
			c-6.03-50.86,6.9-58.62,8.62-98.271c1.73-39.66,28.45-68.97,38.8-79.31c10.34-10.35,48.27-52.59,67.24-59.48
			c18.96-6.9,65.52-45.69,86.21-50c20.69-4.31,59.48-21.56,99.129-15.52c39.66,6.03,89.66,15.52,101.73,25.86
			c12.07,10.35,37.07,34.48,55.17,50.86s37.93,30.17,54.31,51.73C529.182,151.245,538.602,202.025,539.521,211.585z
			 M525.731,266.765c6.899-56.9-7.76-64.66-12.931-87.94c-5.17-23.27-9.479-27.58-15.52-43.96c-6.03-16.38-44.82-51.73-88.79-86.21
			s-100.95-26.23-140.55-24.14c-12.96,0.69-83.59,11.21-96.52,25.87c-12.93,14.65-57.76,28.44-87.93,56.03
			c-30.17,27.59-34.48,45.69-53.45,93.1c-18.96,47.42-6.31,54.01-9.48,104.311c-2.61,41.38,6.03,63.8,6.9,75
			c0.86,11.21,18.96,79.31,65.51,92.25c46.55,12.93,47.42,21.55,65.52,28.439c18.1,6.9,19.28-0.43,50,2.59
			c53.45,5.25,49.35-1.58,84.48-7.76c53.5-9.4,95.689-25.86,112.069-37.07c16.38-11.199,63.79-31.89,68.97-39.649
			c5.171-7.76,32.761-30.17,34.48-49.141C510.211,349.515,518.831,323.655,525.731,266.765z"/>
		<path fill="#0031CC" d="M512.801,178.825c5.171,23.28,19.83,31.04,12.931,87.94c-6.9,56.891-15.521,82.75-17.24,101.72
			c-1.72,18.971-29.31,41.381-34.48,49.141c-5.18,7.76-52.59,28.45-68.97,39.649c-16.38,11.21-58.569,27.67-112.069,37.07
			c-35.13,6.18-31.03,13.01-84.48,7.76c-30.72-3.02-31.9,4.311-50-2.59c-18.1-6.89-18.97-15.51-65.52-28.439
			c-46.55-12.94-64.65-81.04-65.51-92.25c-0.87-11.2-9.51-33.62-6.9-75c3.17-50.301-9.48-56.891,9.48-104.311
			c18.97-47.41,23.28-65.51,53.45-93.1c30.17-27.59,75-41.38,87.93-56.03c12.93-14.66,83.56-25.18,96.52-25.87
			c39.6-2.09,96.58-10.34,140.55,24.14s82.76,69.83,88.79,86.21C503.321,151.245,507.631,155.555,512.801,178.825z M481.771,332.274
			c8.62-62.069-37.07-79.31-47.391-82.119c-10.31-2.82-77.609-14.431-97.439,7.31c-19.83,21.75-54.311,26.54-82.76,26.54
			s-47.41-0.87-51.37,41.38c-3.95,42.24,28.09,72.41,35.85,87.93c7.76,15.511,25,34.48,65.521,44.82
			c40.52,10.35,91.819-20.35,123.279-44.82C434.661,407.705,473.151,394.345,481.771,332.274z M444.701,227.104
			c10.34-7.76,20.69-55.17-26.729-102.59c-47.41-47.41-100-57.75-111.2-59.48c-11.21-1.72-79.73,0.98-95.69,19.83
			c-4.13,4.88-18.89,30.8,5.17,46.55c39.65,25.96,56.03,37.07,61.21,52.59c5.17,15.51,12.061,61.2,37.931,65.51
			c25.859,4.311,59.479-14.649,72.409-18.1C400.731,227.965,434.352,234.865,444.701,227.104z M273.432,229.694
			c0.579-6.899-8.9-40.52-25.28-54.31c-16.38-13.8-25.01-31.9-52.59-42.25c-27.59-10.34-45.69-6.03-65.52,0
			c-19.83,6.04-44.83,31.9-47.41,34.49c-2.59,2.58-23.25,30.99-23.28,62.069c-0.03,36.24,2.59,68.101,9.48,97.41
			c6.9,29.311,15.52,67.24,42.25,89.65c26.72,22.42,33.62,34.87,77.58,26.06c43.97-8.81,34.01-13.989,34.25-26.06
			c0.24-12.061-10.93-26.72-20.43-50c-9.51-23.271-23.3-39.65-12.96-60.34c10.35-20.69,22.42-31.03,61.21-39.66
			C289.521,258.135,272.861,236.585,273.432,229.694z"/>
		<path fill="#EF4F39" d="M434.381,250.155c10.32,2.81,56.011,20.05,47.391,82.119c-8.62,62.07-47.11,75.431-54.311,81.04
			c-31.46,24.471-82.76,55.17-123.279,44.82c-40.521-10.34-57.76-29.31-65.521-44.82c-7.76-15.52-39.8-45.689-35.85-87.93
			c3.96-42.25,22.92-41.38,51.37-41.38s62.93-4.79,82.76-26.54C356.771,235.725,424.071,247.335,434.381,250.155z M461.941,360.725
			c7.76-25,13.79-47.41,0-73.28c-13.79-25.859-71.55-25-91.38-25.27s-42.431,25.19-85.351,28.72
			c-79.06,6.511-68.96,17.24-67.24,38.8c1.73,21.551,8.62,51.721,21.55,67.24c12.93,15.521,8.71,30.55,53.451,42.24
			c44.739,11.68,82.539-7.28,106.899-21.55C407.321,413.255,454.182,385.725,461.941,360.725z"/>
		<path fill="#FFFF01" d="M461.941,287.444c13.79,25.87,7.76,48.28,0,73.28s-54.62,52.53-62.07,56.9
			c-24.36,14.27-62.16,33.229-106.899,21.55c-44.74-11.69-40.521-26.72-53.451-42.24c-12.93-15.52-19.82-45.689-21.55-67.24
			c-1.72-21.56-11.82-32.289,67.24-38.8c42.92-3.529,65.521-28.989,85.351-28.72S448.151,261.585,461.941,287.444z"/>
		<path fill="#EF4F39" d="M417.972,124.515c47.42,47.42,37.069,94.83,26.729,102.59c-10.35,7.761-43.97,0.86-56.9,4.311
			c-12.93,3.45-46.55,22.41-72.409,18.1c-25.87-4.31-32.761-50-37.931-65.51c-5.18-15.52-21.56-26.63-61.21-52.59
			c-24.06-15.75-9.3-41.67-5.17-46.55c15.96-18.85,84.48-21.55,95.69-19.83C317.972,66.765,370.562,77.105,417.972,124.515z
			 M429.182,211.585c12.93-11.2-0.86-42.24-12.931-68.1c-12.069-25.86-57.76-51.72-69.83-54.31
			c-12.069-2.59-46.55-4.31-72.989-11.21c-26.431-6.89-60.63,22.42-47.7,38.8c12.93,16.38,28.99,19.12,47.7,44.82
			c10.64,14.61,22.989,59.49,40.229,68.97c17.25,9.48,53.45-5.17,65.521-6.899C391.251,221.935,416.251,222.795,429.182,211.585z"/>
		<path fill="#FFFF01" d="M416.251,143.485c12.07,25.86,25.86,56.9,12.931,68.1c-12.931,11.21-37.931,10.35-50,12.07
			c-12.07,1.729-48.271,16.38-65.521,6.899c-17.24-9.479-29.59-54.36-40.229-68.97c-18.71-25.7-34.771-28.44-47.7-44.82
			c-12.93-16.38,21.27-45.69,47.7-38.8c26.439,6.9,60.92,8.62,72.989,11.21C358.491,91.765,404.182,117.625,416.251,143.485z"/>
		<path fill="#EF4F39" d="M248.151,175.385c16.38,13.79,25.859,47.41,25.28,54.31c-0.57,6.891,16.09,28.44-22.7,37.061
			c-38.79,8.63-50.86,18.97-61.21,39.66c-10.34,20.689,3.45,37.069,12.96,60.34c9.5,23.28,20.67,37.939,20.43,50
			c-0.24,12.07,9.72,17.25-34.25,26.06c-43.96,8.811-50.86-3.64-77.58-26.06c-26.73-22.41-35.35-60.34-42.25-89.65
			c-6.89-29.31-9.51-61.17-9.48-97.41c0.03-31.08,20.69-59.49,23.28-62.069c2.58-2.59,27.58-28.45,47.41-34.49
			c19.83-6.03,37.93-10.34,65.52,0C223.141,143.485,231.771,161.585,248.151,175.385z M247.281,244.535
			c16.38-24.33,3.19-51.05-15.79-76.91c-18.98-25.87-46.94-24.07-63.56-31.9c-16.62-7.83-52.54,17.44-56.85,21.65
			s-34.07,46.68-37.07,65.42c-5.43,33.89-4.31,55.17,6.03,76.72c10.35,21.561-1.72,52.59,13.79,71.561
			c15.52,18.96,22.42,37.06,50.87,50c28.45,12.93,41.15,17.6,58.11,0c16.96-17.61-3.8-33.631-14.15-55.181
			c-10.34-21.55-30.17-46.3-15.51-79.62C187.801,252.965,230.901,268.865,247.281,244.535z"/>
		<path fill="#FFFF01" d="M231.491,167.625c18.98,25.86,32.17,52.58,15.79,76.91s-59.48,8.43-74.13,41.739
			c-14.66,33.32,5.17,58.07,15.51,79.62c10.35,21.55,31.11,37.57,14.15,55.181c-16.96,17.6-29.66,12.93-58.11,0
			c-28.45-12.94-35.35-31.04-50.87-50c-15.51-18.971-3.44-50-13.79-71.561c-10.34-21.55-11.46-42.83-6.03-76.72
			c3-18.74,32.76-61.21,37.07-65.42s40.23-29.48,56.85-21.65C184.551,143.555,212.511,141.755,231.491,167.625z"/>
	</g>
	<g>
	</g>
</g>
</svg>
