<?xml version="1.0" encoding="utf-8"?>
<!-- Generator: Adobe Illustrator 15.1.0, SVG Export Plug-In . SVG Version: 6.00 Build 0)  -->
<!DOCTYPE svg PUBLIC "-//W3C//DTD SVG 1.1//EN" "http://www.w3.org/Graphics/SVG/1.1/DTD/svg11.dtd">
<svg version="1.1" id="Layer_1" xmlns="http://www.w3.org/2000/svg" xmlns:xlink="http://www.w3.org/1999/xlink" x="0px" y="0px"
	 width="543.34px" height="514.981px" viewBox="0 0 543.34 514.981" enable-background="new 0 0 543.34 514.981"
	 xml:space="preserve">
<g id="XMLID_1_">
	<g>
		<path fill="#3CBFC3" d="M292.972,439.199c-44.74-11.69-40.521-26.72-53.451-42.24c-12.93-15.52-19.82-45.689-21.55-67.24
			c-1.72-21.56-11.82-32.289,67.24-38.8c42.92-3.529,65.521-28.989,85.351-28.72s77.59-0.59,91.38,25.27
			c13.79,25.87,7.76,48.28,0,73.28s-54.62,52.53-62.07,56.9C375.511,431.919,337.711,450.879,292.972,439.199z"/>
		<path fill="#3CBFC3" d="M313.661,230.579c-17.24-9.479-29.59-54.36-40.229-68.97c-18.71-25.7-34.771-28.44-47.7-44.82
			c-12.93-16.38,21.27-45.69,47.7-38.8c26.439,6.9,60.92,8.62,72.989,11.21c12.07,2.59,57.761,28.45,69.83,54.31
			c12.07,25.86,25.86,56.9,12.931,68.1c-12.931,11.21-37.931,10.35-50,12.07C367.111,225.409,330.911,240.06,313.661,230.579z"/>
		<path fill="#FFFF01" d="M273.432,161.609c10.64,14.61,22.989,59.49,40.229,68.97c17.25,9.48,53.45-5.17,65.521-6.899
			c12.069-1.721,37.069-0.86,50-12.07c12.93-11.2-0.86-42.24-12.931-68.1c-12.069-25.86-57.76-51.72-69.83-54.31
			c-12.069-2.59-46.55-4.31-72.989-11.21c-26.431-6.89-60.63,22.42-47.7,38.8C238.661,133.169,254.721,135.909,273.432,161.609z
			 M315.392,249.539c-25.87-4.31-32.761-50-37.931-65.51c-5.18-15.52-21.56-26.63-61.21-52.59c-24.06-15.75-9.3-41.67-5.17-46.55
			c15.96-18.85,84.48-21.55,95.69-19.83c11.2,1.73,63.79,12.07,111.2,59.48c47.42,47.42,37.069,94.83,26.729,102.59
			c-10.35,7.761-43.97,0.86-56.9,4.311C374.871,234.89,341.251,253.85,315.392,249.539z"/>
		<path fill="#FFFF01" d="M336.941,257.489c19.83-21.74,87.13-10.13,97.439-7.31c10.32,2.81,56.011,20.05,47.391,82.119
			c-8.62,62.07-47.11,75.431-54.311,81.04c-31.46,24.471-82.76,55.17-123.279,44.82c-40.521-10.34-57.76-29.31-65.521-44.82
			c-7.76-15.52-39.8-45.689-35.85-87.93c3.96-42.25,22.92-41.38,51.37-41.38S317.111,279.239,336.941,257.489z M461.941,287.469
			c-13.79-25.859-71.55-25-91.38-25.27s-42.431,25.19-85.351,28.72c-79.06,6.511-68.96,17.24-67.24,38.8
			c1.73,21.551,8.62,51.721,21.55,67.24c12.93,15.521,8.71,30.55,53.451,42.24c44.739,11.68,82.539-7.28,106.899-21.55
			c7.45-4.37,54.311-31.9,62.07-56.9S475.731,313.339,461.941,287.469z"/>
		<path fill="#3CBFC3" d="M188.661,365.919c10.35,21.55,31.11,37.57,14.15,55.181c-16.96,17.6-29.66,12.93-58.11,0
			c-28.45-12.94-35.35-31.04-50.87-50c-15.51-18.971-3.44-50-13.79-71.561c-10.34-21.55-11.46-42.83-6.03-76.72
			c3-18.74,32.76-61.21,37.07-65.42s40.23-29.48,56.85-21.65c16.62,7.83,44.58,6.03,63.56,31.9c18.98,25.86,32.17,52.58,15.79,76.91
			s-59.48,8.43-74.13,41.739C158.491,319.619,178.321,344.369,188.661,365.919z"/>
		<path fill="#EF4F39" d="M171.421,50.409c12.93-14.66,83.56-25.18,96.52-25.87c39.6-2.09,96.58-10.34,140.55,24.14
			s82.76,69.83,88.79,86.21c6.04,16.38,10.35,20.69,15.52,43.96c5.171,23.28,19.83,31.04,12.931,87.94
			c-6.9,56.891-15.521,82.75-17.24,101.72c-1.72,18.971-29.31,41.381-34.48,49.141c-5.18,7.76-52.59,28.45-68.97,39.649
			c-16.38,11.21-58.569,27.67-112.069,37.07c-35.13,6.18-31.03,13.01-84.48,7.76c-30.72-3.02-31.9,4.311-50-2.59
			c-18.1-6.89-18.97-15.51-65.52-28.439c-46.55-12.94-64.65-81.04-65.51-92.25c-0.87-11.2-9.51-33.62-6.9-75
			c3.17-50.301-9.48-56.891,9.48-104.311c18.97-47.41,23.28-65.51,53.45-93.1C113.661,78.849,158.491,65.059,171.421,50.409z
			 M481.771,332.299c8.62-62.069-37.07-79.31-47.391-82.119c-10.31-2.82-77.609-14.431-97.439,7.31
			c-19.83,21.75-54.311,26.54-82.76,26.54s-47.41-0.87-51.37,41.38c-3.95,42.24,28.09,72.41,35.85,87.93
			c7.76,15.511,25,34.48,65.521,44.82c40.52,10.35,91.819-20.35,123.279-44.82C434.661,407.729,473.151,394.369,481.771,332.299z
			 M273.432,229.719c0.579-6.899-8.9-40.52-25.28-54.31c-16.38-13.8-25.01-31.9-52.59-42.25c-27.59-10.34-45.69-6.03-65.52,0
			c-19.83,6.04-44.83,31.9-47.41,34.49c-2.59,2.58-23.25,30.99-23.28,62.069c-0.03,36.24,2.59,68.101,9.48,97.41
			c6.9,29.311,15.52,67.24,42.25,89.65c26.72,22.42,33.62,34.87,77.58,26.06c43.97-8.81,34.01-13.989,34.25-26.06
			c0.24-12.061-10.93-26.72-20.43-50c-9.51-23.271-23.3-39.65-12.96-60.34c10.35-20.69,22.42-31.03,61.21-39.66
			C289.521,258.159,272.861,236.609,273.432,229.719z M277.461,184.029c5.17,15.51,12.061,61.2,37.931,65.51
			c25.859,4.311,59.479-14.649,72.409-18.1c12.931-3.45,46.551,3.45,56.9-4.311c10.34-7.76,20.69-55.17-26.729-102.59
			c-47.41-47.41-100-57.75-111.2-59.48c-11.21-1.72-79.73,0.98-95.69,19.83c-4.13,4.88-18.89,30.8,5.17,46.55
			C255.901,157.399,272.281,168.509,277.461,184.029z"/>
		<path fill="#FFFF01" d="M247.281,244.56c16.38-24.33,3.19-51.05-15.79-76.91c-18.98-25.87-46.94-24.07-63.56-31.9
			c-16.62-7.83-52.54,17.44-56.85,21.65s-34.07,46.68-37.07,65.42c-5.43,33.89-4.31,55.17,6.03,76.72
			c10.35,21.561-1.72,52.59,13.79,71.561c15.52,18.96,22.42,37.06,50.87,50c28.45,12.93,41.15,17.6,58.11,0
			c16.96-17.61-3.8-33.631-14.15-55.181c-10.34-21.55-30.17-46.3-15.51-79.62C187.801,252.989,230.901,268.89,247.281,244.56z
			 M248.151,175.409c16.38,13.79,25.859,47.41,25.28,54.31c-0.57,6.891,16.09,28.44-22.7,37.061
			c-38.79,8.63-50.86,18.97-61.21,39.66c-10.34,20.689,3.45,37.069,12.96,60.34c9.5,23.28,20.67,37.939,20.43,50
			c-0.24,12.07,9.72,17.25-34.25,26.06c-43.96,8.811-50.86-3.64-77.58-26.06c-26.73-22.41-35.35-60.34-42.25-89.65
			c-6.89-29.31-9.51-61.17-9.48-97.41c0.03-31.08,20.69-59.49,23.28-62.069c2.58-2.59,27.58-28.45,47.41-34.49
			c19.83-6.03,37.93-10.34,65.52,0C223.141,143.509,231.771,161.609,248.151,175.409z"/>
		<path fill="#FFFF01" d="M267.941,24.539c-12.96,0.69-83.59,11.21-96.52,25.87c-12.93,14.65-57.76,28.44-87.93,56.03
			c-30.17,27.59-34.48,45.69-53.45,93.1c-18.96,47.42-6.31,54.01-9.48,104.311c-2.61,41.38,6.03,63.8,6.9,75
			c0.86,11.21,18.96,79.31,65.51,92.25c46.55,12.93,47.42,21.55,65.52,28.439c18.1,6.9,19.28-0.43,50,2.59
			c53.45,5.25,49.35-1.58,84.48-7.76c53.5-9.4,95.689-25.86,112.069-37.07c16.38-11.199,63.79-31.89,68.97-39.649
			c5.171-7.76,32.761-30.17,34.48-49.141c1.72-18.97,10.34-44.829,17.24-101.72c6.899-56.9-7.76-64.66-12.931-87.94
			c-5.17-23.27-9.479-27.58-15.52-43.96c-6.03-16.38-44.82-51.73-88.79-86.21S307.541,22.449,267.941,24.539z M301.591,1.269
			c39.66,6.03,89.66,15.52,101.73,25.86c12.07,10.35,37.07,34.48,55.17,50.86s37.93,30.17,54.31,51.73
			c16.381,21.55,25.801,72.33,26.721,81.89c2.68,27.58,11.39,99.14-11.98,152.59c-23.359,53.45-42.33,54.31-52.67,64.65
			c-10.35,10.35-51.72,42.25-77.59,52.59c-25.86,10.35-62.07,21.55-97.41,27.59c-35.35,6.03-79.31,6.89-114.66,5.17
			c-35.34-1.72-83.62-13.79-110.34-37.93c-26.72-24.141-50.75-56.9-55.55-94.83c-4.8-37.931-11.69-26.721-17.73-77.59
			c-6.03-50.86,6.9-58.62,8.62-98.271c1.73-39.66,28.45-68.97,38.8-79.31c10.34-10.35,48.27-52.59,67.24-59.48
			c18.96-6.9,65.52-45.69,86.21-50C223.151,12.479,261.941-4.771,301.591,1.269z"/>
	</g>
	<g>
	</g>
</g>
</svg>
