<?xml version="1.0" encoding="utf-8"?>
<!-- Generator: Adobe Illustrator 15.0.0, SVG Export Plug-In . SVG Version: 6.00 Build 0)  -->
<!DOCTYPE svg PUBLIC "-//W3C//DTD SVG 1.1//EN" "http://www.w3.org/Graphics/SVG/1.1/DTD/svg11.dtd">
<svg version="1.1" id="Layer_1" xmlns="http://www.w3.org/2000/svg" xmlns:xlink="http://www.w3.org/1999/xlink" x="0px" y="0px"
	 width="543.34px" height="514.981px" viewBox="0 0 543.34 514.981" enable-background="new 0 0 543.34 514.981"
	 xml:space="preserve">
<path fill="#3CBFC3" d="M539.521,211.609c2.68,27.58,11.39,99.14-11.979,152.591c-23.359,53.449-42.33,54.309-52.671,64.648
	c-10.35,10.352-51.72,42.25-77.59,52.59c-25.859,10.352-62.069,21.551-97.41,27.592c-35.35,6.029-79.31,6.889-114.659,5.17
	c-35.34-1.721-83.62-13.791-110.34-37.932c-26.721-24.141-50.75-56.898-55.551-94.829c-4.8-37.931-11.689-26.722-17.729-77.59
	c-6.03-50.86,6.9-58.62,8.62-98.271c1.729-39.66,28.45-68.97,38.8-79.31c10.34-10.35,48.271-52.59,67.24-59.48
	c18.96-6.9,65.52-45.69,86.21-50c20.689-4.31,59.479-21.56,99.129-15.52c39.66,6.03,89.66,15.52,101.729,25.86
	c12.07,10.35,37.07,34.48,55.17,50.86c18.101,16.38,37.931,30.17,54.311,51.73C529.182,151.269,538.602,202.049,539.521,211.609z
	 M525.731,266.79c6.899-56.9-7.76-64.661-12.931-87.94c-5.17-23.27-9.479-27.58-15.521-43.96c-6.029-16.38-44.819-51.73-88.79-86.21
	c-43.97-34.48-100.95-26.23-140.55-24.14c-12.96,0.69-83.59,11.21-96.52,25.87c-12.93,14.65-57.76,28.44-87.93,56.03
	s-34.48,45.69-53.45,93.1c-18.96,47.42-6.311,54.01-9.48,104.311c-2.609,41.38,6.03,63.8,6.9,75
	c0.86,11.21,18.96,79.311,65.51,92.25c46.55,12.93,47.42,21.551,65.521,28.439c18.1,6.9,19.279-0.43,50,2.59
	c53.449,5.25,49.35-1.58,84.479-7.76c53.5-9.4,95.688-25.861,112.069-37.07c16.38-11.199,63.789-31.891,68.97-39.649
	c5.171-7.76,32.761-30.17,34.479-49.142C510.211,349.54,518.83,323.68,525.731,266.79z"/>
<path fill="#FFFF01" d="M512.801,178.849c5.171,23.28,19.83,31.04,12.931,87.94c-6.899,56.891-15.521,82.75-17.24,101.719
	c-1.72,18.972-29.31,41.382-34.479,49.142c-5.18,7.761-52.59,28.45-68.97,39.649c-16.381,11.209-58.569,27.67-112.069,37.07
	c-35.13,6.18-31.03,13.01-84.479,7.76c-30.721-3.02-31.9,4.311-50-2.59c-18.101-6.891-18.971-15.51-65.521-28.439
	c-46.55-12.939-64.649-81.04-65.51-92.25c-0.87-11.2-9.51-33.62-6.9-75c3.17-50.301-9.479-56.891,9.48-104.311
	c18.97-47.41,23.28-65.51,53.45-93.1s75-41.38,87.93-56.03c12.93-14.66,83.56-25.18,96.52-25.87
	c39.601-2.09,96.58-10.34,140.55,24.14c43.971,34.48,82.761,69.83,88.79,86.21C503.321,151.269,507.631,155.579,512.801,178.849z
	 M481.771,332.299c8.62-62.069-37.07-79.31-47.391-82.119c-10.311-2.82-77.609-14.431-97.439,7.31
	c-19.83,21.75-54.311,26.54-82.76,26.54s-47.41-0.869-51.37,41.381c-3.95,42.239,28.09,72.409,35.851,87.93
	c7.76,15.51,25,34.48,65.521,44.82c40.52,10.35,91.819-20.352,123.279-44.82C434.66,407.729,473.151,394.37,481.771,332.299z
	 M444.7,227.129c10.34-7.76,20.69-55.17-26.729-102.59c-47.41-47.41-100-57.75-111.2-59.48c-11.21-1.72-79.729,0.98-95.689,19.83
	c-4.13,4.88-18.891,30.8,5.17,46.55c39.649,25.96,56.029,37.07,61.21,52.59c5.17,15.51,12.061,61.2,37.931,65.51
	c25.859,4.311,59.479-14.649,72.409-18.1C400.731,227.989,434.352,234.89,444.7,227.129z M273.432,229.719
	c0.579-6.899-8.899-40.52-25.28-54.31c-16.38-13.8-25.01-31.9-52.59-42.25c-27.59-10.34-45.689-6.03-65.52,0
	c-19.83,6.04-44.83,31.9-47.41,34.49c-2.59,2.58-23.25,30.99-23.28,62.069c-0.03,36.24,2.59,68.101,9.48,97.41
	c6.899,29.312,15.52,67.24,42.25,89.65c26.72,22.42,33.62,34.871,77.58,26.061c43.97-8.811,34.01-13.99,34.25-26.061
	c0.239-12.061-10.931-26.72-20.431-50c-9.51-23.271-23.3-39.65-12.96-60.34c10.351-20.689,22.42-31.029,61.21-39.66
	C289.521,258.159,272.861,236.609,273.432,229.719z"/>
<path fill="#3CBFC3" d="M434.381,250.18c10.319,2.81,56.011,20.05,47.391,82.119c-8.62,62.07-47.11,75.431-54.311,81.039
	c-31.46,24.471-82.761,55.17-123.279,44.82c-40.521-10.34-57.76-29.311-65.521-44.82c-7.761-15.52-39.801-45.688-35.851-87.93
	c3.96-42.25,22.92-41.38,51.37-41.38s62.93-4.79,82.76-26.54C356.771,235.749,424.071,247.359,434.381,250.18z M461.941,360.749
	c7.76-25,13.79-47.41,0-73.279c-13.79-25.859-71.55-25-91.38-25.27c-19.83-0.271-42.431,25.189-85.351,28.719
	c-79.061,6.512-68.96,17.24-67.24,38.801c1.73,21.551,8.62,51.721,21.55,67.24c12.931,15.521,8.71,30.549,53.451,42.24
	c44.739,11.68,82.539-7.281,106.898-21.551C407.321,413.279,454.182,385.749,461.941,360.749z"/>
<path fill="#88FFC3" d="M461.941,287.469c13.79,25.869,7.76,48.279,0,73.279s-54.62,52.53-62.07,56.9
	c-24.359,14.27-62.159,33.229-106.898,21.551c-44.74-11.691-40.521-26.721-53.451-42.24c-12.93-15.521-19.819-45.689-21.55-67.24
	c-1.72-21.561-11.82-32.289,67.24-38.801c42.92-3.528,65.521-28.988,85.351-28.719C390.392,262.467,448.151,261.609,461.941,287.469
	z"/>
<path fill="#3CBFC3" d="M417.972,124.539c47.42,47.42,37.068,94.83,26.729,102.59c-10.35,7.761-43.97,0.86-56.899,4.311
	c-12.931,3.45-46.55,22.41-72.409,18.1c-25.87-4.31-32.761-50-37.931-65.51c-5.181-15.52-21.561-26.63-61.21-52.59
	c-24.061-15.75-9.3-41.67-5.17-46.55c15.96-18.85,84.479-21.55,95.689-19.83C317.972,66.789,370.562,77.129,417.972,124.539z
	 M429.182,211.609c12.93-11.2-0.86-42.24-12.931-68.1c-12.069-25.86-57.761-51.72-69.83-54.31
	c-12.069-2.59-46.551-4.31-72.989-11.21c-26.431-6.89-60.63,22.42-47.7,38.8c12.931,16.38,28.99,19.12,47.7,44.82
	c10.64,14.61,22.989,59.49,40.229,68.97c17.25,9.48,53.45-5.17,65.521-6.899C391.251,221.959,416.251,222.819,429.182,211.609z"/>
<path fill="#88FFC3" d="M416.251,143.509c12.069,25.86,25.859,56.9,12.931,68.1c-12.931,11.21-37.931,10.35-50,12.07
	c-12.07,1.729-48.271,16.38-65.521,6.899c-17.239-9.479-29.59-54.36-40.229-68.97c-18.71-25.7-34.771-28.44-47.7-44.82
	s21.271-45.69,47.7-38.8c26.438,6.9,60.92,8.62,72.989,11.21C358.49,91.789,404.182,117.649,416.251,143.509z"/>
<path fill="#3CBFC3" d="M248.151,175.409c16.38,13.79,25.859,47.41,25.28,54.31c-0.57,6.891,16.09,28.44-22.7,37.061
	c-38.79,8.631-50.859,18.971-61.21,39.66c-10.34,20.689,3.45,37.068,12.96,60.34c9.5,23.28,20.67,37.939,20.431,50
	c-0.24,12.07,9.72,17.25-34.25,26.061c-43.96,8.811-50.86-3.641-77.58-26.061c-26.73-22.41-35.351-60.34-42.25-89.65
	c-6.891-29.31-9.511-61.17-9.48-97.409c0.03-31.08,20.69-59.49,23.28-62.069c2.58-2.59,27.58-28.45,47.41-34.49
	c19.83-6.03,37.93-10.34,65.52,0C223.141,143.509,231.771,161.609,248.151,175.409z M247.281,244.56
	c16.381-24.33,3.19-51.05-15.789-76.91c-18.98-25.87-46.94-24.07-63.561-31.9s-52.54,17.44-56.85,21.65
	c-4.311,4.21-34.07,46.68-37.07,65.42c-5.43,33.89-4.31,55.171,6.03,76.72c10.35,21.562-1.721,52.59,13.79,71.562
	c15.52,18.96,22.42,37.06,50.87,49.999c28.449,12.932,41.149,17.602,58.109,0c16.96-17.609-3.8-33.631-14.149-55.18
	c-10.341-21.551-30.17-46.301-15.511-79.621C187.801,252.989,230.901,268.89,247.281,244.56z"/>
<path fill="#88FFC3" d="M231.491,167.649c18.979,25.86,32.17,52.58,15.789,76.91c-16.38,24.33-59.479,8.43-74.13,41.738
	c-14.659,33.32,5.17,58.07,15.511,79.621c10.35,21.549,31.109,37.569,14.149,55.18c-16.96,17.602-29.66,12.932-58.109,0
	c-28.45-12.939-35.351-31.039-50.87-49.999c-15.511-18.972-3.44-50-13.79-71.562c-10.34-21.55-11.46-42.83-6.03-76.72
	c3-18.74,32.76-61.21,37.07-65.42c4.31-4.21,40.229-29.48,56.85-21.65C184.551,143.579,212.511,141.779,231.491,167.649z"/>
</svg>
